<?xml version="1.0" encoding="utf-8"?>
<!-- Generator: Adobe Illustrator 24.3.0, SVG Export Plug-In . SVG Version: 6.00 Build 0)  -->
<svg version="1.1" id="Layer_1" xmlns="http://www.w3.org/2000/svg" xmlns:xlink="http://www.w3.org/1999/xlink" x="0px" y="0px"
	 viewBox="0 0 1482 150" style="enable-background:new 0 0 1482 150;" xml:space="preserve">
<style type="text/css">
	.st0{fill:#FFFFFF;}
	.st1{fill:#FDBC1F;}
	.st2{fill:#FCD746;}
	.st3{fill:#B3C935;}
</style>
<g id="Layer_1_1_">
</g>
<g id="Layer_2_1_">
</g>
<g id="Layer_3">
	<g>
		<g>
			<g>
				<g>
					<path class="st0" d="M92.9,67.3c1.8,0.9,3.1,2.2,4.1,3.9c1,1.7,1.4,3.7,1.4,5.9S98,81.2,97,82.9c-1,1.7-2.3,2.9-4.1,3.8
						c-1.8,0.9-3.8,1.3-6.2,1.3h-7.2V65.9h7.2C89.1,65.9,91.1,66.4,92.9,67.3z M92.7,83c1.4-1.4,2.1-3.4,2.1-5.9
						c0-2.6-0.7-4.6-2.1-6c-1.4-1.4-3.4-2.2-5.9-2.2h-3.6v16.2h3.6C89.3,85.1,91.3,84.4,92.7,83z"/>
					<path class="st0" d="M105.2,87.2c-1.3-0.8-2.4-1.8-3.2-3.2c-0.8-1.4-1.2-2.9-1.2-4.8c0-1.8,0.4-3.4,1.2-4.7
						c0.8-1.4,1.9-2.4,3.2-3.2c1.4-0.7,2.9-1.1,4.6-1.1c1.7,0,3.2,0.4,4.6,1.1s2.4,1.8,3.2,3.2c0.8,1.4,1.2,3,1.2,4.7
						s-0.4,3.4-1.2,4.7s-1.9,2.4-3.3,3.2c-1.4,0.8-2.9,1.1-4.6,1.1C108,88.3,106.5,87.9,105.2,87.2z M112.3,84.5
						c0.8-0.4,1.5-1.1,2-2c0.5-0.9,0.8-2,0.8-3.2s-0.2-2.3-0.7-3.2c-0.5-0.9-1.1-1.6-1.9-2c-0.8-0.4-1.7-0.7-2.6-0.7
						c-0.9,0-1.8,0.2-2.6,0.7c-0.8,0.4-1.4,1.1-1.9,2c-0.5,0.9-0.7,2-0.7,3.2c0,1.9,0.5,3.3,1.4,4.4c1,1,2.2,1.6,3.7,1.6
						C110.6,85.2,111.5,84.9,112.3,84.5z"/>
					<path class="st0" d="M134.9,71.1c1.1,0.6,1.9,1.4,2.6,2.6c0.6,1.1,0.9,2.5,0.9,4.1V88h-3.6v-9.8c0-1.6-0.4-2.8-1.2-3.6
						c-0.8-0.8-1.9-1.3-3.2-1.3s-2.4,0.4-3.2,1.3c-0.8,0.8-1.2,2-1.2,3.6V88h-3.6V70.5h3.6v2c0.6-0.7,1.3-1.3,2.3-1.7
						c0.9-0.4,1.9-0.6,2.9-0.6C132.6,70.2,133.8,70.5,134.9,71.1z"/>
					<path class="st0" d="M145,62.7l-0.4,6.5h-2.5l-0.4-6.5C141.7,62.7,145,62.7,145,62.7z"/>
					<path class="st0" d="M152.7,73.4v9.7c0,0.7,0.1,1.1,0.5,1.4c0.3,0.3,0.8,0.4,1.6,0.4h2.2v3h-2.9c-1.6,0-2.9-0.4-3.8-1.2
						c-0.9-0.8-1.3-2-1.3-3.7v-9.7H147v-3h2.1v-4.4h3.7v4.4h4.3v3L152.7,73.4L152.7,73.4z"/>
					<path class="st0" d="M191.9,65.9V88h-3.6V72.9L181.5,88H179l-6.8-15.2V88h-3.6V65.9h3.9l7.8,17.3l7.7-17.3H191.9z"/>
					<path class="st0" d="M196.9,67.5c-0.4-0.4-0.7-1-0.7-1.7c0-0.7,0.2-1.2,0.7-1.7c0.4-0.5,1-0.7,1.7-0.7c0.6,0,1.2,0.2,1.6,0.7
						c0.4,0.4,0.7,1,0.7,1.7c0,0.7-0.2,1.2-0.7,1.7c-0.4,0.4-1,0.7-1.6,0.7C197.9,68.2,197.3,67.9,196.9,67.5z M200.3,70.5V88h-3.6
						V70.5H200.3z"/>
					<path class="st0" d="M207.7,87.6c-1.1-0.5-2-1.2-2.6-2c-0.6-0.9-1-1.8-1-2.9h3.8c0.1,0.7,0.4,1.4,1.1,1.9
						c0.6,0.5,1.5,0.8,2.4,0.8c1,0,1.8-0.2,2.4-0.6c0.6-0.4,0.8-0.9,0.8-1.5c0-0.7-0.3-1.1-0.9-1.5s-1.6-0.7-3-1.1
						c-1.3-0.4-2.4-0.7-3.2-1.1c-0.8-0.3-1.5-0.9-2.1-1.6c-0.6-0.7-0.9-1.6-0.9-2.8c0-0.9,0.3-1.8,0.8-2.6c0.6-0.8,1.3-1.4,2.4-1.8
						c1-0.4,2.2-0.7,3.6-0.7c2,0,3.6,0.5,4.8,1.5s1.9,2.4,2,4.1h-3.6c-0.1-0.8-0.4-1.4-0.9-1.9c-0.6-0.5-1.4-0.7-2.3-0.7
						c-0.9,0-1.7,0.2-2.2,0.5s-0.8,0.8-0.8,1.4c0,0.5,0.2,0.9,0.5,1.2s0.8,0.6,1.2,0.8s1.2,0.4,2.2,0.7c1.3,0.3,2.3,0.7,3.1,1
						c0.8,0.3,1.5,0.9,2.1,1.5c0.6,0.7,0.9,1.6,0.9,2.7c0,1-0.3,1.9-0.8,2.7s-1.3,1.4-2.3,1.8c-1,0.4-2.2,0.7-3.6,0.7
						C210.1,88.3,208.8,88.1,207.7,87.6z"/>
					<path class="st0" d="M224.7,87.6c-1.1-0.5-2-1.2-2.6-2c-0.6-0.9-1-1.8-1-2.9h3.8c0.1,0.7,0.4,1.4,1.1,1.9
						c0.6,0.5,1.5,0.8,2.4,0.8c1,0,1.8-0.2,2.4-0.6c0.6-0.4,0.8-0.9,0.8-1.5c0-0.7-0.3-1.1-0.9-1.5s-1.6-0.7-3-1.1
						c-1.3-0.4-2.4-0.7-3.2-1.1c-0.8-0.3-1.5-0.9-2.1-1.6c-0.6-0.7-0.9-1.6-0.9-2.8c0-0.9,0.3-1.8,0.8-2.6c0.6-0.8,1.3-1.4,2.4-1.8
						c1-0.4,2.2-0.7,3.6-0.7c2,0,3.6,0.5,4.8,1.5s1.9,2.4,2,4.1h-3.6c-0.1-0.8-0.4-1.4-0.9-1.9s-1.4-0.7-2.3-0.7
						c-0.9,0-1.7,0.2-2.2,0.5s-0.8,0.8-0.8,1.4c0,0.5,0.2,0.9,0.5,1.2s0.8,0.6,1.2,0.8s1.2,0.4,2.2,0.7c1.3,0.3,2.3,0.7,3.1,1
						c0.8,0.3,1.5,0.9,2.1,1.5c0.6,0.7,0.9,1.6,0.9,2.7c0,1-0.3,1.9-0.8,2.7s-1.3,1.4-2.3,1.8c-1,0.4-2.2,0.7-3.6,0.7
						C227.1,88.3,225.8,88.1,224.7,87.6z"/>
					<path class="st0" d="M250.9,65.9V80c0,1.7,0.4,2.9,1.3,3.8s2.1,1.3,3.7,1.3c1.6,0,2.8-0.4,3.7-1.3c0.9-0.8,1.3-2.1,1.3-3.8
						V65.9h3.6v14c0,1.8-0.4,3.3-1.2,4.6c-0.8,1.2-1.8,2.2-3.1,2.8c-1.3,0.6-2.8,0.9-4.4,0.9c-1.6,0-3-0.3-4.3-0.9
						c-1.3-0.6-2.3-1.6-3.1-2.8c-0.8-1.2-1.1-2.8-1.1-4.6v-14H250.9z"/>
					<path class="st0" d="M272,87.6c-1.1-0.5-2-1.2-2.6-2c-0.6-0.9-1-1.8-1-2.9h3.8c0.1,0.7,0.4,1.4,1.1,1.9s1.5,0.8,2.4,0.8
						c1,0,1.8-0.2,2.4-0.6c0.6-0.4,0.8-0.9,0.8-1.5c0-0.7-0.3-1.1-0.9-1.5s-1.6-0.7-3-1.1c-1.3-0.4-2.4-0.7-3.2-1.1
						c-0.8-0.3-1.5-0.9-2.1-1.6c-0.6-0.7-0.9-1.6-0.9-2.8c0-0.9,0.3-1.8,0.8-2.6c0.5-0.8,1.3-1.4,2.4-1.8c1-0.4,2.2-0.7,3.5-0.7
						c2,0,3.6,0.5,4.8,1.5s1.9,2.4,2,4.1h-3.6c-0.1-0.8-0.4-1.4-1-1.9c-0.6-0.5-1.4-0.7-2.3-0.7c-1,0-1.7,0.2-2.2,0.5
						s-0.8,0.8-0.8,1.4c0,0.5,0.2,0.9,0.5,1.2s0.8,0.6,1.2,0.8s1.2,0.4,2.2,0.7c1.3,0.3,2.3,0.7,3.1,1c0.8,0.3,1.5,0.9,2.1,1.5
						c0.6,0.7,0.9,1.6,0.9,2.7c0,1-0.3,1.9-0.8,2.7s-1.3,1.4-2.3,1.8c-1,0.4-2.2,0.7-3.5,0.7C274.3,88.3,273.1,88.1,272,87.6z"/>
					<path class="st0" d="M307.9,83.5h-9.3l-1.6,4.5h-3.8l7.9-22.2h4.2l7.9,22.2h-3.8L307.9,83.5z M306.9,80.6l-3.6-10.3l-3.6,10.3
						H306.9z"/>
					<path class="st0" d="M321,73.4v9.7c0,0.7,0.1,1.1,0.5,1.4s0.8,0.4,1.6,0.4h2.2v3h-2.9c-1.6,0-2.9-0.4-3.8-1.2
						c-0.9-0.8-1.3-2-1.3-3.7v-9.7h-2.1v-3h2.1v-4.4h3.7v4.4h4.3v3L321,73.4L321,73.4z"/>
					<path class="st0" d="M351.2,65.9v3h-5.9V88h-3.6V68.9h-5.9v-3H351.2z"/>
					<path class="st0" d="M367.5,71.1c1,0.6,1.9,1.4,2.5,2.6c0.6,1.1,0.9,2.5,0.9,4.1V88h-3.6v-9.8c0-1.6-0.4-2.8-1.2-3.6
						c-0.8-0.8-1.9-1.3-3.2-1.3c-1.4,0-2.4,0.4-3.2,1.3c-0.8,0.8-1.2,2-1.2,3.6V88h-3.6V64.5h3.6v8.1c0.6-0.7,1.4-1.3,2.3-1.7
						c0.9-0.4,2-0.6,3.1-0.6C365.3,70.2,366.5,70.5,367.5,71.1z"/>
					<path class="st0" d="M391.5,80.6h-13.4c0.1,1.4,0.6,2.5,1.6,3.4s2.1,1.3,3.4,1.3c2,0,3.3-0.8,4.1-2.4h3.9
						c-0.5,1.6-1.5,2.9-2.9,4s-3.1,1.5-5.2,1.5c-1.7,0-3.2-0.4-4.5-1.1c-1.3-0.8-2.4-1.8-3.1-3.2c-0.8-1.4-1.1-2.9-1.1-4.8
						s0.4-3.4,1.1-4.8s1.8-2.4,3.1-3.2c1.3-0.7,2.9-1.1,4.6-1.1c1.6,0,3.1,0.4,4.4,1.1c1.3,0.7,2.3,1.7,3,3c0.7,1.3,1.1,2.8,1.1,4.5
						C391.6,79.5,391.5,80.1,391.5,80.6z M387.8,77.7c0-1.3-0.5-2.4-1.4-3.2c-0.9-0.8-2.1-1.2-3.5-1.2c-1.2,0-2.3,0.4-3.2,1.2
						c-0.9,0.8-1.4,1.9-1.6,3.2L387.8,77.7L387.8,77.7z"/>
					<path class="st0" d="M406.7,87.5c-1.2-0.5-2.1-1.3-2.8-2.2c-0.7-1-1-2.1-1-3.3h3.9c0.1,1,0.5,1.7,1.1,2.4s1.6,0.9,2.8,0.9
						c1.2,0,2.2-0.3,2.9-0.9c0.7-0.6,1-1.4,1-2.3c0-0.7-0.2-1.3-0.6-1.8c-0.4-0.5-1-0.8-1.6-1.1c-0.6-0.2-1.5-0.5-2.7-0.8
						c-1.5-0.4-2.6-0.8-3.5-1.2c-0.9-0.4-1.7-1-2.3-1.8c-0.6-0.8-1-1.9-1-3.3c0-1.3,0.3-2.4,1-3.3c0.6-1,1.5-1.7,2.7-2.2
						c1.1-0.5,2.5-0.8,4-0.8c2.1,0,3.9,0.5,5.3,1.6s2.1,2.5,2.3,4.4h-4c-0.1-0.8-0.4-1.5-1.1-2.1c-0.7-0.6-1.6-0.9-2.8-0.9
						c-1,0-1.9,0.3-2.5,0.8c-0.7,0.5-1,1.3-1,2.3c0,0.7,0.2,1.2,0.6,1.7s0.9,0.8,1.6,1c0.6,0.2,1.5,0.5,2.6,0.8
						c1.5,0.4,2.7,0.8,3.6,1.2c0.9,0.4,1.7,1,2.4,1.9c0.6,0.8,1,2,1,3.4c0,1.1-0.3,2.2-0.9,3.2c-0.6,1-1.5,1.8-2.6,2.4
						c-1.2,0.6-2.5,0.9-4.1,0.9C409.2,88.2,407.9,88,406.7,87.5z"/>
					<path class="st0" d="M435.3,71.1c1,0.6,1.9,1.4,2.5,2.6c0.6,1.1,0.9,2.5,0.9,4.1V88h-3.6v-9.8c0-1.6-0.4-2.8-1.2-3.6
						c-0.8-0.8-1.9-1.3-3.2-1.3c-1.4,0-2.4,0.4-3.2,1.3c-0.8,0.8-1.2,2-1.2,3.6V88h-3.6V64.5h3.6v8.1c0.6-0.7,1.4-1.3,2.3-1.7
						c0.9-0.4,2-0.6,3.1-0.6C433.1,70.2,434.3,70.5,435.3,71.1z"/>
					<path class="st0" d="M446.4,87.2c-1.3-0.8-2.4-1.8-3.1-3.2c-0.8-1.4-1.1-2.9-1.1-4.8c0-1.8,0.4-3.4,1.2-4.7
						c0.8-1.4,1.9-2.4,3.2-3.2c1.4-0.7,2.9-1.1,4.5-1.1s3.2,0.4,4.5,1.1s2.4,1.8,3.2,3.2c0.8,1.4,1.2,3,1.2,4.7s-0.4,3.4-1.2,4.7
						s-1.9,2.4-3.3,3.2c-1.4,0.8-2.9,1.1-4.6,1.1C449.3,88.3,447.8,87.9,446.4,87.2z M453.5,84.5c0.8-0.4,1.5-1.1,2-2
						c0.5-0.9,0.8-2,0.8-3.2s-0.2-2.3-0.7-3.2c-0.5-0.9-1.1-1.6-1.9-2c-0.8-0.4-1.7-0.7-2.6-0.7c-0.9,0-1.8,0.2-2.6,0.7
						c-0.8,0.4-1.4,1.1-1.9,2c-0.5,0.9-0.7,2-0.7,3.2c0,1.9,0.5,3.3,1.5,4.4s2.2,1.6,3.6,1.6C451.9,85.2,452.7,84.9,453.5,84.5z"/>
					<path class="st0" d="M487.2,70.5L481.8,88h-3.8l-3.5-13l-3.5,13H467l-5.5-17.5h3.7l3.7,14.1l3.7-14.1h3.8l3.6,14l3.6-14H487.2z
						"/>
					<path class="st0" d="M491,87.6c-0.4-0.4-0.7-1-0.7-1.7s0.2-1.2,0.7-1.7c0.5-0.4,1-0.7,1.7-0.7c0.6,0,1.2,0.2,1.6,0.7
						c0.4,0.4,0.7,1,0.7,1.7s-0.2,1.2-0.7,1.7c-0.5,0.4-1,0.7-1.6,0.7C492,88.2,491.4,88,491,87.6z M494.4,65.9L494,81.4h-3
						l-0.4-15.4H494.4z"/>
				</g>
			</g>
			<polygon class="st1" points="534.5,77 534.5,63.9 545.8,70.4 557.2,77 545.8,83.5 534.5,90.1 			"/>
			<polygon class="st1" points="566.2,77 566.2,63.9 577.5,70.4 588.8,77 577.5,83.5 566.2,90.1 			"/>
			<polygon class="st1" points="597.9,77 597.9,63.9 609.2,70.4 620.5,77 609.2,83.5 597.9,90.1 			"/>
		</g>
		<g>
			<path class="st1" d="M1005.5,105.3l-12.2-6.4c-0.9-0.5-2-0.5-2.9,0l-13,6.8c-1.7,0.9-3.6-0.5-3.3-2.3c0,0,0,0,0,0l2.1-12.4l0.4-2
				c0.2-1-0.2-2.1-0.9-2.8l-10.5-10.2c-1.3-1.3-0.6-3.6,1.2-3.9l1.3-0.2l13.2-1.9c1-0.2,1.9-0.8,2.4-1.7l6.5-13.1
				c0.8-1.7,3.3-1.7,4.1,0l4.7,9.5l1.8,3.6c0.5,0.9,1.3,1.6,2.4,1.7l14.5,2.1c1.8,0.3,2.6,2.5,1.3,3.8c0,0,0,0.1-0.1,0.1l-7.7,7.4
				L1008,86c-0.7,0.7-1.1,1.8-0.9,2.8l2.5,14.4c0.3,1.9-1.7,3.3-3.3,2.4L1005.5,105.3"/>
			<path class="st0" d="M1020.3,60.1l-4.2-2.2c-0.3-0.2-0.7-0.2-1,0l-4.5,2.3c-0.6,0.3-1.2-0.2-1.1-0.8c0,0,0,0,0,0l0.7-4.3l0.1-0.7
				c0.1-0.3-0.1-0.7-0.3-1l-3.6-3.5c-0.5-0.5-0.2-1.2,0.4-1.3l0.5-0.1l4.5-0.7c0.4,0,0.7-0.3,0.8-0.6l2.2-4.5c0.3-0.6,1.1-0.6,1.4,0
				l1.6,3.3l0.6,1.2c0.2,0.3,0.5,0.5,0.8,0.6l5,0.7c0.6,0.1,0.9,0.9,0.5,1.3c0,0,0,0,0,0l-2.6,2.5l-1,0.9c-0.2,0.2-0.4,0.6-0.3,1
				l0.9,5c0.1,0.6-0.6,1.1-1.1,0.8L1020.3,60.1"/>
			<g>
				<path class="st0" d="M1037.1,62.7c0.8-1.4,1.9-2.5,3.3-3.2c1.4-0.8,2.9-1.2,4.6-1.2c1.9,0,3.6,0.5,5.1,1.4s2.6,2.3,3.2,4h-3.5
					c-0.5-0.9-1.1-1.6-1.9-2.1s-1.8-0.7-2.9-0.7c-1.2,0-2.2,0.3-3.2,0.8c-0.9,0.5-1.7,1.3-2.2,2.3c-0.5,1-0.8,2.2-0.8,3.5
					s0.3,2.5,0.8,3.5s1.2,1.8,2.2,2.3s2,0.8,3.2,0.8c1.1,0,2-0.2,2.9-0.7c0.8-0.5,1.5-1.2,1.9-2.1h3.5c-0.7,1.7-1.7,3-3.2,4
					c-1.5,0.9-3.2,1.4-5.1,1.4c-1.7,0-3.2-0.4-4.6-1.2s-2.5-1.9-3.3-3.2c-0.8-1.4-1.2-3-1.2-4.7
					C1035.9,65.7,1036.3,64.1,1037.1,62.7z"/>
				<path class="st0" d="M1059.3,75.7c-1.1-0.6-1.9-1.5-2.6-2.6s-0.9-2.4-0.9-3.8c0-1.4,0.3-2.7,0.9-3.8c0.6-1.1,1.5-2,2.6-2.6
					s2.3-0.9,3.7-0.9c1.4,0,2.6,0.3,3.7,0.9c1.1,0.6,2,1.5,2.6,2.6s0.9,2.4,0.9,3.8s-0.3,2.7-1,3.8c-0.7,1.1-1.5,2-2.7,2.6
					c-1.1,0.6-2.4,0.9-3.7,0.9C1061.6,76.6,1060.3,76.3,1059.3,75.7z M1065,73.5c0.7-0.4,1.2-0.9,1.6-1.6s0.6-1.6,0.6-2.6
					c0-1-0.2-1.9-0.6-2.6s-0.9-1.2-1.6-1.6c-0.7-0.4-1.3-0.5-2.1-0.5s-1.4,0.2-2.1,0.5c-0.6,0.4-1.2,0.9-1.5,1.6s-0.6,1.6-0.6,2.6
					c0,1.5,0.4,2.7,1.2,3.5c0.8,0.8,1.8,1.2,2.9,1.2C1063.6,74.1,1064.3,73.9,1065,73.5z"/>
				<path class="st0" d="M1093.3,62.7c0.9,0.5,1.6,1.2,2.1,2.1c0.5,0.9,0.8,2,0.8,3.3v8.4h-2.9v-7.9c0-1.3-0.3-2.2-0.9-2.9
					c-0.6-0.7-1.5-1-2.6-1s-2,0.3-2.6,1c-0.6,0.7-1,1.7-1,2.9v7.9h-2.9v-7.9c0-1.3-0.3-2.2-0.9-2.9s-1.5-1-2.6-1s-2,0.3-2.6,1
					c-0.6,0.7-1,1.7-1,2.9v7.9h-2.9V62.2h2.9v1.6c0.5-0.6,1.1-1,1.8-1.4c0.7-0.3,1.5-0.5,2.4-0.5c1.1,0,2.1,0.2,3,0.7
					c0.9,0.5,1.6,1.2,2.1,2.1c0.4-0.9,1.1-1.5,2-2c0.9-0.5,1.9-0.8,2.9-0.8C1091.4,62,1092.4,62.2,1093.3,62.7z"/>
				<path class="st0" d="M1112.8,70.4h-10.8c0.1,1.1,0.5,2,1.3,2.7s1.7,1,2.8,1c1.6,0,2.7-0.7,3.3-2h3.2c-0.4,1.3-1.2,2.4-2.3,3.2
					c-1.1,0.8-2.5,1.2-4.2,1.2c-1.3,0-2.6-0.3-3.6-0.9c-1.1-0.6-1.9-1.5-2.5-2.6s-0.9-2.4-0.9-3.8c0-1.5,0.3-2.7,0.9-3.8
					s1.4-2,2.5-2.6c1.1-0.6,2.3-0.9,3.7-0.9c1.3,0,2.5,0.3,3.6,0.9c1.1,0.6,1.9,1.4,2.4,2.5c0.6,1.1,0.9,2.3,0.9,3.6
					C1112.8,69.5,1112.8,70,1112.8,70.4z M1109.8,68c0-1.1-0.4-1.9-1.2-2.6c-0.8-0.7-1.7-1-2.8-1c-1,0-1.9,0.3-2.6,1
					c-0.7,0.6-1.2,1.5-1.3,2.6H1109.8z"/>
				<path class="st0" d="M1125.1,75.9c-1-0.4-1.7-1-2.3-1.8c-0.6-0.8-0.8-1.7-0.8-2.7h3.1c0.1,0.8,0.4,1.4,0.9,1.9
					c0.5,0.5,1.3,0.8,2.3,0.8c1,0,1.8-0.2,2.4-0.7c0.6-0.5,0.8-1.1,0.8-1.9c0-0.6-0.2-1.1-0.5-1.5c-0.3-0.4-0.8-0.7-1.3-0.9
					c-0.5-0.2-1.2-0.4-2.2-0.7c-1.2-0.3-2.1-0.6-2.8-0.9s-1.3-0.8-1.9-1.5c-0.5-0.7-0.8-1.6-0.8-2.7c0-1,0.3-1.9,0.8-2.7
					s1.2-1.4,2.2-1.8s2-0.6,3.2-0.6c1.7,0,3.2,0.4,4.3,1.3s1.7,2,1.8,3.6h-3.2c-0.1-0.7-0.4-1.2-0.9-1.7c-0.6-0.5-1.3-0.7-2.2-0.7
					c-0.8,0-1.5,0.2-2.1,0.6s-0.8,1-0.8,1.8c0,0.5,0.2,1,0.5,1.3c0.3,0.3,0.8,0.6,1.3,0.8c0.5,0.2,1.2,0.4,2.1,0.7
					c1.2,0.3,2.2,0.7,2.9,1c0.8,0.3,1.4,0.8,1.9,1.5c0.5,0.7,0.8,1.6,0.8,2.7c0,0.9-0.2,1.8-0.7,2.6c-0.5,0.8-1.2,1.4-2.1,1.9
					c-0.9,0.5-2,0.7-3.3,0.7C1127.1,76.6,1126,76.4,1125.1,75.9z"/>
				<path class="st0" d="M1150.8,70.4H1140c0.1,1.1,0.5,2,1.3,2.7s1.7,1,2.8,1c1.6,0,2.7-0.7,3.3-2h3.2c-0.4,1.3-1.2,2.4-2.3,3.2
					c-1.1,0.8-2.5,1.2-4.2,1.2c-1.3,0-2.6-0.3-3.6-0.9c-1.1-0.6-1.9-1.5-2.5-2.6s-0.9-2.4-0.9-3.8c0-1.5,0.3-2.7,0.9-3.8
					s1.4-2,2.5-2.6c1.1-0.6,2.3-0.9,3.7-0.9c1.3,0,2.5,0.3,3.6,0.9c1.1,0.6,1.9,1.4,2.4,2.5c0.6,1.1,0.9,2.3,0.9,3.6
					C1150.9,69.5,1150.9,70,1150.8,70.4z M1147.9,68c0-1.1-0.4-1.9-1.2-2.6c-0.8-0.7-1.7-1-2.8-1c-1,0-1.9,0.3-2.6,1
					c-0.7,0.6-1.2,1.5-1.3,2.6H1147.9z"/>
				<path class="st0" d="M1166.7,70.4h-10.8c0.1,1.1,0.5,2,1.3,2.7c0.8,0.7,1.7,1,2.8,1c1.6,0,2.7-0.7,3.3-2h3.2
					c-0.4,1.3-1.2,2.4-2.3,3.2c-1.1,0.8-2.5,1.2-4.2,1.2c-1.4,0-2.6-0.3-3.6-0.9c-1.1-0.6-1.9-1.5-2.5-2.6s-0.9-2.4-0.9-3.8
					c0-1.5,0.3-2.7,0.9-3.8s1.4-2,2.5-2.6c1.1-0.6,2.3-0.9,3.7-0.9c1.3,0,2.5,0.3,3.6,0.9c1.1,0.6,1.9,1.4,2.4,2.5
					c0.6,1.1,0.9,2.3,0.9,3.6C1166.8,69.5,1166.8,70,1166.7,70.4z M1163.8,68c0-1.1-0.4-1.9-1.2-2.6c-0.8-0.7-1.7-1-2.8-1
					c-1,0-1.9,0.3-2.6,1c-0.7,0.6-1.2,1.5-1.3,2.6H1163.8z"/>
				<path class="st0" d="M1189.2,62.2v14.2h-2.9v-1.7c-0.5,0.6-1.1,1-1.8,1.4c-0.8,0.3-1.5,0.5-2.4,0.5c-1.1,0-2.1-0.2-3-0.7
					s-1.6-1.2-2.1-2.1c-0.5-0.9-0.8-2-0.8-3.3v-8.3h2.9v7.9c0,1.3,0.3,2.2,0.9,2.9s1.5,1,2.6,1s2-0.3,2.6-1c0.6-0.7,1-1.7,1-2.9
					v-7.9L1189.2,62.2L1189.2,62.2z"/>
				<path class="st0" d="M1195.2,76c-0.9-0.4-1.6-0.9-2.1-1.7c-0.5-0.7-0.8-1.5-0.8-2.3h3c0.1,0.6,0.3,1.1,0.9,1.5s1.2,0.6,2,0.6
					c0.8,0,1.5-0.2,1.9-0.5c0.4-0.3,0.7-0.7,0.7-1.2c0-0.5-0.2-0.9-0.8-1.2c-0.5-0.3-1.3-0.5-2.4-0.8c-1.1-0.3-1.9-0.6-2.6-0.8
					c-0.7-0.3-1.2-0.7-1.7-1.3s-0.7-1.3-0.7-2.2c0-0.8,0.2-1.4,0.7-2.1c0.4-0.6,1.1-1.1,1.9-1.5c0.8-0.4,1.8-0.5,2.9-0.5
					c1.6,0,2.9,0.4,3.9,1.2c1,0.8,1.5,1.9,1.6,3.3h-2.9c-0.1-0.6-0.3-1.1-0.8-1.5s-1.1-0.6-1.9-0.6c-0.8,0-1.4,0.2-1.8,0.4
					s-0.6,0.7-0.6,1.2c0,0.4,0.1,0.7,0.4,0.9c0.3,0.3,0.6,0.5,1,0.6c0.4,0.2,1,0.3,1.8,0.6c1,0.3,1.9,0.6,2.5,0.8
					c0.7,0.3,1.2,0.7,1.7,1.2s0.7,1.3,0.8,2.2c0,0.8-0.2,1.5-0.7,2.2c-0.4,0.6-1.1,1.1-1.9,1.5s-1.8,0.5-2.9,0.5
					C1197.1,76.6,1196.1,76.4,1195.2,76z"/>
				<path class="st0" d="M1213.4,65.5c0.6-1.1,1.4-2,2.4-2.6s2.2-0.9,3.4-0.9c1.1,0,2.1,0.2,2.9,0.7s1.5,1,2,1.6v-2.1h3v14.2h-3
					v-2.1c-0.5,0.7-1.2,1.2-2,1.7c-0.9,0.4-1.8,0.7-2.9,0.7c-1.2,0-2.3-0.3-3.3-0.9c-1-0.6-1.8-1.5-2.4-2.6
					c-0.6-1.1-0.9-2.4-0.9-3.8S1212.8,66.6,1213.4,65.5z M1223.5,66.8c-0.4-0.7-0.9-1.3-1.6-1.6c-0.7-0.4-1.4-0.6-2.1-0.6
					s-1.5,0.2-2.1,0.6s-1.2,0.9-1.6,1.6c-0.4,0.7-0.6,1.6-0.6,2.5c0,1,0.2,1.8,0.6,2.6c0.4,0.7,0.9,1.3,1.6,1.7
					c0.7,0.4,1.4,0.6,2.1,0.6c0.8,0,1.5-0.2,2.1-0.6s1.2-0.9,1.6-1.7c0.4-0.7,0.6-1.6,0.6-2.6C1224.1,68.3,1223.9,67.5,1223.5,66.8z
					"/>
				<path class="st0" d="M1234.3,64.6v7.8c0,0.5,0.1,0.9,0.4,1.2s0.7,0.3,1.3,0.3h1.8v2.4h-2.3c-1.3,0-2.3-0.3-3-0.9
					c-0.7-0.6-1.1-1.6-1.1-3v-7.8h-1.7v-2.4h1.7v-3.5h3v3.5h3.4v2.4L1234.3,64.6L1234.3,64.6z"/>
				<path class="st0" d="M1240.3,65.2c-0.4-0.4-0.5-0.8-0.5-1.3c0-0.5,0.2-1,0.5-1.3s0.8-0.5,1.3-0.5c0.5,0,0.9,0.2,1.3,0.5
					c0.4,0.4,0.5,0.8,0.5,1.3c0,0.5-0.2,1-0.5,1.3s-0.8,0.5-1.3,0.5C1241.1,65.8,1240.7,65.6,1240.3,65.2z M1240.3,76
					c-0.4-0.4-0.5-0.8-0.5-1.3c0-0.5,0.2-1,0.5-1.3c0.4-0.4,0.8-0.5,1.3-0.5c0.5,0,0.9,0.2,1.3,0.5c0.4,0.4,0.5,0.8,0.5,1.3
					s-0.2,1-0.5,1.3c-0.4,0.4-0.8,0.5-1.3,0.5C1241.1,76.6,1240.7,76.4,1240.3,76z"/>
			</g>
			<g>
				<path class="st1" d="M1037.1,88.1c0.8-1.4,1.9-2.5,3.3-3.2c1.4-0.8,2.9-1.2,4.6-1.2c1.9,0,3.6,0.5,5.1,1.4s2.6,2.3,3.2,4h-3.5
					c-0.5-0.9-1.1-1.6-1.9-2.1s-1.8-0.7-2.9-0.7c-1.2,0-2.2,0.3-3.2,0.8c-0.9,0.5-1.7,1.3-2.2,2.3c-0.5,1-0.8,2.2-0.8,3.5
					s0.3,2.5,0.8,3.5s1.2,1.8,2.2,2.3s2,0.8,3.2,0.8c1.1,0,2-0.2,2.9-0.7c0.8-0.5,1.5-1.2,1.9-2.1h3.5c-0.7,1.7-1.7,3-3.2,4
					c-1.5,0.9-3.2,1.4-5.1,1.4c-1.7,0-3.2-0.4-4.6-1.2s-2.5-1.9-3.3-3.2c-0.8-1.4-1.2-3-1.2-4.7C1035.9,91,1036.3,89.4,1037.1,88.1z
					"/>
				<path class="st1" d="M1059.3,101.1c-1.1-0.6-1.9-1.5-2.6-2.6s-0.9-2.4-0.9-3.8c0-1.4,0.3-2.7,0.9-3.8c0.6-1.1,1.5-2,2.6-2.6
					s2.3-0.9,3.7-0.9c1.4,0,2.6,0.3,3.7,0.9c1.1,0.6,2,1.5,2.6,2.6s0.9,2.4,0.9,3.8s-0.3,2.7-1,3.8c-0.7,1.1-1.5,2-2.7,2.6
					c-1.1,0.6-2.4,0.9-3.7,0.9C1061.6,102,1060.3,101.7,1059.3,101.1z M1065,98.9c0.7-0.4,1.2-0.9,1.6-1.6s0.6-1.6,0.6-2.6
					c0-1-0.2-1.9-0.6-2.6s-0.9-1.2-1.6-1.6c-0.7-0.4-1.3-0.5-2.1-0.5s-1.4,0.2-2.1,0.5c-0.6,0.4-1.2,0.9-1.5,1.6s-0.6,1.6-0.6,2.6
					c0,1.5,0.4,2.7,1.2,3.5c0.8,0.8,1.8,1.2,2.9,1.2C1063.6,99.4,1064.3,99.2,1065,98.9z"/>
				<path class="st1" d="M1093.3,88c0.9,0.5,1.6,1.2,2.1,2.1c0.5,0.9,0.8,2,0.8,3.3v8.4h-2.9v-7.9c0-1.3-0.3-2.2-0.9-2.9
					c-0.6-0.7-1.5-1-2.6-1s-2,0.3-2.6,1c-0.6,0.7-1,1.7-1,2.9v7.9h-2.9v-7.9c0-1.3-0.3-2.2-0.9-2.9s-1.5-1-2.6-1s-2,0.3-2.6,1
					c-0.6,0.7-1,1.7-1,2.9v7.9h-2.9V87.6h2.9v1.6c0.5-0.6,1.1-1,1.8-1.4c0.7-0.3,1.5-0.5,2.4-0.5c1.1,0,2.1,0.2,3,0.7
					c0.9,0.5,1.6,1.2,2.1,2.1c0.4-0.9,1.1-1.5,2-2c0.9-0.5,1.9-0.8,2.9-0.8C1091.4,87.3,1092.4,87.6,1093.3,88z"/>
				<path class="st1" d="M1112.8,95.7h-10.8c0.1,1.1,0.5,2,1.3,2.7s1.7,1,2.8,1c1.6,0,2.7-0.7,3.3-2h3.2c-0.4,1.3-1.2,2.4-2.3,3.2
					c-1.1,0.8-2.5,1.2-4.2,1.2c-1.3,0-2.6-0.3-3.6-0.9c-1.1-0.6-1.9-1.5-2.5-2.6s-0.9-2.4-0.9-3.8c0-1.5,0.3-2.7,0.9-3.8
					s1.4-2,2.5-2.6s2.3-0.9,3.7-0.9c1.3,0,2.5,0.3,3.6,0.9c1.1,0.6,1.9,1.4,2.4,2.5c0.6,1.1,0.9,2.3,0.9,3.6
					C1112.8,94.8,1112.8,95.3,1112.8,95.7z M1109.8,93.4c0-1.1-0.4-1.9-1.2-2.6s-1.7-1-2.8-1c-1,0-1.9,0.3-2.6,1
					c-0.7,0.6-1.2,1.5-1.3,2.6H1109.8z"/>
				<path class="st1" d="M1125.1,101.3c-1-0.4-1.7-1-2.3-1.8c-0.6-0.8-0.8-1.7-0.8-2.7h3.1c0.1,0.8,0.4,1.4,0.9,1.9
					c0.5,0.5,1.3,0.8,2.3,0.8c1,0,1.8-0.2,2.4-0.7c0.6-0.5,0.8-1.1,0.8-1.9c0-0.6-0.2-1.1-0.5-1.5c-0.3-0.4-0.8-0.7-1.3-0.9
					c-0.5-0.2-1.2-0.4-2.2-0.7c-1.2-0.3-2.1-0.6-2.8-0.9s-1.3-0.8-1.9-1.5c-0.5-0.7-0.8-1.6-0.8-2.7c0-1,0.3-1.9,0.8-2.7
					s1.2-1.4,2.2-1.8c0.9-0.4,2-0.6,3.2-0.6c1.7,0,3.2,0.4,4.3,1.3s1.7,2.1,1.8,3.6h-3.2c-0.1-0.7-0.4-1.2-0.9-1.7
					c-0.6-0.5-1.3-0.7-2.2-0.7c-0.8,0-1.5,0.2-2.1,0.6s-0.8,1.1-0.8,1.8c0,0.6,0.2,1,0.5,1.3c0.3,0.3,0.8,0.6,1.3,0.8
					c0.5,0.2,1.2,0.4,2.1,0.7c1.2,0.3,2.2,0.7,2.9,1c0.8,0.3,1.4,0.8,1.9,1.5c0.5,0.7,0.8,1.6,0.8,2.7c0,0.9-0.2,1.8-0.7,2.6
					c-0.5,0.8-1.2,1.4-2.1,1.9c-0.9,0.5-2,0.7-3.3,0.7C1127.1,101.9,1126,101.7,1125.1,101.3z"/>
				<path class="st1" d="M1150.8,95.7H1140c0.1,1.1,0.5,2,1.3,2.7s1.7,1,2.8,1c1.6,0,2.7-0.7,3.3-2h3.2c-0.4,1.3-1.2,2.4-2.3,3.2
					c-1.1,0.8-2.5,1.2-4.2,1.2c-1.3,0-2.6-0.3-3.6-0.9c-1.1-0.6-1.9-1.5-2.5-2.6s-0.9-2.4-0.9-3.8c0-1.5,0.3-2.7,0.9-3.8
					s1.4-2,2.5-2.6s2.3-0.9,3.7-0.9c1.3,0,2.5,0.3,3.6,0.9c1.1,0.6,1.9,1.4,2.4,2.5c0.6,1.1,0.9,2.3,0.9,3.6
					C1150.9,94.8,1150.9,95.3,1150.8,95.7z M1147.9,93.4c0-1.1-0.4-1.9-1.2-2.6s-1.7-1-2.8-1c-1,0-1.9,0.3-2.6,1
					c-0.7,0.6-1.2,1.5-1.3,2.6H1147.9z"/>
				<path class="st1" d="M1166.7,95.7h-10.8c0.1,1.1,0.5,2,1.3,2.7c0.8,0.7,1.7,1,2.8,1c1.6,0,2.7-0.7,3.3-2h3.2
					c-0.4,1.3-1.2,2.4-2.3,3.2c-1.1,0.8-2.5,1.2-4.2,1.2c-1.4,0-2.6-0.3-3.6-0.9c-1.1-0.6-1.9-1.5-2.5-2.6s-0.9-2.4-0.9-3.8
					c0-1.5,0.3-2.7,0.9-3.8s1.4-2,2.5-2.6s2.3-0.9,3.7-0.9c1.3,0,2.5,0.3,3.6,0.9c1.1,0.6,1.9,1.4,2.4,2.5c0.6,1.1,0.9,2.3,0.9,3.6
					C1166.8,94.8,1166.8,95.3,1166.7,95.7z M1163.8,93.4c0-1.1-0.4-1.9-1.2-2.6s-1.7-1-2.8-1c-1,0-1.9,0.3-2.6,1
					c-0.7,0.6-1.2,1.5-1.3,2.6H1163.8z"/>
				<path class="st1" d="M1189.2,87.6v14.2h-2.9v-1.7c-0.5,0.6-1.1,1-1.8,1.4c-0.8,0.3-1.5,0.5-2.4,0.5c-1.1,0-2.1-0.2-3-0.7
					s-1.6-1.2-2.1-2.1c-0.5-0.9-0.8-2-0.8-3.3v-8.3h2.9v7.9c0,1.3,0.3,2.2,0.9,2.9s1.5,1,2.6,1s2-0.3,2.6-1c0.6-0.7,1-1.7,1-2.9
					v-7.9L1189.2,87.6L1189.2,87.6z"/>
				<path class="st1" d="M1195.2,101.4c-0.9-0.4-1.6-0.9-2.1-1.7c-0.5-0.7-0.8-1.5-0.8-2.3h3c0.1,0.6,0.3,1.1,0.9,1.5s1.2,0.6,2,0.6
					c0.8,0,1.5-0.2,1.9-0.5c0.4-0.3,0.7-0.7,0.7-1.2c0-0.5-0.2-0.9-0.8-1.2c-0.5-0.3-1.3-0.5-2.4-0.8c-1.1-0.3-1.9-0.6-2.6-0.8
					c-0.7-0.3-1.2-0.7-1.7-1.3c-0.5-0.6-0.7-1.3-0.7-2.2c0-0.8,0.2-1.4,0.7-2.1c0.4-0.6,1.1-1.1,1.9-1.5c0.8-0.4,1.8-0.5,2.9-0.5
					c1.6,0,2.9,0.4,3.9,1.2c1,0.8,1.5,1.9,1.6,3.3h-2.9c-0.1-0.6-0.3-1.1-0.8-1.5s-1.1-0.6-1.9-0.6c-0.8,0-1.4,0.2-1.8,0.4
					s-0.6,0.7-0.6,1.2c0,0.4,0.1,0.7,0.4,0.9c0.3,0.3,0.6,0.5,1,0.6c0.4,0.2,1,0.3,1.8,0.6c1,0.3,1.9,0.6,2.5,0.8
					c0.7,0.3,1.2,0.7,1.7,1.2s0.7,1.3,0.8,2.2c0,0.8-0.2,1.5-0.7,2.2c-0.4,0.6-1.1,1.1-1.9,1.5s-1.8,0.5-2.9,0.5
					C1197.1,102,1196.1,101.8,1195.2,101.4z"/>
				<path class="st1" d="M1213.4,90.8c0.6-1.1,1.4-1.9,2.4-2.6s2.2-0.9,3.4-0.9c1.1,0,2.1,0.2,2.9,0.7c0.8,0.4,1.5,1,2,1.6v-2.1h3
					v14.2h-3v-2.1c-0.5,0.7-1.2,1.2-2,1.7c-0.9,0.4-1.8,0.7-2.9,0.7c-1.2,0-2.3-0.3-3.3-0.9c-1-0.6-1.8-1.5-2.4-2.6
					c-0.6-1.1-0.9-2.4-0.9-3.8S1212.8,91.9,1213.4,90.8z M1223.5,92.1c-0.4-0.7-0.9-1.3-1.6-1.6c-0.7-0.4-1.4-0.6-2.1-0.6
					s-1.5,0.2-2.1,0.6s-1.2,0.9-1.6,1.6c-0.4,0.7-0.6,1.6-0.6,2.5s0.2,1.8,0.6,2.6c0.4,0.7,0.9,1.3,1.6,1.7c0.7,0.4,1.4,0.6,2.1,0.6
					c0.8,0,1.5-0.2,2.1-0.6s1.2-0.9,1.6-1.7c0.4-0.7,0.6-1.6,0.6-2.6C1224.1,93.7,1223.9,92.8,1223.5,92.1z"/>
				<path class="st1" d="M1234.3,90v7.8c0,0.5,0.1,0.9,0.4,1.2s0.7,0.3,1.3,0.3h1.8v2.4h-2.3c-1.3,0-2.3-0.3-3-0.9
					c-0.7-0.6-1.1-1.6-1.1-3V90h-1.7v-2.4h1.7v-3.5h3v3.5h3.4V90C1237.8,90,1234.3,90,1234.3,90z"/>
				<path class="st1" d="M1240.3,90.6c-0.4-0.4-0.5-0.8-0.5-1.3s0.2-1,0.5-1.3c0.4-0.4,0.8-0.5,1.3-0.5c0.5,0,0.9,0.2,1.3,0.5
					c0.4,0.4,0.5,0.8,0.5,1.3s-0.2,1-0.5,1.3c-0.4,0.4-0.8,0.5-1.3,0.5C1241.1,91.1,1240.7,90.9,1240.3,90.6z M1240.3,101.4
					c-0.4-0.4-0.5-0.8-0.5-1.3c0-0.5,0.2-1,0.5-1.3c0.4-0.4,0.8-0.5,1.3-0.5c0.5,0,0.9,0.2,1.3,0.5c0.4,0.4,0.5,0.8,0.5,1.3
					s-0.2,1-0.5,1.3c-0.4,0.4-0.8,0.5-1.3,0.5C1241.1,101.9,1240.7,101.7,1240.3,101.4z"/>
			</g>
		</g>
		<g>
			<g>
				<path class="st0" d="M1282.2,99.6c0.6,0.8,0.9,1.6,0.9,2.6c0,0.8-0.2,1.6-0.6,2.2s-1,1.2-1.8,1.6c-0.8,0.4-1.8,0.6-2.8,0.6h-6.5
					V90.3h6.2c1.1,0,2.1,0.2,2.8,0.6c0.8,0.4,1.4,0.9,1.8,1.5s0.6,1.3,0.6,2.1c0,0.9-0.2,1.7-0.7,2.3c-0.5,0.6-1.2,1.1-2,1.4
					C1280.8,98.3,1281.6,98.8,1282.2,99.6z M1273.9,97.1h3.3c0.9,0,1.6-0.2,2-0.6c0.5-0.4,0.7-1,0.7-1.7c0-0.7-0.2-1.3-0.7-1.7
					c-0.5-0.4-1.2-0.6-2-0.6h-3.3V97.1z M1279.6,103.7c0.5-0.4,0.8-1,0.8-1.8c0-0.8-0.3-1.4-0.8-1.9c-0.5-0.5-1.3-0.7-2.2-0.7h-3.5
					v5.1h3.6C1278.4,104.3,1279.1,104.1,1279.6,103.7z"/>
				<path class="st0" d="M1288.2,105.9c-1-0.6-1.8-1.3-2.3-2.3s-0.8-2.2-0.8-3.5c0-1.3,0.3-2.5,0.9-3.5s1.4-1.8,2.3-2.3
					s2.1-0.8,3.3-0.8s2.3,0.3,3.3,0.8c1,0.5,1.8,1.3,2.3,2.3s0.9,2.2,0.9,3.5s-0.3,2.5-0.9,3.5s-1.4,1.8-2.4,2.3
					c-1,0.6-2.1,0.8-3.4,0.8C1290.3,106.7,1289.2,106.4,1288.2,105.9z M1293.4,103.9c0.6-0.3,1.1-0.8,1.5-1.5
					c0.4-0.7,0.6-1.4,0.6-2.4s-0.2-1.7-0.5-2.4s-0.8-1.1-1.4-1.5c-0.6-0.3-1.2-0.5-1.9-0.5s-1.3,0.2-1.9,0.5c-0.6,0.3-1,0.8-1.4,1.5
					c-0.3,0.6-0.5,1.4-0.5,2.4c0,1.4,0.3,2.4,1.1,3.2c0.7,0.8,1.6,1.1,2.7,1.1C1292.2,104.4,1292.8,104.2,1293.4,103.9z"/>
				<path class="st0" d="M1303.1,105.9c-1-0.6-1.8-1.3-2.3-2.3c-0.6-1-0.8-2.2-0.8-3.5c0-1.3,0.3-2.5,0.9-3.5s1.4-1.8,2.3-2.3
					s2.1-0.8,3.3-0.8s2.3,0.3,3.3,0.8c1,0.5,1.8,1.3,2.3,2.3s0.9,2.2,0.9,3.5s-0.3,2.5-0.9,3.5s-1.4,1.8-2.4,2.3
					c-1,0.6-2.1,0.8-3.4,0.8C1305.2,106.7,1304.1,106.4,1303.1,105.9z M1308.3,103.9c0.6-0.3,1.1-0.8,1.5-1.5
					c0.4-0.7,0.6-1.4,0.6-2.4s-0.2-1.7-0.5-2.4c-0.4-0.6-0.8-1.1-1.4-1.5c-0.6-0.3-1.2-0.5-1.9-0.5s-1.3,0.2-1.9,0.5
					c-0.6,0.3-1,0.8-1.4,1.5c-0.3,0.6-0.5,1.4-0.5,2.4c0,1.4,0.3,2.4,1.1,3.2c0.7,0.8,1.6,1.1,2.7,1.1
					C1307.1,104.4,1307.7,104.2,1308.3,103.9z"/>
				<path class="st0" d="M1318.8,95.8v7.1c0,0.5,0.1,0.8,0.3,1c0.2,0.2,0.6,0.3,1.2,0.3h1.6v2.2h-2.1c-1.2,0-2.1-0.3-2.8-0.8
					s-0.9-1.5-0.9-2.7v-7.1h-1.5v-2.2h1.5v-3.2h2.7v3.2h3.1v2.2H1318.8z"/>
				<path class="st0" d="M1333.6,94.1c0.8,0.4,1.4,1,1.8,1.9c0.4,0.8,0.7,1.8,0.7,3v7.6h-2.6v-7.2c0-1.2-0.3-2-0.9-2.6
					s-1.4-0.9-2.3-0.9s-1.8,0.3-2.4,0.9s-0.9,1.5-0.9,2.6v7.2h-2.7V89.3h2.7v5.9c0.4-0.5,1-1,1.7-1.3c0.7-0.3,1.4-0.4,2.3-0.4
					C1331.9,93.5,1332.8,93.7,1333.6,94.1z"/>
				<path class="st1" d="M1361.1,88.5h-9.7v4.3c0.4-0.4,1-0.8,1.7-1.1c0.7-0.3,1.6-0.4,2.4-0.4c1.6,0,2.8,0.3,3.9,1.1
					c1,0.7,1.8,1.6,2.2,2.7s0.7,2.3,0.7,3.6c0,2.4-0.7,4.3-2.1,5.8c-1.4,1.4-3.3,2.1-5.8,2.1c-1.7,0-3.1-0.3-4.3-0.8
					c-1.2-0.6-2.2-1.4-2.8-2.4c-0.7-1-1-2.2-1.1-3.5h5.2c0.1,0.6,0.4,1.2,0.9,1.6s1.1,0.6,2,0.6c1,0,1.7-0.3,2.2-0.9
					c0.5-0.6,0.7-1.4,0.7-2.5c0-1-0.2-1.8-0.8-2.3s-1.2-0.8-2.2-0.8c-0.7,0-1.3,0.2-1.7,0.5c-0.4,0.3-0.8,0.8-0.9,1.3h-5.1V83.8
					h14.5L1361.1,88.5L1361.1,88.5z"/>
				<path class="st1" d="M1367.7,85.1c1.4-1.2,3.2-1.8,5.6-1.8c1.6,0,2.9,0.3,4,0.8s1.9,1.3,2.5,2.2c0.6,0.9,0.8,2,0.8,3.1
					c0,1.4-0.3,2.5-1,3.3c-0.7,0.9-1.5,1.4-2.4,1.8v0.1c1.2,0.4,2.1,1.1,2.8,2c0.7,0.9,1,2.1,1,3.5c0,1.3-0.3,2.4-0.9,3.4
					s-1.4,1.8-2.6,2.3s-2.5,0.8-4,0.8c-2.5,0-4.5-0.6-5.9-1.8s-2.3-3.1-2.3-5.5h5.2c0,0.9,0.3,1.6,0.8,2.2c0.5,0.5,1.2,0.8,2.2,0.8
					c0.8,0,1.4-0.2,1.9-0.7c0.4-0.5,0.7-1.1,0.7-1.8c0-1-0.3-1.7-0.9-2.2c-0.6-0.4-1.6-0.7-3-0.7h-1v-4.3h1c1.1,0,1.9-0.2,2.6-0.5
					s1-1,1-1.9c0-0.7-0.2-1.3-0.6-1.7c-0.4-0.4-1-0.6-1.7-0.6c-0.8,0-1.4,0.2-1.8,0.7c-0.4,0.5-0.6,1.1-0.7,1.8h-5.2
					C1365.6,88,1366.3,86.3,1367.7,85.1z"/>
				<path class="st1" d="M1384.2,102.5v-4.3l9.8-14h5.9v13.7h2.6v4.6h-2.6v4h-5.3v-4L1384.2,102.5L1384.2,102.5z M1395.1,90
					l-5.2,7.9h5.2V90z"/>
			</g>
			<g>
				<path class="st1" d="M1282.2,67.7c-0.6-0.8-1.3-1.2-2.2-1.4c0.8-0.3,1.5-0.8,2-1.4c0.5-0.6,0.7-1.4,0.7-2.3
					c0-0.8-0.2-1.5-0.6-2.1c-0.4-0.6-1-1.1-1.8-1.5c-0.8-0.4-1.8-0.6-2.8-0.6h-6.2v16.2h6.5c1.1,0,2-0.2,2.8-0.6
					c0.8-0.4,1.4-0.9,1.9-1.6c0.4-0.7,0.6-1.4,0.6-2.2C1283.2,69.3,1282.8,68.4,1282.2,67.7z M1274,60.6h3.3c0.9,0,1.6,0.2,2,0.6
					c0.5,0.4,0.7,1,0.7,1.7s-0.2,1.3-0.7,1.7c-0.5,0.4-1.2,0.6-2,0.6h-3.3V60.6z M1279.7,71.8c-0.5,0.4-1.2,0.7-2.1,0.7h-3.6v-5.1
					h3.5c0.9,0,1.6,0.2,2.2,0.7c0.5,0.5,0.8,1.1,0.8,1.9C1280.5,70.7,1280.2,71.3,1279.7,71.8z"/>
				<path class="st1" d="M1297.4,64.7c-0.6-1-1.4-1.8-2.3-2.3s-2.1-0.8-3.3-0.8s-2.3,0.3-3.3,0.8c-1,0.5-1.8,1.3-2.4,2.3
					c-0.6,1-0.8,2.2-0.8,3.5c0,1.3,0.3,2.5,0.8,3.5c0.6,1,1.3,1.8,2.3,2.3c1,0.6,2.1,0.8,3.3,0.8c1.2,0,2.3-0.3,3.4-0.8
					c1-0.5,1.8-1.3,2.4-2.3c0.6-1,0.9-2.2,0.9-3.5C1298.2,66.9,1298,65.7,1297.4,64.7z M1295,70.5c-0.4,0.7-0.8,1.1-1.5,1.5
					c-0.6,0.3-1.2,0.5-1.9,0.5c-1.1,0-2-0.4-2.7-1.1c-0.7-0.8-1.1-1.8-1.1-3.2c0-0.9,0.2-1.7,0.5-2.4c0.3-0.6,0.8-1.1,1.4-1.5
					s1.2-0.5,1.9-0.5s1.3,0.2,1.9,0.5c0.6,0.3,1.1,0.8,1.4,1.5c0.4,0.6,0.5,1.4,0.5,2.4C1295.5,69.1,1295.3,69.9,1295,70.5z"/>
				<path class="st1" d="M1312.3,64.7c-0.6-1-1.4-1.8-2.4-2.3c-1-0.5-2.1-0.8-3.3-0.8s-2.3,0.3-3.3,0.8c-1,0.5-1.8,1.3-2.3,2.3
					s-0.8,2.2-0.8,3.5c0,1.3,0.3,2.5,0.8,3.5c0.6,1,1.3,1.8,2.3,2.3c1,0.6,2.1,0.8,3.3,0.8s2.3-0.3,3.4-0.8c1-0.5,1.8-1.3,2.4-2.3
					c0.6-1,0.9-2.2,0.9-3.5C1313.1,66.9,1312.8,65.7,1312.3,64.7z M1309.8,70.5c-0.4,0.7-0.8,1.1-1.5,1.5c-0.6,0.3-1.2,0.5-1.9,0.5
					c-1.1,0-2-0.4-2.7-1.1c-0.7-0.8-1.1-1.8-1.1-3.2c0-0.9,0.2-1.7,0.5-2.4c0.3-0.6,0.8-1.1,1.4-1.5c0.6-0.3,1.2-0.5,1.9-0.5
					c0.7,0,1.3,0.2,1.9,0.5c0.6,0.3,1.1,0.8,1.4,1.5c0.3,0.6,0.5,1.4,0.5,2.4C1310.4,69.1,1310.2,69.9,1309.8,70.5z"/>
				<path class="st1" d="M1322,63.9v-2.2h-3.1v-3.2h-2.7v3.2h-1.5v2.2h1.5V71c0,1.2,0.3,2.2,0.9,2.7c0.6,0.6,1.6,0.8,2.8,0.8h2.1
					v-2.2h-1.6c-0.5,0-0.9-0.1-1.2-0.3c-0.2-0.2-0.3-0.6-0.3-1v-7.1C1318.8,63.9,1322,63.9,1322,63.9z"/>
				<path class="st1" d="M1335.5,64.1c-0.4-0.8-1.1-1.5-1.8-1.9c-0.8-0.4-1.7-0.6-2.6-0.6c-0.8,0-1.6,0.2-2.3,0.5
					c-0.7,0.3-1.3,0.7-1.7,1.3v-5.9h-2.7v17.2h2.7v-7.2c0-1.2,0.3-2,0.9-2.7c0.6-0.6,1.4-0.9,2.4-0.9c1,0,1.8,0.3,2.3,0.9
					c0.6,0.6,0.8,1.5,0.8,2.7v7.2h2.6V67C1336.2,65.9,1335.9,64.9,1335.5,64.1z"/>
				<path class="st0" d="M1361.8,63.1c-0.5-1.1-1.2-2-2.2-2.7c-1-0.7-2.3-1.1-3.9-1.1c-0.9,0-1.7,0.2-2.4,0.5
					c-0.8,0.3-1.3,0.7-1.8,1.1v-4.3h9.7v-4.7h-14.5v13.5h5.1c0.1-0.6,0.4-1,0.9-1.4c0.5-0.3,1.1-0.5,1.8-0.5c0.9,0,1.7,0.3,2.2,0.8
					c0.5,0.5,0.7,1.3,0.7,2.3c0,1.1-0.2,1.9-0.7,2.5c-0.5,0.6-1.2,0.9-2.2,0.9c-0.8,0-1.5-0.2-1.9-0.6c-0.5-0.4-0.8-0.9-0.9-1.6
					h-5.2c0.1,1.3,0.4,2.5,1.1,3.5c0.7,1,1.6,1.8,2.8,2.4c1.2,0.6,2.7,0.8,4.3,0.8c2.5,0,4.4-0.7,5.8-2.1c1.4-1.4,2-3.3,2-5.8
					C1362.5,65.4,1362.3,64.2,1361.8,63.1z"/>
				<path class="st0" d="M1380.1,64.7c-0.7-0.9-1.6-1.5-2.8-1.9v-0.1c0.9-0.3,1.7-0.9,2.4-1.8c0.7-0.8,1-2,1-3.3
					c0-1.2-0.3-2.2-0.8-3.1c-0.6-0.9-1.4-1.7-2.5-2.2c-0.9-0.5-1.9-0.7-3.1-0.8c-0.3,0-0.5,0-0.8,0c-0.4,0-0.8,0-1.1,0.1
					c-1.8,0.2-3.3,0.7-4.5,1.8c-1.4,1.2-2.1,2.9-2.2,5.1h5.2c0.1-0.7,0.3-1.3,0.7-1.8c0.2-0.2,0.5-0.5,0.8-0.6
					c0.3-0.1,0.6-0.2,1-0.2s0.7,0.1,1,0.2c0.3,0.1,0.5,0.3,0.7,0.5c0.4,0.4,0.6,1,0.6,1.7c0,0.9-0.3,1.6-1,1.9
					c-0.1,0.1-0.2,0.1-0.4,0.2c-0.5,0.2-1.2,0.3-1.9,0.3c-0.1,0-0.2,0-0.2,0h-1V65h1.2c0.8,0,1.4,0.1,1.9,0.3
					c0.3,0.1,0.6,0.2,0.8,0.4c0.6,0.4,0.9,1.2,0.9,2.2c0,0.8-0.2,1.4-0.7,1.9c-0.3,0.3-0.7,0.5-1.1,0.6c-0.2,0.1-0.5,0.1-0.8,0.1
					c-0.4,0-0.8-0.1-1.2-0.2c-0.4-0.1-0.7-0.3-1-0.6c-0.5-0.5-0.7-1.2-0.8-2.2h-5.1c0.1,2.5,0.8,4.3,2.3,5.5c1.2,1,2.7,1.6,4.6,1.8
					c0.4,0.1,0.9,0.1,1.4,0.1c0.2,0,0.4,0,0.6,0c1.3-0.1,2.5-0.3,3.4-0.8c1.1-0.6,2-1.3,2.6-2.3c0.6-1,0.9-2.1,0.9-3.4
					C1381.1,66.8,1380.8,65.6,1380.1,64.7z"/>
				<path class="st0" d="M1399.1,61.8c-1.2-1.3-2.9-1.9-4.9-1.9c-1.1,0-2,0.2-2.8,0.6c-0.8,0.4-1.5,1-2,1.7c0-2.2,0.3-3.8,0.8-4.9
					c0.5-1,1.4-1.5,2.5-1.5c0.8,0,1.4,0.2,1.8,0.6c0.4,0.4,0.7,1,0.9,1.7h4.9c-0.1-1.2-0.4-2.2-1-3.3c-0.5-1-1.4-1.8-2.4-2.4
					c-1.1-0.6-2.4-0.9-3.9-0.9c-2.9,0-5,1-6.3,2.9c-1.3,1.9-2,4.8-2,8.8c0,3.7,0.6,6.6,1.9,8.6s3.4,3,6.6,3c1.6,0,3-0.3,4.2-1
					s2.1-1.5,2.7-2.7c0.6-1.1,0.9-2.5,0.9-4C1401,64.8,1400.3,63,1399.1,61.8z M1395.2,69.4c-0.5,0.5-1.2,0.8-2.2,0.8
					c-1,0-1.8-0.3-2.3-0.8c-0.5-0.5-0.8-1.3-0.8-2.3c0-1,0.3-1.7,0.9-2.2c0.6-0.5,1.3-0.8,2.2-0.8c1,0,1.7,0.3,2.2,0.8
					c0.5,0.6,0.8,1.3,0.8,2.3C1396,68.1,1395.7,68.8,1395.2,69.4z"/>
			</g>
		</g>
		<g>
			<path class="st0" d="M732.2,62.9c0,0,0.1,0.1,0.1,0.1h6.8c0.1,0,0.2,0,0.3,0.1c0.1,0.1,0.1,0.2,0.1,0.2v2.2c0,0.1,0,0.2-0.1,0.2
				c-0.1,0.1-0.2,0.1-0.3,0.1h-10.8c-0.1,0-0.2,0-0.3-0.1c-0.1-0.1-0.1-0.1-0.1-0.2v-2.3c0-0.2,0.1-0.3,0.2-0.4l1.2-1.5
				c0.8-1,1.6-2,2.4-3.1c0.8-1,1.4-2,2-2.8c1.2-1.8,1.8-3.4,1.8-4.6c0-0.8-0.2-1.4-0.5-1.8c-0.4-0.4-0.8-0.7-1.4-0.7
				s-1.1,0.2-1.4,0.6c-0.4,0.4-0.5,1-0.5,1.7v1.1c0,0.1,0,0.2-0.1,0.2c-0.1,0.1-0.2,0.1-0.3,0.1h-2.9c-0.1,0-0.2,0-0.3-0.1
				c-0.1-0.1-0.1-0.1-0.1-0.2v-1.2c0.1-1.5,0.6-2.8,1.7-3.7c1-0.9,2.4-1.4,4-1.4c1.6,0,2.9,0.5,3.9,1.5c1,1,1.5,2.3,1.5,3.9
				c0,1-0.2,1.9-0.5,2.9c-0.4,0.9-0.9,2-1.7,3c-0.5,0.8-1.1,1.6-1.8,2.5c-0.7,0.9-1.2,1.5-1.4,1.8c-0.6,0.8-1.1,1.3-1.4,1.7
				C732.2,62.8,732.2,62.9,732.2,62.9"/>
			<path class="st0" d="M742.9,64.6c-1.1-1-1.6-2.4-1.6-4.1v-9.7c0-1.7,0.5-3,1.6-4.1c1.1-1,2.4-1.5,4.2-1.5c1.8,0,3.2,0.5,4.2,1.5
				c1.1,1,1.6,2.4,1.6,4.1v9.7c0,1.7-0.5,3-1.6,4.1c-1.1,1-2.5,1.5-4.2,1.5C745.3,66.2,743.9,65.7,742.9,64.6 M748.7,62.6
				c0.4-0.5,0.6-1.1,0.6-1.8V50.7c0-0.8-0.2-1.4-0.6-1.8c-0.4-0.5-0.9-0.7-1.6-0.7c-0.7,0-1.2,0.2-1.6,0.7c-0.4,0.5-0.6,1.1-0.6,1.8
				v10.1c0,0.8,0.2,1.4,0.6,1.8c0.4,0.5,0.9,0.7,1.6,0.7C747.7,63.3,748.3,63,748.7,62.6"/>
			<path class="st0" d="M759.3,62.9c0,0,0.1,0.1,0.1,0.1h6.8c0.1,0,0.2,0,0.3,0.1c0.1,0.1,0.1,0.2,0.1,0.2v2.2c0,0.1,0,0.2-0.1,0.2
				c-0.1,0.1-0.2,0.1-0.3,0.1h-10.8c-0.1,0-0.2,0-0.3-0.1c-0.1-0.1-0.1-0.1-0.1-0.2v-2.3c0-0.2,0.1-0.3,0.2-0.4l1.2-1.5
				c0.8-1,1.6-2,2.4-3.1c0.8-1,1.4-2,2-2.8c1.2-1.8,1.8-3.4,1.8-4.6c0-0.8-0.2-1.4-0.5-1.8c-0.4-0.4-0.8-0.7-1.4-0.7
				s-1.1,0.2-1.4,0.6c-0.4,0.4-0.5,1-0.5,1.7v1.1c0,0.1,0,0.2-0.1,0.2s-0.2,0.1-0.3,0.1h-2.9c-0.1,0-0.2,0-0.3-0.1
				c-0.1-0.1-0.1-0.1-0.1-0.2v-1.2c0.1-1.5,0.6-2.8,1.7-3.7c1-0.9,2.4-1.4,4-1.4c1.6,0,2.9,0.5,3.9,1.5c1,1,1.5,2.3,1.5,3.9
				c0,1-0.2,1.9-0.5,2.9c-0.4,0.9-0.9,2-1.7,3c-0.5,0.8-1.1,1.6-1.8,2.5c-0.7,0.9-1.2,1.5-1.4,1.8c-0.6,0.8-1.1,1.3-1.4,1.7
				C759.3,62.8,759.3,62.9,759.3,62.9"/>
			<path class="st0" d="M778.7,59.6c0,0.9-0.1,1.8-0.2,2.4c-0.2,1.3-0.8,2.3-1.7,3c-0.9,0.7-2.1,1.1-3.6,1.1c-1.6,0-2.8-0.4-3.8-1.2
				c-1-0.8-1.5-1.8-1.7-3.2c0-0.4-0.1-1-0.1-1.8c0-0.2,0.1-0.3,0.4-0.3h2.8c0.2,0,0.4,0.1,0.4,0.3c0,0.7,0.1,1.1,0.1,1.5
				c0.1,0.6,0.3,1.1,0.6,1.4c0.3,0.3,0.8,0.5,1.3,0.5c0.5,0,0.9-0.1,1.2-0.4c0.3-0.3,0.5-0.7,0.6-1.3c0.1-0.6,0.2-1.3,0.2-2.3
				c0-1-0.1-1.8-0.2-2.5c-0.1-0.5-0.3-0.9-0.6-1.2c-0.3-0.3-0.7-0.4-1.2-0.4c-0.3,0-0.6,0.1-0.8,0.3c-0.1,0.1-0.2,0.1-0.3,0.1
				c0,0-0.1,0-0.2-0.1l-1.5-1.4c-0.1-0.1-0.1-0.2-0.1-0.3c0-0.1,0-0.2,0.1-0.2l3.9-4.9c0,0,0-0.1,0-0.1c0,0-0.1-0.1-0.1-0.1h-5.9
				c-0.1,0-0.2,0-0.3-0.1c-0.1-0.1-0.1-0.1-0.1-0.2V46c0-0.1,0-0.2,0.1-0.2c0.1-0.1,0.2-0.1,0.3-0.1h10c0.1,0,0.2,0,0.3,0.1
				c0.1,0.1,0.1,0.2,0.1,0.2v2.3c0,0.1-0.1,0.3-0.2,0.4l-3.5,4.5c-0.1,0.1-0.1,0.2,0.1,0.2c0.8,0.1,1.6,0.5,2.2,1.1
				c0.6,0.7,1,1.5,1.2,2.5C778.6,57.8,778.7,58.6,778.7,59.6"/>
			<path class="st0" d="M787.9,65.8c-0.1-0.1-0.1-0.1-0.1-0.2V46c0-0.1,0-0.2,0.1-0.2c0.1-0.1,0.2-0.1,0.3-0.1h2.8
				c0.1,0,0.2,0,0.3,0.1c0.1,0.1,0.1,0.2,0.1,0.2v19.5c0,0.1,0,0.2-0.1,0.2c-0.1,0.1-0.2,0.1-0.3,0.1h-2.8
				C788,65.9,788,65.8,787.9,65.8"/>
			<path class="st0" d="M805.4,48.4c-0.1,0.1-0.2,0.1-0.3,0.1h-6.6c-0.1,0-0.2,0-0.2,0.1v5.5c0,0.1,0.1,0.1,0.2,0.1h3.9
				c0.1,0,0.2,0,0.3,0.1c0.1,0.1,0.1,0.2,0.1,0.2v2.2c0,0.1,0,0.2-0.1,0.2c-0.1,0.1-0.2,0.1-0.3,0.1h-3.9c-0.1,0-0.2,0-0.2,0.1v8.2
				c0,0.1,0,0.2-0.1,0.2c-0.1,0.1-0.2,0.1-0.3,0.1h-2.8c-0.1,0-0.2,0-0.3-0.1c-0.1-0.1-0.1-0.1-0.1-0.2V46c0-0.1,0-0.2,0.1-0.2
				c0.1-0.1,0.2-0.1,0.3-0.1h10c0.1,0,0.2,0,0.3,0.1c0.1,0.1,0.1,0.1,0.1,0.2v2.2C805.5,48.3,805.4,48.4,805.4,48.4"/>
			<path class="st0" d="M813.5,65.6l-0.6-3c0-0.1-0.1-0.1-0.2-0.1h-4.5c-0.1,0-0.2,0-0.2,0.1l-0.6,3c0,0.2-0.2,0.3-0.4,0.3h-2.8
				c-0.3,0-0.4-0.1-0.3-0.4l4.6-19.5c0-0.2,0.2-0.3,0.4-0.3h3.3c0.2,0,0.4,0.1,0.4,0.3l4.6,19.5v0.1c0,0.2-0.1,0.3-0.3,0.3h-2.9
				C813.7,65.9,813.5,65.8,813.5,65.6 M808.8,59.7h3.4c0.1,0,0.2,0,0.2-0.1l-1.8-9.1c0-0.1-0.1-0.1-0.1-0.1c0,0-0.1,0-0.1,0.1
				l-1.8,9.1C808.6,59.7,808.6,59.7,808.8,59.7"/>
			<path class="st0" d="M833.4,65.6l-0.6-3c0-0.1-0.1-0.1-0.2-0.1h-4.5c-0.1,0-0.2,0-0.2,0.1l-0.6,3c0,0.2-0.2,0.3-0.4,0.3h-2.8
				c-0.3,0-0.4-0.1-0.3-0.4l4.6-19.5c0-0.2,0.2-0.3,0.4-0.3h3.3c0.2,0,0.4,0.1,0.4,0.3l4.6,19.5v0.1c0,0.2-0.1,0.3-0.3,0.3h-2.9
				C833.6,65.9,833.4,65.8,833.4,65.6 M828.7,59.7h3.4c0.1,0,0.2,0,0.2-0.1l-1.8-9.1c0-0.1-0.1-0.1-0.1-0.1c0,0-0.1,0-0.1,0.1
				l-1.8,9.1C828.5,59.7,828.5,59.7,828.7,59.7"/>
			<path class="st0" d="M848,45.7c0.1-0.1,0.2-0.1,0.3-0.1h2.8c0.1,0,0.2,0,0.3,0.1c0.1,0.1,0.1,0.1,0.1,0.2v19.5
				c0,0.1,0,0.2-0.1,0.2c-0.1,0.1-0.2,0.1-0.3,0.1h-3.2c-0.2,0-0.3-0.1-0.4-0.3l-4.6-12.3c0-0.1-0.1-0.1-0.1-0.1
				c-0.1,0-0.1,0-0.1,0.1l0,12.2c0,0.1,0,0.2-0.1,0.2c-0.1,0.1-0.2,0.1-0.3,0.1h-2.8c-0.1,0-0.2,0-0.3-0.1c-0.1-0.1-0.1-0.1-0.1-0.2
				V46c0-0.1,0-0.2,0.1-0.2c0.1-0.1,0.2-0.1,0.3-0.1h3.2c0.2,0,0.3,0.1,0.4,0.3l4.6,12.2c0,0.1,0.1,0.1,0.1,0.1c0.1,0,0.1,0,0.1-0.1
				V46C847.9,45.9,848,45.8,848,45.7"/>
			<path class="st0" d="M863.5,45.7c0.1-0.1,0.2-0.1,0.3-0.1h2.8c0.1,0,0.2,0,0.3,0.1c0.1,0.1,0.1,0.1,0.1,0.2v19.5
				c0,0.1,0,0.2-0.1,0.2c-0.1,0.1-0.2,0.1-0.3,0.1h-3.2c-0.2,0-0.3-0.1-0.4-0.3l-4.6-12.3c0-0.1-0.1-0.1-0.1-0.1
				c-0.1,0-0.1,0-0.1,0.1l0,12.2c0,0.1,0,0.2-0.1,0.2c-0.1,0.1-0.2,0.1-0.3,0.1H855c-0.1,0-0.2,0-0.3-0.1c-0.1-0.1-0.1-0.1-0.1-0.2
				V46c0-0.1,0-0.2,0.1-0.2c0.1-0.1,0.2-0.1,0.3-0.1h3.2c0.2,0,0.3,0.1,0.4,0.3l4.6,12.2c0,0.1,0.1,0.1,0.1,0.1c0.1,0,0.1,0,0.1-0.1
				V46C863.4,45.9,863.4,45.8,863.5,45.7"/>
			<path class="st0" d="M871.8,64.5c-1.1-1.1-1.6-2.5-1.6-4.2V46c0-0.1,0-0.2,0.1-0.2c0.1-0.1,0.2-0.1,0.3-0.1h2.8
				c0.1,0,0.2,0,0.3,0.1c0.1,0.1,0.1,0.1,0.1,0.2v14.6c0,0.8,0.2,1.4,0.6,1.9c0.4,0.5,1,0.7,1.6,0.7c0.7,0,1.2-0.2,1.6-0.7
				c0.4-0.5,0.6-1.1,0.6-1.9V46c0-0.1,0-0.2,0.1-0.2c0.1-0.1,0.2-0.1,0.3-0.1h2.8c0.1,0,0.2,0,0.3,0.1c0.1,0.1,0.1,0.1,0.1,0.2v14.3
				c0,1.8-0.5,3.2-1.6,4.2c-1.1,1.1-2.5,1.6-4.2,1.6C874.3,66.1,872.8,65.6,871.8,64.5"/>
			<path class="st0" d="M892.9,65.6l-0.6-3c0-0.1-0.1-0.1-0.2-0.1h-4.5c-0.1,0-0.2,0-0.2,0.1l-0.6,3c0,0.2-0.2,0.3-0.4,0.3h-2.8
				c-0.3,0-0.4-0.1-0.3-0.4l4.6-19.5c0-0.2,0.2-0.3,0.4-0.3h3.3c0.2,0,0.4,0.1,0.4,0.3l4.6,19.5v0.1c0,0.2-0.1,0.3-0.3,0.3h-2.9
				C893.1,65.9,892.9,65.8,892.9,65.6 M888.1,59.7h3.4c0.1,0,0.2,0,0.2-0.1l-1.8-9.1c0-0.1-0.1-0.1-0.1-0.1c0,0-0.1,0-0.1,0.1
				l-1.8,9.1C888,59.7,888,59.7,888.1,59.7"/>
			<path class="st0" d="M898.7,65.8c-0.1-0.1-0.1-0.1-0.1-0.2V46c0-0.1,0-0.2,0.1-0.2c0.1-0.1,0.2-0.1,0.3-0.1h2.8
				c0.1,0,0.2,0,0.3,0.1c0.1,0.1,0.1,0.2,0.1,0.2v16.9c0,0.1,0.1,0.1,0.2,0.1h6.7c0.1,0,0.2,0,0.3,0.1c0.1,0.1,0.1,0.1,0.1,0.2v2.2
				c0,0.1,0,0.2-0.1,0.2c-0.1,0.1-0.2,0.1-0.3,0.1h-10C898.9,65.9,898.8,65.8,898.7,65.8"/>
			<path class="st0" d="M729.6,99.4c-1.4-1.3-2.1-3-2.1-5.2V81.3c0-2.2,0.7-3.9,2.1-5.2c1.4-1.3,3.3-1.9,5.7-1.9
				c2.4,0,4.3,0.6,5.7,1.9c1.4,1.3,2.2,3,2.2,5.2v0.5c0,0.1,0,0.2-0.1,0.3c-0.1,0.1-0.2,0.2-0.4,0.2l-3.8,0.2
				c-0.3,0-0.5-0.2-0.5-0.5V81c0-0.9-0.3-1.6-0.8-2.2c-0.6-0.6-1.3-0.8-2.2-0.8c-0.9,0-1.6,0.3-2.2,0.8c-0.6,0.6-0.8,1.3-0.8,2.2
				v13.6c0,0.9,0.3,1.6,0.8,2.2c0.6,0.6,1.3,0.8,2.2,0.8c0.9,0,1.6-0.3,2.2-0.8c0.6-0.6,0.8-1.3,0.8-2.2v-0.9c0-0.1,0-0.2,0.1-0.3
				c0.1-0.1,0.2-0.1,0.4-0.1l3.8,0.2c0.1,0,0.3,0,0.4,0.1c0.1,0.1,0.1,0.2,0.1,0.3v0.5c0,2.1-0.7,3.9-2.2,5.2c-1.4,1.3-3.3,2-5.7,2
				C732.9,101.3,731,100.7,729.6,99.4"/>
			<path class="st0" d="M748.6,99.4c-1.4-1.3-2.2-3.1-2.2-5.2V81.4c0-2.2,0.7-3.9,2.2-5.2c1.4-1.3,3.4-2,5.7-2s4.3,0.7,5.8,2
				c1.5,1.3,2.2,3.1,2.2,5.2v12.7c0,2.2-0.7,3.9-2.2,5.2s-3.4,2-5.8,2S750,100.7,748.6,99.4 M756.6,96.7c0.6-0.6,0.9-1.4,0.9-2.3
				V81.2c0-1-0.3-1.7-0.9-2.3c-0.6-0.6-1.3-0.9-2.3-0.9s-1.7,0.3-2.3,0.9c-0.6,0.6-0.8,1.4-0.8,2.3v13.1c0,1,0.3,1.7,0.8,2.3
				c0.6,0.6,1.3,0.9,2.3,0.9S756,97.3,756.6,96.7"/>
			<path class="st0" d="M778.1,74.6c0.1-0.1,0.2-0.1,0.4-0.1h3.8c0.1,0,0.3,0,0.4,0.1c0.1,0.1,0.1,0.2,0.1,0.3v25.6
				c0,0.1,0,0.2-0.1,0.3c-0.1,0.1-0.2,0.1-0.4,0.1h-4.3c-0.3,0-0.5-0.1-0.5-0.4l-6.2-16.1c0-0.1-0.1-0.1-0.1-0.1
				c-0.1,0-0.1,0.1-0.1,0.1l0,16c0,0.1,0,0.2-0.1,0.3c-0.1,0.1-0.2,0.1-0.4,0.1h-3.8c-0.1,0-0.3,0-0.4-0.1c-0.1-0.1-0.1-0.2-0.1-0.3
				V75c0-0.1,0-0.2,0.1-0.3c0.1-0.1,0.2-0.1,0.4-0.1h4.3c0.3,0,0.5,0.1,0.5,0.4l6.2,16c0,0.1,0.1,0.1,0.1,0.1c0.1,0,0.1-0.1,0.1-0.1
				V75C778,74.8,778,74.7,778.1,74.6"/>
			<path class="st0" d="M792,100.6L786.1,75l0-0.2c0-0.2,0.2-0.3,0.5-0.3h4.2c0.3,0,0.5,0.1,0.5,0.4l3.4,18.2c0,0.1,0.1,0.1,0.1,0.1
				c0.1,0,0.1,0,0.1-0.1l3.4-18.2c0-0.3,0.2-0.4,0.5-0.4h4.1c0.4,0,0.5,0.2,0.4,0.5l-6,25.6c-0.1,0.3-0.2,0.4-0.5,0.4h-4.2
				C792.3,101,792.1,100.9,792,100.6"/>
			<path class="st0" d="M820.8,78.2c-0.1,0.1-0.2,0.1-0.4,0.1h-8.9c-0.1,0-0.2,0.1-0.2,0.2v7.2c0,0.1,0.1,0.2,0.2,0.2h5.3
				c0.1,0,0.3,0,0.4,0.1c0.1,0.1,0.1,0.2,0.1,0.3v2.9c0,0.1,0,0.2-0.1,0.3c-0.1,0.1-0.2,0.1-0.4,0.1h-5.3c-0.1,0-0.2,0.1-0.2,0.2
				v7.2c0,0.1,0.1,0.2,0.2,0.2h8.9c0.1,0,0.3,0,0.4,0.1c0.1,0.1,0.1,0.2,0.1,0.3v2.9c0,0.1,0,0.2-0.1,0.3c-0.1,0.1-0.2,0.1-0.4,0.1
				H807c-0.1,0-0.3,0-0.4-0.1c-0.1-0.1-0.1-0.2-0.1-0.3V75c0-0.1,0-0.2,0.1-0.3c0.1-0.1,0.2-0.1,0.4-0.1h13.5c0.1,0,0.3,0,0.4,0.1
				c0.1,0.1,0.1,0.2,0.1,0.3v2.9C820.9,78,820.9,78.1,820.8,78.2"/>
			<path class="st0" d="M836.4,74.6c0.1-0.1,0.2-0.1,0.4-0.1h3.8c0.1,0,0.3,0,0.4,0.1c0.1,0.1,0.1,0.2,0.1,0.3v25.6
				c0,0.1,0,0.2-0.1,0.3c-0.1,0.1-0.2,0.1-0.4,0.1h-4.3c-0.3,0-0.5-0.1-0.5-0.4l-6.2-16.1c0-0.1-0.1-0.1-0.1-0.1
				c-0.1,0-0.1,0.1-0.1,0.1l0,16c0,0.1,0,0.2-0.1,0.3c-0.1,0.1-0.2,0.1-0.4,0.1H825c-0.1,0-0.3,0-0.4-0.1c-0.1-0.1-0.1-0.2-0.1-0.3
				V75c0-0.1,0-0.2,0.1-0.3c0.1-0.1,0.2-0.1,0.4-0.1h4.3c0.3,0,0.5,0.1,0.5,0.4l6.2,16c0,0.1,0.1,0.1,0.1,0.1c0.1,0,0.1-0.1,0.1-0.1
				V75C836.3,74.8,836.3,74.7,836.4,74.6"/>
			<path class="st0" d="M860.7,74.6c0.1,0.1,0.1,0.2,0.1,0.3v2.9c0,0.1,0,0.2-0.1,0.3c-0.1,0.1-0.2,0.1-0.4,0.1h-5.3
				c-0.1,0-0.2,0.1-0.2,0.2v22.1c0,0.1,0,0.2-0.1,0.3c-0.1,0.1-0.2,0.1-0.4,0.1h-3.8c-0.1,0-0.3,0-0.4-0.1c-0.1-0.1-0.1-0.2-0.1-0.3
				V78.5c0-0.1-0.1-0.2-0.2-0.2h-5c-0.1,0-0.3,0-0.4-0.1c-0.1-0.1-0.1-0.2-0.1-0.3V75c0-0.1,0-0.2,0.1-0.3c0.1-0.1,0.2-0.1,0.4-0.1
				h15.4C860.5,74.5,860.6,74.5,860.7,74.6"/>
			<path class="st0" d="M864.3,100.9c-0.1-0.1-0.1-0.2-0.1-0.3V75c0-0.1,0-0.2,0.1-0.3c0.1-0.1,0.2-0.1,0.4-0.1h3.8
				c0.1,0,0.3,0,0.4,0.1c0.1,0.1,0.1,0.2,0.1,0.3v25.6c0,0.1,0,0.2-0.1,0.3c-0.1,0.1-0.2,0.1-0.4,0.1h-3.8
				C864.6,101,864.4,101,864.3,100.9"/>
			<path class="st0" d="M875.2,99.4c-1.4-1.3-2.2-3.1-2.2-5.2V81.4c0-2.2,0.7-3.9,2.2-5.2c1.4-1.3,3.4-2,5.7-2c2.4,0,4.3,0.7,5.8,2
				c1.5,1.3,2.2,3.1,2.2,5.2v12.7c0,2.2-0.7,3.9-2.2,5.2s-3.4,2-5.8,2C878.5,101.3,876.6,100.7,875.2,99.4 M883.2,96.7
				c0.6-0.6,0.9-1.4,0.9-2.3V81.2c0-1-0.3-1.7-0.9-2.3c-0.6-0.6-1.3-0.9-2.3-0.9c-0.9,0-1.7,0.3-2.3,0.9c-0.6,0.6-0.8,1.4-0.8,2.3
				v13.1c0,1,0.3,1.7,0.8,2.3c0.6,0.6,1.3,0.9,2.3,0.9C881.8,97.6,882.6,97.3,883.2,96.7"/>
			<path class="st0" d="M904.7,74.6c0.1-0.1,0.2-0.1,0.4-0.1h3.8c0.1,0,0.3,0,0.4,0.1c0.1,0.1,0.1,0.2,0.1,0.3v25.6
				c0,0.1,0,0.2-0.1,0.3c-0.1,0.1-0.2,0.1-0.4,0.1h-4.3c-0.3,0-0.5-0.1-0.5-0.4l-6.2-16.1c0-0.1-0.1-0.1-0.1-0.1
				c-0.1,0-0.1,0.1-0.1,0.1l0,16c0,0.1,0,0.2-0.1,0.3c-0.1,0.1-0.2,0.1-0.4,0.1h-3.8c-0.1,0-0.3,0-0.4-0.1c-0.1-0.1-0.1-0.2-0.1-0.3
				V75c0-0.1,0-0.2,0.1-0.3c0.1-0.1,0.2-0.1,0.4-0.1h4.3c0.3,0,0.5,0.1,0.5,0.4l6.2,16c0,0.1,0.1,0.1,0.1,0.1c0.1,0,0.1-0.1,0.1-0.1
				V75C904.6,74.8,904.6,74.7,904.7,74.6"/>
			<path class="st2" d="M675.7,66.7c-2,0-3.6,1.6-3.6,3.6c0,2,1.6,3.6,3.6,3.6c2,0,3.6-1.6,3.6-3.6
				C679.3,68.3,677.7,66.7,675.7,66.7"/>
			<path class="st2" d="M686.6,50.6c1.4,1.4,3.6,1.5,5.1,0.1c1.4-1.4,1.5-3.6,0.1-5.1c-1.4-1.4-3.6-1.5-5.1-0.1
				C685.3,46.8,685.2,49.1,686.6,50.6"/>
			<path class="st2" d="M694.8,59.3c1.4,1.4,3.6,1.5,5.1,0.1c1.4-1.4,1.5-3.6,0.1-5.1c-1.4-1.4-3.6-1.5-5.1-0.1
				C693.5,55.5,693.5,57.8,694.8,59.3"/>
			<path class="st2" d="M694.7,104.7c0.5-1.9-0.6-3.9-2.5-4.4c-1.9-0.5-3.9,0.6-4.4,2.5c-0.5,1.9,0.6,3.9,2.5,4.4
				C692.2,107.7,694.1,106.6,694.7,104.7"/>
			<path class="st2" d="M706.9,33.4c0,2,1.6,3.6,3.6,3.6c2,0,3.6-1.6,3.6-3.6c0-2-1.6-3.6-3.6-3.6C708.5,29.8,706.9,31.4,706.9,33.4
				"/>
			<path class="st2" d="M706.9,45.4c0,2,1.6,3.6,3.6,3.6c2,0,3.6-1.6,3.6-3.6c0-2-1.6-3.6-3.6-3.6C708.5,41.8,706.9,43.4,706.9,45.4
				"/>
			<path class="st2" d="M706.9,58.3c0,2,1.6,3.6,3.6,3.6c2,0,3.6-1.6,3.6-3.6c0-2-1.6-3.6-3.6-3.6C708.5,54.7,706.9,56.3,706.9,58.3
				"/>
			<path class="st2" d="M706.9,70.3c0,2,1.6,3.6,3.6,3.6c2,0,3.6-1.6,3.6-3.6c0-2-1.6-3.6-3.6-3.6C708.5,66.7,706.9,68.3,706.9,70.3
				"/>
			<path class="st2" d="M699.2,66.7c-2,0-3.6,1.6-3.6,3.6c0,2,1.6,3.6,3.6,3.6c2,0,3.6-1.6,3.6-3.6
				C702.8,68.3,701.2,66.7,699.2,66.7"/>
			<path class="st2" d="M687.2,66.7c-2,0-3.6,1.6-3.6,3.6c0,2,1.6,3.6,3.6,3.6c2,0,3.6-1.6,3.6-3.6
				C690.8,68.3,689.2,66.7,687.2,66.7"/>
			<path class="st2" d="M706.9,33.4c0,2,1.6,3.6,3.6,3.6c2,0,3.6-1.6,3.6-3.6c0-2-1.6-3.6-3.6-3.6C708.5,29.8,706.9,31.4,706.9,33.4
				"/>
			<path class="st2" d="M706.9,45.4c0,2,1.6,3.6,3.6,3.6c2,0,3.6-1.6,3.6-3.6c0-2-1.6-3.6-3.6-3.6C708.5,41.8,706.9,43.4,706.9,45.4
				"/>
			<path class="st3" d="M714.1,80.9h-1.5h-12.3h-19.8V81c-0.3,0-0.5-0.1-0.8-0.1c-3.5,0-6.4,3.3-6.4,7.3c0,4,2.9,7.3,6.4,7.3
				c0.3,0,0.5,0,0.8-0.1v0.1h19.8v17.6h0.1c0,0.3-0.1,0.5-0.1,0.8c0,3.5,3.1,6.4,6.9,6.4c3.8,0,6.9-2.9,6.9-6.4c0-0.3,0-0.5-0.1-0.8
				h0.1V80.9z"/>
			<path class="st2" d="M823.4,116.2l-0.2-0.8c0,0-0.1-0.1-0.1-0.1h-2.4c0,0-0.1,0-0.1,0.1l-0.2,0.8c0,0.1-0.1,0.2-0.2,0.2h-1.8
				c-0.1,0-0.2-0.1-0.2-0.2l2.4-7.6c0-0.1,0.1-0.2,0.2-0.2h2.4c0.1,0,0.2,0.1,0.2,0.2l2.4,7.6c0,0.2,0,0.2-0.2,0.2h-1.8
				C823.5,116.4,823.4,116.3,823.4,116.2 M821.1,113.6h1.4c0.1,0,0.1,0,0.1-0.1l-0.7-2.6c0-0.1-0.1-0.1-0.1,0l-0.7,2.6
				C821,113.6,821.1,113.6,821.1,113.6"/>
			<path class="st2" d="M826.4,116.1v-7.6c0-0.1,0.1-0.2,0.2-0.2h1.7c0.1,0,0.2,0.1,0.2,0.2v5.8c0,0.1,0,0.1,0.1,0.1h3.4
				c0.1,0,0.2,0.1,0.2,0.2v1.4c0,0.1-0.1,0.2-0.2,0.2h-5.5C826.4,116.4,826.4,116.3,826.4,116.1"/>
			<path class="st2" d="M832.9,116.1v-7.6c0-0.1,0.1-0.2,0.2-0.2h1.7c0.1,0,0.2,0.1,0.2,0.2v5.8c0,0.1,0,0.1,0.1,0.1h3.4
				c0.1,0,0.2,0.1,0.2,0.2v1.4c0,0.1-0.1,0.2-0.2,0.2h-5.5C833,116.4,832.9,116.3,832.9,116.1"/>
			<path class="st2" d="M841.8,116.1v-7.6c0-0.1,0.1-0.2,0.2-0.2h1.7c0.1,0,0.2,0.1,0.2,0.2v7.6c0,0.1-0.1,0.2-0.2,0.2H842
				C841.8,116.4,841.8,116.3,841.8,116.1"/>
			<path class="st2" d="M844.8,116.1v-7.6c0-0.1,0.1-0.2,0.2-0.2h1.6c0.1,0,0.2,0,0.3,0.1l2.2,3.8c0,0.1,0.1,0.1,0.1,0l0-3.7
				c0-0.1,0.1-0.2,0.2-0.2h1.7c0.1,0,0.2,0.1,0.2,0.2v7.6c0,0.1-0.1,0.2-0.2,0.2h-1.6c-0.1,0-0.2,0-0.3-0.1l-2.3-3.8
				c0-0.1-0.1-0.1-0.1,0l0,3.8c0,0.1-0.1,0.2-0.2,0.2H845C844.9,116.4,844.8,116.3,844.8,116.1"/>
			<path class="st2" d="M852.1,115.3c0-0.7,0.6-1.2,1.3-1.2c0.6,0,1.3,0.5,1.3,1.2c0,0.7-0.5,1.2-1.3,1.2
				C852.6,116.5,852.1,115.9,852.1,115.3"/>
			<path class="st2" d="M862.7,116.2l-0.2-0.8c0,0-0.1-0.1-0.1-0.1H860c0,0-0.1,0-0.1,0.1l-0.2,0.8c0,0.1-0.1,0.2-0.2,0.2h-1.8
				c-0.1,0-0.2-0.1-0.2-0.2l2.4-7.6c0-0.1,0.1-0.2,0.2-0.2h2.4c0.1,0,0.2,0.1,0.2,0.2l2.4,7.6c0,0.2,0,0.2-0.2,0.2H863
				C862.9,116.4,862.8,116.3,862.7,116.2 M860.5,113.6h1.4c0.1,0,0.1,0,0.1-0.1l-0.7-2.6c0-0.1-0.1-0.1-0.1,0l-0.7,2.6
				C860.4,113.6,860.5,113.6,860.5,113.6"/>
			<path class="st2" d="M865.7,116.1v-7.6c0-0.1,0.1-0.2,0.2-0.2h1.7c0.1,0,0.2,0.1,0.2,0.2v5.8c0,0.1,0,0.1,0.1,0.1h3.4
				c0.1,0,0.2,0.1,0.2,0.2v1.4c0,0.1-0.1,0.2-0.2,0.2H866C865.8,116.4,865.7,116.3,865.7,116.1"/>
			<path class="st2" d="M872.3,116.1v-7.6c0-0.1,0.1-0.2,0.2-0.2h1.7c0.1,0,0.2,0.1,0.2,0.2v5.8c0,0.1,0,0.1,0.1,0.1h3.4
				c0.1,0,0.2,0.1,0.2,0.2v1.4c0,0.1-0.1,0.2-0.2,0.2h-5.5C872.4,116.4,872.3,116.3,872.3,116.1"/>
			<path class="st2" d="M885.4,108.4h1.7c0.1,0,0.2,0.1,0.2,0.2v7.6c0,0.1-0.1,0.2-0.2,0.2h-1.7c-0.1,0-0.2-0.1-0.2-0.2v-2.8
				c0-0.1,0-0.1-0.1-0.1h-1.7c-0.1,0-0.1,0-0.1,0.1v2.8c0,0.1-0.1,0.2-0.2,0.2h-1.7c-0.1,0-0.2-0.1-0.2-0.2v-7.6
				c0-0.1,0.1-0.2,0.2-0.2h1.7c0.1,0,0.2,0.1,0.2,0.2v2.7c0,0.1,0,0.1,0.1,0.1h1.7c0.1,0,0.1,0,0.1-0.1v-2.7
				C885.2,108.5,885.3,108.4,885.4,108.4"/>
			<path class="st2" d="M893.7,110.2h-3.3c-0.1,0-0.1,0-0.1,0.1v1c0,0.1,0,0.1,0.1,0.1h2c0.1,0,0.2,0.1,0.2,0.2v1.4
				c0,0.1-0.1,0.2-0.2,0.2h-2c-0.1,0-0.1,0-0.1,0.1v1.1c0,0.1,0,0.1,0.1,0.1h3.3c0.1,0,0.2,0.1,0.2,0.2v1.4c0,0.1-0.1,0.2-0.2,0.2
				h-5.4c-0.1,0-0.2-0.1-0.2-0.2v-7.6c0-0.1,0.1-0.2,0.2-0.2h5.4c0.1,0,0.2,0.1,0.2,0.2v1.4C893.9,110.1,893.8,110.2,893.7,110.2"/>
			<path class="st2" d="M898.6,116.2l-1.2-2.8c0-0.1-0.1-0.1-0.1-0.1h-0.4c-0.1,0-0.1,0-0.1,0.1v2.8c0,0.1-0.1,0.2-0.2,0.2h-1.7
				c-0.1,0-0.2-0.1-0.2-0.2v-7.6c0-0.1,0.1-0.2,0.2-0.2h3.4c1.6,0,2.6,1,2.6,2.5c0,1-0.5,1.8-1.4,2.1c-0.1,0-0.1,0.1,0,0.1l1.4,2.9
				c0.1,0.2,0,0.3-0.2,0.3h-1.8C898.8,116.4,898.7,116.3,898.6,116.2 M896.8,110.3v1.3c0,0.1,0,0.1,0.1,0.1h1c0.5,0,0.8-0.3,0.8-0.7
				c0-0.4-0.3-0.7-0.8-0.7L896.8,110.3C896.8,110.2,896.8,110.2,896.8,110.3"/>
			<path class="st2" d="M907.2,110.2h-3.3c-0.1,0-0.1,0-0.1,0.1v1c0,0.1,0,0.1,0.1,0.1h2c0.1,0,0.2,0.1,0.2,0.2v1.4
				c0,0.1-0.1,0.2-0.2,0.2h-2c-0.1,0-0.1,0-0.1,0.1v1.1c0,0.1,0,0.1,0.1,0.1h3.3c0.1,0,0.2,0.1,0.2,0.2v1.4c0,0.1-0.1,0.2-0.2,0.2
				h-5.4c-0.1,0-0.2-0.1-0.2-0.2v-7.6c0-0.1,0.1-0.2,0.2-0.2h5.4c0.1,0,0.2,0.1,0.2,0.2v1.4C907.4,110.1,907.3,110.2,907.2,110.2"/>
			<path class="st2" d="M907.9,115.3c0-0.7,0.6-1.2,1.3-1.2c0.6,0,1.3,0.5,1.3,1.2c0,0.7-0.5,1.2-1.3,1.2
				C908.5,116.5,907.9,115.9,907.9,115.3"/>
		</g>
	</g>
</g>
</svg>
