<svg width="281" height="165" viewBox="0 0 281 165" fill="none" xmlns="http://www.w3.org/2000/svg">
<g clip-path="url(#clip0_1532_2835)">
<g clip-path="url(#clip1_1532_2835)">
<path d="M-0.0751953 78.9271C-0.0751953 75.3291 -0.0751953 71.731 -0.0751953 68.133C-0.0751953 66.9337 0.224641 66.0341 1.27407 65.4345C2.3235 64.6849 3.37292 63.9353 4.42235 63.1857C5.17194 62.586 5.77161 62.7359 5.77161 63.7854C5.77161 65.5844 5.77161 67.2335 5.77161 69.0325C5.77161 70.2319 6.22137 70.9814 7.12088 71.5811C11.0188 74.1297 14.9166 76.5284 18.8145 79.077C19.714 79.6767 20.6135 79.6767 21.513 79.077C25.5608 76.2286 29.6086 73.5301 33.6564 70.6816C34.5559 70.0819 35.0057 69.1824 35.0057 67.9831C35.0057 66.6338 35.0057 65.4345 35.0057 64.0852C35.0057 63.0358 35.4554 62.8859 36.205 63.4855C37.1045 64.2351 38.004 64.9847 38.9035 65.7343C39.6531 66.334 39.803 67.0836 39.803 67.9831C39.803 75.479 39.803 82.825 39.803 90.3209C39.803 91.5202 39.3533 91.97 38.1539 91.97C33.3566 91.97 28.7091 91.97 23.9117 91.97C22.8623 91.97 22.4125 91.5202 22.4125 90.4708C22.4125 89.4214 22.4125 88.372 22.4125 87.3225C22.4125 86.2731 21.9628 85.8233 20.9134 85.8233C16.4158 85.8233 16.4158 85.2237 16.4158 90.0211C16.4158 91.6702 16.2659 91.97 14.6168 91.97C10.4191 91.97 6.22137 91.97 1.87374 91.97C0.0747227 91.8201 -0.0751953 91.6702 -0.0751953 89.8711C-0.0751953 86.1232 -0.0751953 82.5251 -0.0751953 78.9271Z" fill="#EE463F"/>
<path d="M134.102 81.1759C134.102 78.0276 134.102 74.8794 134.102 71.7311C134.102 70.8316 134.401 70.6816 135.151 70.6816C139.049 70.6816 142.947 70.6816 146.845 70.6816C147.894 70.6816 148.194 70.9815 148.044 72.0309C148.044 72.3307 148.044 72.7805 148.044 73.0803C148.194 73.9798 147.744 74.1298 146.845 74.1298C144.296 74.1298 141.747 74.1298 139.049 74.1298C138.149 74.1298 137.7 74.2797 137.85 75.3291C137.999 76.3785 137.85 77.428 137.85 78.4774C137.85 79.227 137.999 79.3769 138.749 79.3769C141.148 79.3769 143.696 79.3769 146.095 79.3769C146.995 79.3769 147.444 79.5268 147.444 80.5762C147.444 82.9749 147.444 82.9749 145.046 82.9749C143.097 82.9749 140.998 82.9749 139.049 82.9749C138.149 82.9749 137.85 83.2748 137.85 84.1743C137.85 85.2237 137.85 86.1232 137.85 87.1726C137.85 88.0722 137.999 88.5219 139.049 88.372C141.747 88.372 144.296 88.372 146.995 88.372C148.044 88.372 148.344 88.6718 148.194 89.5713C148.194 89.7213 148.194 90.0211 148.194 90.171C148.494 91.5203 147.894 91.97 146.545 91.8201C142.797 91.6702 138.899 91.8201 135.151 91.8201C134.251 91.8201 133.952 91.5203 133.952 90.6208C134.102 87.4725 134.102 84.3242 134.102 81.1759Z" fill="#565656"/>
<path d="M100.369 76.8285C97.9706 76.0789 95.422 76.0789 93.0233 76.5286C90.7745 76.8285 90.7745 76.9784 90.7745 79.2271C90.7745 79.9767 90.9245 80.1267 91.6741 79.8268C93.623 79.3771 95.5719 79.2271 97.5209 79.3771C98.2704 79.527 99.17 79.6769 99.6197 80.4265C99.9196 80.8762 100.069 81.4759 99.9195 81.9257C99.6197 82.5253 99.17 82.0756 98.7202 82.0756C96.6214 81.9257 94.6724 81.7758 92.5736 82.5253C90.4747 83.2749 89.5752 84.6242 89.5752 86.873C89.5752 89.1217 90.6246 90.6209 92.7235 91.0707C94.6724 91.5204 96.4714 91.6704 98.4204 91.0707C99.6197 90.7708 100.519 90.471 101.868 91.2206C103.218 92.1201 104.117 91.3705 104.117 89.7214V85.8235C104.117 84.4743 104.117 82.9751 104.117 81.6258C103.967 79.0772 102.918 77.578 100.369 76.8285ZM99.3199 87.7725C97.9706 88.3722 96.6213 88.672 95.2721 88.5221C94.3726 88.3722 93.7729 88.0723 93.623 87.0229C93.4731 85.9735 94.2227 85.5237 95.1222 85.2239C95.8718 85.074 96.4714 85.074 96.7713 85.074C97.6708 85.074 98.2705 85.074 98.8701 85.2239C99.3199 85.2239 100.069 85.2239 100.069 85.9735C100.069 86.5731 100.219 87.3227 99.3199 87.7725Z" fill="#565656"/>
<path d="M215.207 76.6785C212.808 76.0788 210.41 76.0788 208.011 76.5286C205.912 76.8284 205.912 76.8284 205.912 79.0772C205.912 79.8268 206.062 80.1266 206.962 79.9767C208.911 79.527 210.71 79.377 212.659 79.6769C213.408 79.8268 214.158 79.9767 214.607 80.5764C215.057 81.0261 215.057 81.6258 214.907 82.2255C214.607 82.8252 214.158 82.5253 213.708 82.3754C211.459 82.2255 209.36 82.0756 207.261 82.9751C205.462 83.7247 204.713 85.0739 204.713 87.0229C204.713 89.1217 205.612 90.471 207.411 91.2206C209.51 91.9702 211.609 91.9702 213.708 91.3705C214.907 91.0707 215.657 90.9207 216.856 91.5204C218.206 92.4199 219.105 91.8203 219.105 90.1712C219.105 88.8219 219.105 87.3227 219.105 85.9734C219.105 84.6242 219.105 83.125 219.105 81.7757C219.105 78.9273 217.906 77.4281 215.207 76.6785ZM214.458 87.7725C213.408 88.2222 212.359 88.5221 210.86 88.5221C210.71 88.5221 210.26 88.5221 209.81 88.3721C209.061 88.2222 208.761 87.6225 208.611 86.873C208.611 86.1234 208.911 85.5237 209.66 85.3738C211.309 84.7741 212.958 85.0739 214.458 85.2239C214.907 85.2239 214.907 85.6736 214.907 86.1234C215.057 86.723 215.207 87.3227 214.458 87.7725Z" fill="#565656"/>
<path d="M175.479 76.6785C173.08 76.0788 170.681 76.0788 168.283 76.5286C166.034 76.8284 166.034 76.9784 166.034 79.2271C166.034 80.1266 166.334 80.1266 167.083 79.9767C169.032 79.527 170.981 79.377 172.93 79.6769C173.83 79.8268 174.579 79.9767 175.029 80.8762C175.329 81.326 175.329 81.7757 175.179 82.2255C174.879 82.6752 174.429 82.3754 173.979 82.3754C171.881 82.2255 169.782 82.0756 167.833 82.8252C165.734 83.5748 164.685 84.924 164.685 87.1728C164.685 89.4216 165.734 90.9207 167.983 91.5204C169.932 91.9702 171.881 92.1201 173.83 91.5204C175.029 91.0707 175.779 91.0707 176.978 91.6703C178.327 92.5698 179.227 91.9702 179.227 90.1712V81.9257C179.377 78.9273 178.177 77.4281 175.479 76.6785ZM174.579 87.7725C173.38 88.3721 172.031 88.5221 170.681 88.3721C169.782 88.2222 169.032 87.7725 169.032 86.873C169.032 85.8235 169.632 85.3738 170.531 85.2239C171.281 85.0739 171.881 85.0739 172.63 85.0739C173.08 85.0739 173.68 85.0739 174.129 85.2239C174.579 85.3738 175.329 85.0739 175.329 85.9734C175.479 86.723 175.629 87.4726 174.579 87.7725Z" fill="#565656"/>
<path d="M250.738 79.5272C249.389 76.6788 246.69 76.0791 243.842 76.0791C239.344 76.0791 236.946 77.7282 236.196 81.3262C235.746 82.9753 235.746 84.7744 236.196 86.4235C236.796 89.2719 238.595 91.0709 241.443 91.5207C244.891 92.1203 248.34 92.1203 250.438 88.9721C252.387 85.9737 252.387 82.6755 250.738 79.5272ZM247.44 86.2735C246.69 88.2225 244.592 89.122 242.493 88.3724C240.844 87.7727 240.094 86.2735 240.094 83.8748C240.094 80.5766 241.593 78.9275 244.592 79.2274C244.891 79.2274 245.341 79.3773 245.641 79.5272C247.59 80.4267 248.489 83.575 247.44 86.2735Z" fill="#565656"/>
<path d="M62.2909 85.3736C63.6402 85.3736 64.9894 85.3736 66.3387 85.3736H68.7374C71.8857 85.3736 71.8857 85.3736 71.7358 82.2253C71.5858 79.0771 70.2366 76.9782 67.538 76.5284C62.141 75.479 56.2942 77.1281 57.4935 85.6735V85.9733C57.9433 88.8217 59.7423 90.7707 62.4408 91.3704C64.9894 91.97 67.688 91.8201 70.2366 91.3704C71.8857 91.0705 70.8362 89.7213 70.9862 88.8217C71.1361 87.7723 70.2366 88.2221 69.7868 88.2221C67.688 88.5219 65.5891 88.6718 63.6402 88.2221C62.7407 88.0722 61.8411 87.6224 61.3914 86.7229C61.2415 85.9733 61.2415 85.3736 62.2909 85.3736ZM61.6912 81.026C62.2909 79.6767 63.6402 79.0771 65.1393 79.3769C66.3387 79.5268 67.3881 80.1265 67.688 81.4758C67.8379 82.2253 67.688 82.825 66.7884 82.6751C66.0389 82.6751 65.2893 82.6751 64.5397 82.6751H62.7407C61.2415 82.5252 61.0916 82.3753 61.6912 81.026Z" fill="#565656"/>
<path d="M110.115 78.0276C112.214 76.6784 114.313 75.9288 116.712 76.2286C119.41 76.5285 121.059 78.1776 121.059 81.1759C121.209 84.3242 121.059 87.4725 121.059 90.7707C121.059 91.5203 120.759 91.6702 120.01 91.6702C117.011 91.8201 117.011 91.8201 117.011 88.8218C117.011 86.573 117.011 84.3242 117.011 82.0754C117.011 79.9766 116.112 79.227 114.163 79.3769C112.814 79.5268 111.764 80.1265 110.715 80.8761C110.265 81.1759 110.415 81.7756 110.415 82.2254C110.415 84.9239 110.415 87.6224 110.415 90.171C110.415 91.2204 110.265 91.5203 109.066 91.5203C106.367 91.5203 106.367 91.5203 106.367 88.8218C106.367 85.0738 106.367 81.3258 106.367 77.5779C106.367 76.9782 105.918 76.0787 106.967 76.0787C108.016 76.0787 109.516 75.3291 109.665 77.2781C109.965 77.5779 109.965 77.7278 110.115 78.0276Z" fill="#565656"/>
<path d="M73.2339 84.0242C73.2339 81.7754 73.2339 79.5267 73.2339 77.2779C73.2339 76.5283 73.5337 76.2285 74.2833 76.2285C75.3327 76.3784 76.5321 75.7787 76.682 77.5777C76.8319 78.4772 77.4316 77.7276 77.7314 77.5777C79.6804 76.5283 81.6293 75.9286 83.8781 76.3784C86.2768 76.8281 87.626 78.0275 87.7759 80.4262C88.2257 83.8743 87.9259 87.4723 87.9259 90.9204C87.9259 91.5201 87.776 91.67 87.1763 91.67C86.4267 91.67 85.5272 91.67 84.7776 91.67C83.8781 91.82 83.8781 91.2203 83.8781 90.6206C83.8781 87.7722 83.8781 85.0736 83.8781 82.2252C83.8781 80.1263 83.1285 79.3767 81.0296 79.5267C78.6309 79.6766 77.2817 81.0258 77.2817 83.4245C77.2817 85.8232 77.2817 88.2219 77.2817 90.6206C77.2817 91.5201 76.9818 91.67 76.2323 91.82C73.3838 91.82 73.3838 91.82 73.3838 88.9715C73.2339 87.3224 73.2339 85.6733 73.2339 84.0242Z" fill="#565656"/>
<path d="M203.064 84.0245C203.064 86.2733 203.064 88.3721 203.064 90.6209C203.064 91.3705 202.914 91.8202 202.014 91.8202C200.965 91.6703 199.765 92.1201 199.615 90.471C199.615 89.7214 199.016 90.3211 198.716 90.471C197.067 91.3705 195.268 91.8202 193.319 91.8202C190.62 91.6703 188.671 90.1711 188.522 87.4726C188.372 84.0245 188.372 80.5764 188.372 77.2782C188.372 76.9783 188.372 76.5286 188.821 76.5286C189.871 76.5286 190.92 76.3787 192.12 76.5286C192.719 76.5286 192.419 77.2782 192.419 77.578C192.419 80.2765 192.419 82.9751 192.419 85.5237C192.419 88.2222 193.919 89.2716 196.467 88.3721C198.716 87.6225 199.166 86.8729 199.166 84.6242C199.166 82.2255 199.166 79.8268 199.166 77.4281C199.166 76.5286 199.466 76.3787 200.215 76.3787C203.064 76.3787 203.064 76.3787 203.064 79.2271C203.064 80.7263 203.064 82.3754 203.064 84.0245Z" fill="#565656"/>
<path d="M253.286 84.0242C253.286 81.7754 253.286 79.5267 253.286 77.2779C253.286 76.5283 253.586 76.2285 254.336 76.2285C255.385 76.3784 256.584 75.7787 256.884 77.5777C257.034 78.3273 257.484 77.7276 257.784 77.5777C259.733 76.5283 261.831 75.9286 263.93 76.3784C266.179 76.8281 267.528 78.0275 267.828 80.2762C268.278 83.8743 267.978 87.4723 267.978 91.0704C267.978 91.3702 267.978 91.67 267.528 91.67C266.479 91.67 265.43 91.82 264.23 91.67C263.63 91.67 263.93 90.9204 263.93 90.6206C263.93 87.9221 263.93 85.2235 263.93 82.525C263.93 80.1263 262.731 79.0769 260.332 79.6766C258.084 80.1263 257.184 81.3257 257.184 83.5745C257.184 85.9731 257.184 88.3718 257.184 90.7705C257.184 91.67 256.884 91.82 256.135 91.82C253.286 91.82 253.286 91.82 253.286 88.9715C253.286 87.3224 253.286 85.6733 253.286 84.0242Z" fill="#565656"/>
<path d="M53.7449 82.9749C53.7449 85.5235 53.7449 88.0722 53.7449 90.6208C53.7449 91.5203 53.595 91.6702 52.6955 91.8201C49.847 91.8201 49.847 91.8201 49.847 88.9717C49.847 84.4741 49.847 80.1265 49.847 75.6289C49.847 74.4296 49.5472 73.9798 48.3479 74.1298C47.1485 74.2797 45.9492 74.1298 44.7498 74.1298C44.0002 74.1298 43.7004 73.9798 43.7004 73.0803C43.7004 70.6816 43.5505 70.6816 46.0991 70.6816C50.2968 70.6816 54.4945 70.6816 58.6922 70.6816C59.7416 70.6816 60.0415 70.9815 60.0415 72.0309C59.8916 74.4296 60.3413 74.1298 57.9426 74.1298C57.0431 74.1298 55.9937 74.1298 55.0942 74.1298C54.1947 73.9798 53.7449 74.2797 53.7449 75.3291C53.8948 77.8777 53.7449 80.4263 53.7449 82.9749Z" fill="#565656"/>
<path d="M156.889 86.4235C157.488 86.1236 157.488 85.6739 157.638 85.2241C158.538 82.6755 159.587 80.1269 160.487 77.4284C160.787 76.5289 161.236 76.0791 162.286 76.0791C165.284 76.0791 165.284 76.0791 164.085 78.7776C162.436 82.6755 160.937 86.4235 159.287 90.3213C158.988 91.2208 158.388 91.6706 157.488 91.5207C154.94 91.5207 154.94 91.5207 154.19 89.2719C152.691 85.2241 151.042 81.1763 149.543 77.2784C149.093 76.3789 149.243 76.0791 150.292 76.0791C153.291 76.0791 153.291 76.0791 154.34 78.7776C155.09 81.4762 155.989 84.0248 156.889 86.4235Z" fill="#565656"/>
<path d="M123.607 81.3261C123.607 79.2273 123.607 76.9785 123.607 74.8796C123.607 74.4299 123.457 73.6803 124.357 73.8302C125.256 73.9801 126.605 73.2305 126.755 74.4299C127.055 76.2289 127.955 76.5287 129.454 76.2289C130.803 75.9291 130.953 76.6787 130.953 77.878C130.953 78.9274 130.953 79.8269 129.454 79.5271C127.955 79.2273 127.505 79.9769 127.655 81.3261C127.805 82.9752 127.655 84.6243 127.655 86.4233C127.655 88.0724 128.105 88.6721 129.904 88.6721C131.703 88.6721 130.653 90.0214 130.953 90.771C131.103 91.5206 130.803 91.9703 129.904 91.9703C129.154 91.9703 128.404 91.9703 127.655 91.9703C124.956 91.8204 123.757 90.621 123.757 87.9225C123.607 85.5238 123.607 83.425 123.607 81.3261Z" fill="#565656"/>
<path d="M226.301 91.6705C222.553 91.6705 221.504 90.4711 221.504 86.7232C221.504 82.8253 221.504 78.9274 221.504 74.8797C221.504 74.28 221.354 73.5304 222.254 73.6803C223.153 73.8302 224.502 72.9307 224.652 74.5798C224.802 76.2289 225.702 76.3788 227.051 76.2289C227.501 76.2289 228.4 75.9291 228.55 76.5288C228.85 77.2783 228.85 78.3278 228.55 79.0774C228.4 79.677 227.501 79.3772 227.051 79.3772C225.702 79.2273 225.402 79.677 225.402 81.0263C225.552 82.6754 225.402 84.4744 225.402 86.2734C225.402 88.0725 225.852 88.5222 227.651 88.6721C228.4 88.6721 228.7 88.822 228.7 89.5716C228.7 92.2702 229.15 91.6705 226.301 91.6705Z" fill="#565656"/>
<path d="M185.823 81.026C185.823 84.1743 185.823 87.3226 185.823 90.6208C185.823 91.5203 185.523 91.6702 184.774 91.6702C181.775 91.6702 181.775 91.6702 181.775 88.8217C181.775 83.2748 181.775 77.5779 181.775 72.0309C181.775 70.9815 182.075 70.6816 183.125 70.6816C185.823 70.6816 185.823 70.6816 185.823 73.3802C185.823 75.9288 185.823 78.4774 185.823 81.026Z" fill="#565656"/>
<path d="M230.498 84.0243C230.498 81.7755 230.498 79.6767 230.498 77.4279C230.498 76.6783 230.648 76.2285 231.547 76.2285C234.546 76.2285 234.546 76.0786 234.546 79.077C234.546 82.8249 234.546 86.7228 234.546 90.4708C234.546 91.5202 234.246 91.6701 233.346 91.6701C230.648 91.6701 230.648 91.6701 230.648 88.9716C230.498 87.3225 230.498 85.6734 230.498 84.0243Z" fill="#565656"/>
<path d="M232.448 73.8299C230.499 73.8299 229.899 72.9304 230.499 71.1314C230.649 70.8316 230.799 70.6816 231.099 70.6816C231.998 70.6816 233.048 70.6816 233.947 70.6816C234.397 70.6816 234.547 70.8316 234.547 71.2813C234.547 71.4312 234.547 71.5812 234.547 71.881C234.397 74.2797 234.697 73.8299 232.448 73.8299Z" fill="#565656"/>
<path d="M272.926 92.12V89.1216H271.876V88.522H274.725V89.1216H273.676V92.12H272.926Z" fill="#565656"/>
<path d="M275.175 92.12V88.522H276.224L276.824 90.9207L277.424 88.522H278.473V92.12H277.873V89.2716L277.124 92.12H276.374L275.625 89.2716V92.12H275.175Z" fill="#565656"/>
<path d="M11.6189 64.9849L19.4146 73.6801C19.5645 73.83 19.7145 73.83 19.7145 73.6801L33.5069 56.8893C33.6568 56.7394 33.357 56.4395 33.2071 56.5894L19.2647 66.634H19.1148L11.9187 64.685C11.6189 64.5351 11.469 64.8349 11.6189 64.9849Z" fill="#EE463F"/>
<path d="M14.6165 57.3391H26.7598C27.5094 57.3391 27.9592 56.4396 27.3595 56.1398L20.7631 51.6422C20.4633 51.4923 20.1634 51.4923 19.8636 51.6422L13.8669 55.5401C12.8174 56.1398 13.4171 57.3391 14.6165 57.3391Z" fill="#EE463F"/>
</g>
</g>
<defs>
<clipPath id="clip0_1532_2835">
<rect width="278.042" height="85.5513" fill="white" transform="translate(1.56982 39.4851)"/>
</clipPath>
<clipPath id="clip1_1532_2835">
<rect width="278.698" height="40.7777" fill="white" transform="translate(-0.0751953 51.3425)"/>
</clipPath>
</defs>
</svg>
