<svg width="125" height="29" viewBox="0 0 125 29" fill="none" xmlns="http://www.w3.org/2000/svg">
<path d="M79.6944 26.4243C78.4892 26.4243 77.5051 25.4403 77.5051 24.2351V5.07464C77.5051 3.8695 78.4892 2.8855 79.6944 2.8855C80.8995 2.8855 81.8835 3.8695 81.8835 5.07464V24.2351C81.8835 25.4403 80.8995 26.4243 79.6944 26.4243Z" fill="white"/>
<path d="M72.9713 10.1941C71.5008 10.1941 70.1189 10.5921 68.9248 11.2776C68.5489 10.6363 67.8412 10.1941 67.0341 10.1941C65.829 10.1941 64.845 11.1781 64.845 12.3832V24.2355C64.845 25.4407 65.829 26.4247 67.0341 26.4247C68.2392 26.4247 69.2232 25.4407 69.2232 24.2355V18.3094C69.2232 16.2529 70.9038 14.5724 72.9602 14.5724C74.1654 14.5724 75.1493 13.5884 75.1493 12.3832C75.1493 11.1781 74.1875 10.1941 72.9713 10.1941Z" fill="white"/>
<path d="M107.313 16.1313C107.235 16.1202 107.169 16.1202 107.092 16.1202C106.66 16.1202 106.318 15.7775 106.318 15.3463C106.318 14.9151 106.66 14.5724 107.092 14.5724C107.235 14.5724 107.368 14.6055 107.49 14.6829C108.518 15.3131 109.867 14.9814 110.497 13.9422C111.127 12.9029 110.795 11.5651 109.756 10.9349C108.949 10.4484 108.031 10.1941 107.092 10.1941C104.25 10.1941 101.939 12.5048 101.939 15.3463C101.939 18.1104 104.129 20.3658 106.87 20.4875C106.948 20.4985 107.014 20.4985 107.092 20.4985C107.523 20.4985 107.866 20.8413 107.866 21.2725C107.866 21.7037 107.523 22.0464 107.092 22.0464C106.749 22.0464 106.55 21.8363 106.484 21.7479C105.732 20.797 104.361 20.6312 103.41 21.372C102.459 22.1238 102.293 23.4948 103.034 24.4456C104.018 25.695 105.499 26.4136 107.092 26.4136C109.933 26.4136 112.244 24.1029 112.244 21.2614C112.233 18.5084 110.044 16.2419 107.313 16.1313Z" fill="white"/>
<path d="M119.364 16.1313C119.287 16.1202 119.22 16.1202 119.143 16.1202C118.712 16.1202 118.369 15.7775 118.369 15.3463C118.369 14.9151 118.712 14.5724 119.143 14.5724C119.287 14.5724 119.419 14.6055 119.541 14.6829C120.58 15.3131 121.918 14.9814 122.548 13.9422C123.179 12.9029 122.847 11.5651 121.808 10.9349C121 10.4484 120.083 10.1941 119.143 10.1941C116.302 10.1941 113.991 12.5048 113.991 15.3463C113.991 18.1104 116.18 20.3658 118.922 20.4875C118.999 20.4985 119.066 20.4985 119.143 20.4985C119.574 20.4985 119.917 20.8413 119.917 21.2725C119.917 21.7037 119.574 22.0464 119.143 22.0464C118.8 22.0464 118.601 21.8363 118.535 21.7479C117.783 20.797 116.412 20.6312 115.461 21.383C114.51 22.1348 114.345 23.5058 115.096 24.4567C116.08 25.706 117.562 26.4247 119.154 26.4247C121.995 26.4247 124.306 24.1139 124.306 21.2725C124.295 18.5084 122.106 16.2419 119.364 16.1313Z" fill="white"/>
<path d="M92.3311 26.4247C87.8533 26.4247 84.2158 22.7872 84.2158 18.3094C84.2158 13.8316 87.8533 10.1941 92.3311 10.1941C95.1946 10.1941 97.7818 11.6535 99.2744 14.0969C99.584 14.6055 99.6724 15.2136 99.5176 15.7775C99.3739 16.3524 98.9981 16.8389 98.4784 17.1264L93.5252 19.9568C92.4749 20.5538 91.137 20.1889 90.54 19.1386C89.9429 18.0883 90.3078 16.7504 91.3581 16.1534L93.702 14.8156C93.2708 14.6498 92.8175 14.5613 92.3311 14.5613C90.2746 14.5613 88.5941 16.2419 88.5941 18.2983C88.5941 20.3548 90.2746 22.0353 92.3311 22.0353C93.492 22.0353 94.5755 21.5046 95.2831 20.587C96.0239 19.6361 97.406 19.4592 98.3568 20.2C99.3077 20.9408 99.4845 22.3228 98.7438 23.2736C97.1959 25.2748 94.863 26.4247 92.3311 26.4247Z" fill="white"/>
<path d="M59.7488 26.4025H54.3644C50.539 26.4025 47.4321 23.2957 47.4321 19.4702V12.3942C47.4321 11.1891 48.4161 10.2051 49.6212 10.2051C50.8264 10.2051 51.8104 11.1891 51.8104 12.3942V19.4702C51.8104 20.8744 52.9603 22.0242 54.3644 22.0242H57.5597V12.3942C57.5597 11.1891 58.5437 10.2051 59.7488 10.2051C60.9539 10.2051 61.9379 11.1891 61.9379 12.3942V24.2134C61.9379 25.4185 60.9539 26.4025 59.7488 26.4025Z" fill="white"/>
<path d="M3.05154 6.85488L6.85496 3.05153C8.82297 1.08351 11.4322 0 14.2183 0C16.3632 0 18.4086 0.652319 20.1445 1.84639C19.6138 2.21125 19.1163 2.62033 18.6519 3.08469L16.2858 5.45073C15.6225 5.17433 14.9259 5.04165 14.2183 5.04165C12.8474 5.04165 11.4654 5.5613 10.4261 6.61164L6.62269 10.415C4.53305 12.5046 4.53305 15.921 6.62269 18.0106L10.4261 21.814C12.0182 23.4061 14.351 23.782 16.308 22.9638L18.5524 25.2083C19.05 25.7058 19.6027 26.1591 20.1777 26.535C18.3976 27.7844 16.308 28.4035 14.2183 28.4035C11.5538 28.4035 8.88931 27.3863 6.85496 25.363L3.05154 21.5597C1.08352 19.5917 0 16.9824 0 14.1962C0 11.4322 1.08352 8.81183 3.05154 6.85488Z" fill="#FFBE1D"/>
<path d="M37.0601 6.85488L33.2568 3.05153C31.2888 1.08351 28.6795 0 25.8933 0C23.7484 0 21.703 0.652319 19.9672 1.84639C20.4979 2.21125 20.9954 2.62033 21.4598 3.08469L23.8258 5.45073C24.4892 5.17433 25.1857 5.04165 25.8933 5.04165C27.2643 5.04165 28.6463 5.5613 29.6966 6.61164L33.5 10.415C35.5897 12.5046 35.5897 15.921 33.5 18.0106L29.6966 21.814C28.1045 23.4061 25.7717 23.782 23.8148 22.9638L21.5703 25.2083C21.0728 25.7058 20.52 26.1591 19.9451 26.535C21.7251 27.7844 23.8148 28.4035 25.9044 28.4035C28.569 28.4035 31.2336 27.3863 33.2679 25.363L37.0712 21.5597C39.0392 19.5917 40.1227 16.9824 40.1227 14.1962C40.1006 11.4322 39.0281 8.81183 37.0601 6.85488Z" fill="#0087E2"/>
<path d="M20.101 19.813L18.2989 18.0108C16.2092 15.9212 16.2092 12.5048 18.2989 10.4152L20.1121 8.60193L18.0777 6.56758C17.5359 6.02582 16.9058 5.61674 16.2424 5.34033L14.7388 6.84398C10.6811 10.9016 10.6811 17.5022 14.7388 21.5599L16.2535 23.0746C16.9058 22.7982 17.5139 22.4001 18.0446 21.8694L20.101 19.813Z" fill="#0E6CA0"/>
<path d="M20.0003 19.813L21.8024 18.0108C23.892 15.9212 23.892 12.5048 21.8024 10.4152L19.9893 8.60193L22.0236 6.56758C22.5653 6.02582 23.1956 5.61674 23.8589 5.34033L25.3626 6.84398C29.4202 10.9016 29.4202 17.5022 25.3626 21.5599L23.8479 23.0746C23.1956 22.7982 22.5875 22.4001 22.0568 21.8694L20.0003 19.813Z" fill="#00B4E5"/>
<path d="M16.1755 5.40665C16.8389 5.672 17.4691 6.07003 17.9998 6.60073L20.0452 8.64614L22.0906 6.60073C22.6213 6.07003 23.2405 5.672 23.9149 5.40665L21.5489 3.04062C21.0734 2.5652 20.5649 2.15612 20.0342 1.79126C19.5035 2.15612 18.9949 2.57625 18.5195 3.04062L16.1755 5.40665Z" fill="white"/>
<path d="M23.9254 23.008C23.251 22.7427 22.6318 22.3336 22.1011 21.814L20.0557 19.7686L18.0103 21.814C17.4686 22.3557 16.8494 22.7537 16.186 23.008L18.5521 25.3741C19.0165 25.8384 19.525 26.2586 20.0668 26.6234C20.5975 26.2586 21.1061 25.8495 21.5815 25.3741L23.9254 23.008Z" fill="white"/>
</svg>
