<svg width="139" height="41" viewBox="0 0 139 41" fill="none" xmlns="http://www.w3.org/2000/svg">
<path d="M137.722 35.7147C137.722 37.8338 135.97 39.5503 133.803 39.5503H5.5312C3.36487 39.5503 1.60645 37.8338 1.60645 35.7147V5.12721C1.60645 3.00913 3.36487 1.28662 5.5312 1.28662H133.802C135.97 1.28662 137.721 3.00913 137.721 5.12721L137.722 35.7147Z" fill="black"/>
<path d="M133.39 1.33284C135.751 1.33284 137.671 3.20549 137.671 5.50684V35.33C137.671 37.6314 135.751 39.504 133.39 39.504H5.94075C3.58039 39.504 1.65972 37.6314 1.65972 35.33V5.50684C1.65972 3.20549 3.58039 1.33284 5.94075 1.33284H133.39ZM133.39 0.536313H5.94075C3.13814 0.536313 0.842773 2.77429 0.842773 5.50684V35.33C0.842773 38.0626 3.13814 40.3005 5.94075 40.3005H133.39C136.193 40.3005 138.488 38.0626 138.488 35.33V5.50684C138.488 2.77429 136.193 0.536313 133.39 0.536313Z" fill="#A6A6A6"/>
<path d="M31.5616 20.2038C31.532 16.9998 34.2523 15.4411 34.3767 15.3685C32.836 13.1785 30.4482 12.8793 29.609 12.8554C27.6035 12.6496 25.6581 14.0255 24.6365 14.0255C23.5944 14.0255 22.0212 12.8753 20.3256 12.9091C18.1437 12.9419 16.1024 14.1736 14.9829 16.0862C12.6725 19.9861 14.3956 25.7171 16.6092 28.8694C17.7165 30.4133 19.0103 32.1371 20.7039 32.0764C22.3607 32.0098 22.9796 31.0465 24.979 31.0465C26.9601 31.0465 27.5413 32.0764 29.2685 32.0377C31.0467 32.0098 32.1662 30.4869 33.2347 28.9291C34.5143 27.1596 35.0282 25.4169 35.0486 25.3274C35.0068 25.3135 31.5952 24.0441 31.5616 20.2038Z" fill="white"/>
<path d="M28.2988 10.7817C29.19 9.69514 29.7997 8.2169 29.6304 6.7168C28.3406 6.77247 26.7276 7.58664 25.7988 8.64934C24.977 9.58579 24.2429 11.1207 24.4325 12.5641C25.8814 12.6695 27.369 11.8514 28.2988 10.7817Z" fill="white"/>
<path d="M55.5401 31.8546H53.2246L51.9562 27.9686H47.5475L46.3393 31.8546H44.085L48.4529 18.625H51.1508L55.5401 31.8546ZM51.5739 26.3383L50.4268 22.8837C50.3055 22.5308 50.0781 21.6998 49.7427 20.3915H49.7019C49.5683 20.9542 49.3532 21.7853 49.0575 22.8837L47.9309 26.3383H51.5739Z" fill="white"/>
<path d="M66.7736 26.9676C66.7736 28.59 66.324 29.8724 65.4247 30.8138C64.6192 31.6519 63.619 32.0704 62.4251 32.0704C61.1363 32.0704 60.2105 31.6191 59.6467 30.7164H59.6059V35.7416H57.4321V25.4556C57.4321 24.4357 57.4046 23.3889 57.3516 22.3152H59.2633L59.3846 23.8273H59.4254C60.1504 22.688 61.2505 22.1194 62.7269 22.1194C63.8811 22.1194 64.8446 22.5637 65.6154 23.4535C66.3882 24.3442 66.7736 25.5152 66.7736 26.9676ZM64.5591 27.0452C64.5591 26.1167 64.345 25.3512 63.9147 24.7488C63.4447 24.1205 62.8135 23.8064 62.0223 23.8064C61.486 23.8064 60.9987 23.9813 60.5633 24.3263C60.1269 24.6742 59.8414 25.1285 59.7078 25.6912C59.6406 25.9537 59.6069 26.1684 59.6069 26.3374V27.9279C59.6069 28.6218 59.8251 29.2074 60.2615 29.6855C60.6979 30.1637 61.2648 30.4023 61.9622 30.4023C62.7809 30.4023 63.4182 30.0941 63.8739 29.4797C64.3307 28.8644 64.5591 28.0532 64.5591 27.0452Z" fill="white"/>
<path d="M78.0265 26.9676C78.0265 28.59 77.5769 29.8724 76.6766 30.8138C75.8721 31.6519 74.8719 32.0704 73.678 32.0704C72.3892 32.0704 71.4634 31.6191 70.9006 30.7164H70.8598V35.7416H68.686V25.4556C68.686 24.4357 68.6585 23.3889 68.6055 22.3152H70.5172L70.6385 23.8273H70.6793C71.4032 22.688 72.5034 22.1194 73.9808 22.1194C75.1339 22.1194 76.0975 22.5637 76.8703 23.4535C77.6401 24.3442 78.0265 25.5152 78.0265 26.9676ZM75.812 27.0452C75.812 26.1167 75.5968 25.3512 75.1666 24.7488C74.6965 24.1205 74.0674 23.8064 73.2752 23.8064C72.7379 23.8064 72.2515 23.9813 71.8152 24.3263C71.3788 24.6742 71.0943 25.1285 70.9607 25.6912C70.8945 25.9537 70.8598 26.1684 70.8598 26.3374V27.9279C70.8598 28.6218 71.078 29.2074 71.5123 29.6855C71.9487 30.1627 72.5156 30.4023 73.2151 30.4023C74.0338 30.4023 74.671 30.0941 75.1268 29.4797C75.5836 28.8644 75.812 28.0532 75.812 27.0452Z" fill="white"/>
<path d="M90.6082 28.1446C90.6082 29.2699 90.2075 30.1855 89.4031 30.8923C88.5191 31.6647 87.2884 32.0504 85.707 32.0504C84.247 32.0504 83.0765 31.776 82.1904 31.2263L82.6941 29.4598C83.6485 30.0224 84.6956 30.3048 85.8365 30.3048C86.6552 30.3048 87.2925 30.1238 87.7503 29.764C88.206 29.4041 88.4334 28.921 88.4334 28.3185C88.4334 27.7817 88.2458 27.3294 87.8696 26.9626C87.4954 26.5957 86.8704 26.2548 85.9976 25.9396C83.6219 25.0758 82.4351 23.8103 82.4351 22.1461C82.4351 21.0586 82.8511 20.1669 83.6841 19.473C84.5141 18.7781 85.6214 18.4312 87.006 18.4312C88.2407 18.4312 89.2664 18.6409 90.0852 19.0594L89.5417 20.7872C88.777 20.3816 87.9124 20.1788 86.9448 20.1788C86.1801 20.1788 85.5826 20.3627 85.1544 20.7285C84.7924 21.0556 84.6109 21.4542 84.6109 21.9264C84.6109 22.4493 84.8179 22.8818 85.2339 23.2217C85.5959 23.5359 86.2535 23.8759 87.2079 24.2427C88.3753 24.701 89.2328 25.2368 89.7844 25.8512C90.3339 26.4635 90.6082 27.23 90.6082 28.1446Z" fill="white"/>
<path d="M97.7944 23.9057H95.3984V28.5372C95.3984 29.7153 95.8205 30.3038 96.6668 30.3038C97.0552 30.3038 97.3774 30.271 97.6323 30.2054L97.6925 31.8148C97.2643 31.9709 96.7004 32.0494 96.002 32.0494C95.1435 32.0494 94.4726 31.7939 93.9883 31.284C93.506 30.773 93.2634 29.9161 93.2634 28.7122V23.9037H91.8359V22.3132H93.2634V20.5665L95.3984 19.9382V22.3132H97.7944V23.9057Z" fill="white"/>
<path d="M108.606 27.0061C108.606 28.4725 108.175 29.6763 107.317 30.6177C106.417 31.587 105.222 32.0701 103.732 32.0701C102.296 32.0701 101.153 31.6059 100.301 30.6774C99.4486 29.7489 99.0225 28.5768 99.0225 27.1642C99.0225 25.686 99.4609 24.4752 100.341 23.5337C101.219 22.5913 102.403 22.1201 103.893 22.1201C105.329 22.1201 106.484 22.5844 107.356 23.5139C108.19 24.4155 108.606 25.5796 108.606 27.0061ZM106.35 27.0747C106.35 26.195 106.158 25.4404 105.767 24.8112C105.311 24.0497 104.66 23.6699 103.816 23.6699C102.942 23.6699 102.278 24.0507 101.822 24.8112C101.432 25.4414 101.239 26.2079 101.239 27.1145C101.239 27.9943 101.432 28.7488 101.822 29.3771C102.292 30.1386 102.949 30.5183 103.796 30.5183C104.626 30.5183 105.278 30.1306 105.748 29.3572C106.148 28.716 106.35 27.9535 106.35 27.0747Z" fill="white"/>
<path d="M115.671 24.1792C115.456 24.1404 115.227 24.1205 114.986 24.1205C114.221 24.1205 113.63 24.4019 113.214 24.9655C112.852 25.4626 112.67 26.0908 112.67 26.8493V31.8547H110.498L110.518 25.3194C110.518 24.2199 110.491 23.2189 110.437 22.3162H112.33L112.409 24.1414H112.47C112.699 23.5141 113.061 23.0091 113.556 22.6304C114.041 22.2894 114.564 22.1194 115.128 22.1194C115.329 22.1194 115.51 22.1333 115.671 22.1582V24.1792Z" fill="white"/>
<path d="M125.392 26.6334C125.392 27.0132 125.367 27.3333 125.313 27.5947H118.792C118.817 28.5372 119.132 29.2579 119.738 29.7549C120.287 30.1993 120.998 30.422 121.871 30.422C122.836 30.422 123.717 30.2719 124.509 29.9707L124.85 31.4419C123.924 31.8356 122.831 32.0314 121.57 32.0314C120.053 32.0314 118.862 31.596 117.995 30.7262C117.131 29.8563 116.697 28.6883 116.697 27.2229C116.697 25.7845 117.1 24.5866 117.907 23.6312C118.751 22.6113 119.892 22.1013 121.327 22.1013C122.737 22.1013 123.805 22.6113 124.53 23.6312C125.104 24.4414 125.392 25.4435 125.392 26.6334ZM123.32 26.0837C123.334 25.4554 123.192 24.9126 122.897 24.4544C122.521 23.8649 121.943 23.5706 121.165 23.5706C120.454 23.5706 119.876 23.8579 119.435 24.4345C119.073 24.8928 118.858 25.4425 118.792 26.0827H123.32V26.0837Z" fill="white"/>
<path d="M50.8543 10.4862C50.8543 11.6562 50.4944 12.537 49.7756 13.1285C49.1098 13.6743 48.1636 13.9476 46.938 13.9476C46.3304 13.9476 45.8104 13.9218 45.375 13.8701V7.47699C45.9429 7.38753 46.5547 7.3418 47.2154 7.3418C48.3828 7.3418 49.2627 7.58933 49.8561 8.08439C50.5209 8.64408 50.8543 9.44433 50.8543 10.4862ZM49.7277 10.515C49.7277 9.75648 49.5217 9.17493 49.1098 8.76933C48.6979 8.36473 48.0963 8.16193 47.3041 8.16193C46.9676 8.16193 46.6811 8.1838 46.4435 8.22953V13.0897C46.5751 13.1096 46.8157 13.1185 47.1654 13.1185C47.9831 13.1185 48.6143 12.8969 49.0588 12.4535C49.5033 12.0101 49.7277 11.3639 49.7277 10.515Z" fill="white"/>
<path d="M56.8295 11.5079C56.8295 12.2287 56.6185 12.8191 56.1964 13.2824C55.7539 13.7586 55.1676 13.9962 54.4355 13.9962C53.73 13.9962 53.1682 13.7685 52.7491 13.3112C52.3311 12.8549 52.1221 12.2794 52.1221 11.5855C52.1221 10.8598 52.3372 10.2643 52.7695 9.80204C53.2018 9.33978 53.783 9.10815 54.5151 9.10815C55.2206 9.10815 55.7875 9.3358 56.2168 9.7921C56.6246 10.2355 56.8295 10.8081 56.8295 11.5079ZM55.7212 11.5417C55.7212 11.1093 55.6254 10.7385 55.4347 10.4293C55.2104 10.0555 54.8913 9.86864 54.4763 9.86864C54.0471 9.86864 53.7208 10.0555 53.4965 10.4293C53.3048 10.7385 53.21 11.1153 53.21 11.5606C53.21 11.993 53.3058 12.3638 53.4965 12.673C53.7279 13.0468 54.0501 13.2337 54.4661 13.2337C54.874 13.2337 55.1941 13.0438 55.4245 12.6631C55.6223 12.3479 55.7212 11.9742 55.7212 11.5417Z" fill="white"/>
<path d="M64.8388 9.20386L63.3349 13.8901H62.3561L61.7331 11.8551C61.5751 11.3471 61.4466 10.8421 61.3467 10.3411H61.3273C61.2346 10.8561 61.1061 11.3601 60.9409 11.8551L60.2792 13.8901H59.2892L57.875 9.20386H58.9731L59.5165 11.4316C59.6481 11.9585 59.7562 12.4605 59.8428 12.9357H59.8622C59.9417 12.5441 60.0732 12.045 60.2588 11.4416L60.9409 9.20485H61.8117L62.4652 11.3939C62.6233 11.9277 62.7517 12.4417 62.8506 12.9367H62.8802C62.9526 12.4546 63.0617 11.9406 63.2065 11.3939L63.7897 9.20485H64.8388V9.20386Z" fill="white"/>
<path d="M70.378 13.8901H69.3095V11.206C69.3095 10.3789 68.9873 9.96537 68.3408 9.96537C68.0238 9.96537 67.7678 10.0787 67.569 10.3063C67.3722 10.534 67.2723 10.8024 67.2723 11.1096V13.8891H66.2038V10.5429C66.2038 10.1314 66.1905 9.68503 66.165 9.2019H67.1041L67.154 9.93455H67.1836C67.308 9.7069 67.4936 9.51902 67.7373 9.36891C68.0268 9.19394 68.351 9.10547 68.7059 9.10547C69.1545 9.10547 69.5277 9.24663 69.8244 9.52995C70.1934 9.8769 70.378 10.3948 70.378 11.0827V13.8901Z" fill="white"/>
<path d="M73.3253 13.8899H72.2578V7.05347H73.3253V13.8899Z" fill="white"/>
<path d="M79.6157 11.5079C79.6157 12.2287 79.4046 12.8191 78.9825 13.2824C78.54 13.7586 77.9527 13.9962 77.2217 13.9962C76.5151 13.9962 75.9533 13.7685 75.5353 13.3112C75.1172 12.8549 74.9082 12.2794 74.9082 11.5855C74.9082 10.8598 75.1233 10.2643 75.5556 9.80204C75.988 9.33978 76.5691 9.10815 77.3002 9.10815C78.0068 9.10815 78.5726 9.3358 79.0029 9.7921C79.4107 10.2355 79.6157 10.8081 79.6157 11.5079ZM78.5064 11.5417C78.5064 11.1093 78.4105 10.7385 78.2199 10.4293C77.9966 10.0555 77.6764 9.86864 77.2624 9.86864C76.8322 9.86864 76.5059 10.0555 76.2826 10.4293C76.0909 10.7385 75.9961 11.1153 75.9961 11.5606C75.9961 11.993 76.092 12.3638 76.2826 12.673C76.5141 13.0468 76.8363 13.2337 77.2523 13.2337C77.6601 13.2337 77.9792 13.0438 78.2097 12.6631C78.4085 12.3479 78.5064 11.9742 78.5064 11.5417Z" fill="white"/>
<path d="M84.7867 13.8898H83.8272L83.7477 13.35H83.7181C83.3898 13.7805 82.9218 13.9962 82.3141 13.9962C81.8604 13.9962 81.4934 13.854 81.2171 13.5717C80.9662 13.3152 80.8408 12.9961 80.8408 12.6173C80.8408 12.0447 81.0855 11.6083 81.578 11.3061C82.0694 11.0039 82.7607 10.8558 83.6508 10.8627V10.7753C83.6508 10.1579 83.3184 9.84976 82.6526 9.84976C82.1785 9.84976 81.7605 9.96607 81.3996 10.1967L81.1824 9.51275C81.629 9.24335 82.1806 9.10815 82.8311 9.10815C84.0872 9.10815 84.7173 9.75432 84.7173 11.0467V12.7724C84.7173 13.2407 84.7408 13.6134 84.7867 13.8898ZM83.6773 12.2794V11.5566C82.4987 11.5368 81.9094 11.8519 81.9094 12.501C81.9094 12.7456 81.9766 12.9285 82.1143 13.0508C82.2519 13.1731 82.4273 13.2337 82.6363 13.2337C82.8708 13.2337 83.09 13.1611 83.2899 13.017C83.4907 12.8718 83.6141 12.6879 83.66 12.4623C83.6712 12.4116 83.6773 12.3499 83.6773 12.2794Z" fill="white"/>
<path d="M90.8577 13.8899H89.9095L89.8595 13.1374H89.83C89.5271 13.71 89.0112 13.9963 88.2863 13.9963C87.7072 13.9963 87.2249 13.7746 86.8425 13.3312C86.4602 12.8879 86.2695 12.3123 86.2695 11.6055C86.2695 10.847 86.4765 10.2326 86.8925 9.7634C87.2952 9.32599 87.7887 9.10729 88.376 9.10729C89.0214 9.10729 89.4731 9.31903 89.73 9.74352H89.7504V7.05347H90.82V12.6274C90.82 13.0837 90.8322 13.5042 90.8577 13.8899ZM89.7504 11.9136V11.1323C89.7504 10.9971 89.7402 10.8877 89.7209 10.8042C89.6607 10.5537 89.5312 10.343 89.3344 10.173C89.1356 10.003 88.896 9.91749 88.6197 9.91749C88.221 9.91749 87.909 10.0716 87.6796 10.3807C87.4523 10.6899 87.337 11.0846 87.337 11.5667C87.337 12.03 87.4461 12.4057 87.6654 12.695C87.8968 13.0032 88.2088 13.1573 88.5993 13.1573C88.95 13.1573 89.2304 13.029 89.4435 12.7716C89.6495 12.534 89.7504 12.2477 89.7504 11.9136Z" fill="white"/>
<path d="M99.9975 11.5079C99.9975 12.2287 99.7865 12.8191 99.3643 13.2824C98.9218 13.7586 98.3366 13.9962 97.6035 13.9962C96.899 13.9962 96.3372 13.7685 95.9171 13.3112C95.4991 12.8549 95.29 12.2794 95.29 11.5855C95.29 10.8598 95.5052 10.2643 95.9375 9.80204C96.3698 9.33978 96.951 9.10815 97.684 9.10815C98.3886 9.10815 98.9565 9.3358 99.3847 9.7921C99.7926 10.2355 99.9975 10.8081 99.9975 11.5079ZM98.8902 11.5417C98.8902 11.1093 98.7944 10.7385 98.6037 10.4293C98.3784 10.0555 98.0603 9.86864 97.6443 9.86864C97.2161 9.86864 96.8898 10.0555 96.6645 10.4293C96.4728 10.7385 96.3779 11.1153 96.3779 11.5606C96.3779 11.993 96.4738 12.3638 96.6645 12.673C96.8959 13.0468 97.2181 13.2337 97.6341 13.2337C98.0419 13.2337 98.3631 13.0438 98.5935 12.6631C98.7903 12.3479 98.8902 11.9742 98.8902 11.5417Z" fill="white"/>
<path d="M105.743 13.8899H104.676V11.2058C104.676 10.3787 104.353 9.96513 103.706 9.96513C103.389 9.96513 103.133 10.0785 102.935 10.3061C102.737 10.5338 102.639 10.8022 102.639 11.1093V13.8889H101.569V10.5427C101.569 10.1311 101.557 9.68479 101.531 9.20165H102.469L102.519 9.93431H102.549C102.674 9.70666 102.86 9.51877 103.102 9.36866C103.393 9.1937 103.716 9.10522 104.072 9.10522C104.52 9.10522 104.893 9.24639 105.19 9.52971C105.56 9.87665 105.743 10.3946 105.743 11.0825V13.8899Z" fill="white"/>
<path d="M112.934 9.98407H111.757V12.2606C111.757 12.8391 111.966 13.1284 112.38 13.1284C112.572 13.1284 112.731 13.1125 112.857 13.0797L112.884 13.87C112.673 13.9476 112.396 13.9863 112.054 13.9863C111.632 13.9863 111.304 13.8611 111.066 13.6106C110.828 13.3601 110.709 12.9386 110.709 12.3471V9.98407H110.007V9.2037H110.709V8.34479L111.756 8.03662V9.20271H112.933V9.98407H112.934Z" fill="white"/>
<path d="M118.59 13.8899H117.521V11.2257C117.521 10.3857 117.199 9.9652 116.553 9.9652C116.058 9.9652 115.719 10.2088 115.533 10.6959C115.502 10.7983 115.484 10.9235 115.484 11.0706V13.8889H114.416V7.05347H115.484V9.87772H115.504C115.84 9.36377 116.323 9.10729 116.948 9.10729C117.39 9.10729 117.756 9.24845 118.047 9.53177C118.409 9.88468 118.59 10.4096 118.59 11.1035V13.8899Z" fill="white"/>
<path d="M124.426 11.3252C124.426 11.5121 124.412 11.6691 124.387 11.7974H121.182C121.196 12.2606 121.349 12.6135 121.646 12.8581C121.917 13.0768 122.267 13.1861 122.695 13.1861C123.169 13.1861 123.602 13.1126 123.991 12.9644L124.158 13.6882C123.703 13.881 123.166 13.9774 122.545 13.9774C121.801 13.9774 121.215 13.7637 120.791 13.3362C120.364 12.9088 120.153 12.3352 120.153 11.6154C120.153 10.9086 120.35 10.3201 120.747 9.85091C121.161 9.34988 121.72 9.09937 122.427 9.09937C123.118 9.09937 123.643 9.34988 123.998 9.85091C124.285 10.2486 124.426 10.7406 124.426 11.3252ZM123.407 11.0558C123.415 10.7466 123.345 10.4802 123.2 10.2555C123.014 9.96623 122.732 9.82109 122.35 9.82109C122.001 9.82109 121.716 9.96225 121.499 10.2456C121.322 10.4712 121.217 10.7406 121.182 11.0558H123.407Z" fill="white"/>
</svg>
