<svg width="177" height="21" viewBox="0 0 177 21" fill="none" xmlns="http://www.w3.org/2000/svg">
<path d="M26.9102 1.39258H34.4641C35.8973 1.39258 37.1811 1.63099 38.2859 2.13763C39.4204 2.61446 40.3162 3.32971 40.973 4.28337C41.6299 5.20723 41.9583 6.30991 41.9583 7.59139C41.9583 9.37951 41.3612 10.81 40.137 11.8233C38.9129 12.8365 37.2408 13.373 35.1508 13.373H32.0456V19.6612H26.9102V1.39258ZM34.9717 9.70733C35.5987 9.70733 36.1361 9.46892 36.584 8.96228C37.0318 8.48545 37.2408 7.91921 37.2408 7.32317C37.2408 6.69733 37.002 6.1609 36.5541 5.71387C36.0764 5.26684 35.5688 5.02842 34.9717 5.02842H32.0158V9.70733H34.9717Z" fill="white"/>
<path d="M54.9432 19.6612L52.1664 13.373H49.4792V19.6612H44.3438V1.39258H53.0024C55.3612 1.39258 57.0929 1.92901 58.1976 3.00189C59.3024 4.07476 59.8697 5.50525 59.8697 7.26357C59.8697 8.57486 59.6009 9.64773 59.0635 10.4822C58.5261 11.3166 57.7796 12.0021 56.8242 12.5683L60.1682 19.6314H54.9432V19.6612ZM54.0176 8.99209C54.4654 8.51525 54.7043 7.94902 54.7043 7.35298C54.7043 6.72713 54.4654 6.1907 54.0176 5.74367C53.5399 5.29664 53.0323 5.05822 52.4351 5.05822H49.5091V9.73714H52.4351C53.0323 9.70733 53.5697 9.46892 54.0176 8.99209Z" fill="white"/>
<path d="M66.5897 18.4992C65.1864 17.7244 64.1115 16.6515 63.365 15.2508C62.6186 13.8501 62.2305 12.211 62.2305 10.3037C62.2305 8.39635 62.6186 6.75724 63.365 5.32674C64.1413 3.89625 65.2162 2.79357 66.6195 2.01872C68.0228 1.24387 69.6351 0.856445 71.4863 0.856445C73.3076 0.856445 74.9199 1.24387 76.3232 2.01872C77.7265 2.79357 78.8014 3.89625 79.5478 5.32674C80.3241 6.75724 80.6824 8.39635 80.6824 10.3037C80.6824 12.1812 80.2943 13.8203 79.5478 15.221C78.8014 16.6217 77.7265 17.7244 76.3232 18.4992C74.9199 19.2741 73.3076 19.6615 71.4863 19.6615C69.6053 19.6615 67.993 19.2741 66.5897 18.4992ZM74.1436 14.4461C74.8005 13.6117 75.1289 12.2408 75.1289 10.3931C75.1289 8.45595 74.8005 7.05526 74.1436 6.1612C73.4867 5.26714 72.591 4.84991 71.4863 4.84991C70.3517 4.84991 69.456 5.29694 68.7991 6.1612C68.1423 7.05526 67.8138 8.45595 67.8138 10.3931C67.8138 12.2706 68.1423 13.6117 68.7991 14.4461C69.456 15.2806 70.3517 15.6978 71.4863 15.6978C72.591 15.7276 73.4867 15.3104 74.1436 14.4461Z" fill="white"/>
<path d="M96.7101 1.75145C97.9044 2.31769 98.8897 3.09254 99.6362 4.13561C100.383 5.14887 100.801 6.31115 100.95 7.62244H95.6054C95.4561 6.75818 95.1277 6.10254 94.5902 5.5959C94.0528 5.11907 93.3661 4.85085 92.5002 4.85085C91.4552 4.85085 90.649 5.26808 90.0519 6.07274C89.4547 6.87739 89.1562 8.24828 89.1562 10.1258C89.1562 12.0629 89.4547 13.4934 90.0519 14.3875C90.649 15.2815 91.4552 15.7286 92.4704 15.7286C93.3064 15.7286 93.9931 15.4306 94.5305 14.8345C95.068 14.2385 95.4262 13.4934 95.5755 12.5994H100.92C100.621 14.7749 99.875 16.5034 98.6509 17.7849C97.4267 19.0366 95.4263 19.6922 92.6495 19.6922C90.8282 19.6922 89.2458 19.275 87.8723 18.4406C86.4989 17.6061 85.424 16.4736 84.6775 15.0133C83.9311 13.553 83.543 11.9139 83.543 10.0662C83.543 8.21848 83.9311 6.60917 84.6775 5.23828C85.424 3.86739 86.469 2.79452 87.8424 2.04947C89.2159 1.30442 90.8282 0.916992 92.6794 0.916992C94.1424 0.916992 95.486 1.18521 96.7101 1.75145Z" fill="white"/>
<path d="M118.183 17.605C116.899 18.9759 114.809 19.6613 111.883 19.6613C108.957 19.6613 106.867 18.9759 105.583 17.605C104.299 16.2341 103.672 14.3268 103.672 11.8532V1.1543H108.867V12.0618C108.867 13.2539 109.166 14.1182 109.733 14.6844C110.3 15.2506 111.017 15.5487 111.913 15.5487C112.808 15.5487 113.525 15.2506 114.092 14.6844C114.659 14.1182 114.958 13.2241 114.958 12.0618V1.1543H120.123V11.8532C120.123 14.3268 119.466 16.2639 118.183 17.605Z" fill="white"/>
<path d="M133.974 19.6612L131.198 13.373H128.51V19.6612H123.375V1.39258H132.034C134.392 1.39258 136.124 1.92901 137.229 3.00189C138.334 4.07476 138.901 5.50525 138.901 7.26357C138.901 8.57486 138.632 9.64773 138.125 10.4822C137.587 11.3166 136.841 12.0021 135.885 12.5683L139.229 19.6314H133.974V19.6612ZM133.049 8.99209C133.497 8.51525 133.736 7.94902 133.736 7.35298C133.736 6.72713 133.497 6.1907 133.049 5.74367C132.571 5.29664 132.064 5.05822 131.466 5.05822H128.54V9.73714H131.466C132.064 9.70733 132.601 9.46892 133.049 8.99209Z" fill="white"/>
<path d="M145.351 18.4992C143.948 17.7244 142.873 16.6515 142.127 15.2508C141.38 13.8501 140.992 12.211 140.992 10.3037C140.992 8.39635 141.38 6.75724 142.127 5.32674C142.903 3.89625 143.978 2.79357 145.381 2.01872C146.785 1.24387 148.397 0.856445 150.248 0.856445C152.069 0.856445 153.682 1.24387 155.085 2.01872C156.488 2.79357 157.563 3.89625 158.31 5.32674C159.086 6.75724 159.444 8.39635 159.444 10.3037C159.444 12.1812 159.056 13.8203 158.31 15.221C157.563 16.6217 156.488 17.7244 155.085 18.4992C153.682 19.2741 152.069 19.6615 150.248 19.6615C148.397 19.6615 146.755 19.2741 145.351 18.4992ZM152.905 14.4461C153.562 13.6117 153.891 12.2408 153.891 10.3931C153.891 8.45595 153.562 7.05526 152.905 6.1612C152.248 5.26714 151.353 4.84991 150.248 4.84991C149.113 4.84991 148.218 5.29694 147.561 6.1612C146.904 7.05526 146.576 8.45595 146.576 10.3931C146.576 12.2706 146.904 13.6117 147.561 14.4461C148.218 15.2806 149.113 15.6978 150.248 15.6978C151.383 15.7276 152.278 15.3104 152.905 14.4461Z" fill="white"/>
<path d="M165.358 19.0062C164.253 18.5591 163.327 17.9035 162.611 17.0094C161.894 16.1154 161.476 14.9829 161.387 13.6716H165.985C166.104 14.3272 166.403 14.8637 166.91 15.2213C167.418 15.6087 168.045 15.7875 168.821 15.7875C169.598 15.7875 170.254 15.6385 170.762 15.3703C171.27 15.1021 171.538 14.6551 171.538 14.059C171.538 13.5524 171.299 13.1948 170.852 12.9862C170.404 12.7775 169.717 12.5689 168.791 12.3901L166.224 11.8835C164.88 11.6451 163.835 11.049 163.059 10.0656C162.282 9.1119 161.894 7.83041 161.894 6.25091C161.894 5.02903 162.193 3.98596 162.82 3.0919C163.447 2.19784 164.253 1.51239 165.328 1.03556C166.373 0.558728 167.537 0.320312 168.821 0.320312C170.135 0.320312 171.299 0.58853 172.374 1.15477C173.419 1.6912 174.285 2.43625 174.912 3.36012C175.539 4.28398 175.897 5.23764 176.017 6.28071H171.538C171.479 5.56546 171.24 5.05883 170.792 4.73101C170.344 4.40318 169.747 4.25417 168.941 4.25417C168.164 4.25417 167.567 4.40318 167.209 4.7012C166.851 4.99922 166.671 5.35685 166.671 5.74427C166.671 6.1913 166.791 6.54893 167.06 6.78734C167.328 7.02576 167.776 7.23437 168.463 7.38338L171.031 7.89002C173.121 8.30724 174.494 9.0821 175.151 10.2444C175.808 11.4067 176.106 12.6881 176.106 14.0888C176.106 15.1617 175.778 16.1154 175.151 16.9498C174.524 17.8141 173.658 18.4697 172.553 18.9466C171.449 19.4234 170.225 19.6618 168.881 19.6618C167.627 19.6618 166.462 19.4532 165.358 19.0062Z" fill="white"/>
<path d="M0.273438 17.8427C0.273438 16.6805 0.273438 15.3394 0.273438 13.7003C1.04973 14.0579 1.73646 14.2963 2.3336 14.6837C4.93121 16.442 5.22978 16.4718 7.73781 14.7135C9.43969 13.5215 10.3653 13.5513 12.0671 14.7433C14.4259 16.4122 14.9335 16.4122 17.2922 14.7731C17.8894 14.3559 18.5761 14.0877 19.5017 13.5811C19.5017 14.5645 19.5017 15.25 19.5017 15.9652C19.5017 16.6507 19.5017 17.3063 19.5017 17.8427C18.4268 18.4984 17.4415 19.0646 16.4861 19.6905C15.232 20.4951 14.0079 20.4951 12.8136 19.6309C12.3956 19.3328 11.9477 19.005 11.5297 18.7368C10.425 18.0216 9.32026 18.0514 8.24539 18.7666C7.82738 19.0348 7.43924 19.3328 7.05109 19.6011C5.64779 20.5547 4.60278 20.5547 3.16962 19.6309C2.27389 19.0348 1.37816 18.4984 0.273438 17.8427Z" fill="white"/>
<path d="M0.273438 11.2002C0.273438 10.0379 0.273438 8.69679 0.273438 7.05768C1.04973 7.41531 1.73646 7.65372 2.3336 8.04115C4.93121 9.79947 5.22978 9.82927 7.73781 8.07095C9.43969 6.87887 10.3653 6.90868 12.0671 8.10075C14.4259 9.76967 14.9335 9.76967 17.2922 8.13056C17.8894 7.71333 18.5761 7.44511 19.5017 6.93848C19.5017 7.92194 19.5017 8.60739 19.5017 9.32264C19.5017 10.0081 19.5017 10.6637 19.5017 11.2002C18.4268 11.8558 17.4415 12.422 16.4861 13.0479C15.232 13.8525 14.0079 13.8525 12.8136 12.9883C12.3956 12.6903 11.9477 12.3624 11.5297 12.0942C10.425 11.379 9.32026 11.4088 8.24539 12.124C7.82738 12.3922 7.43924 12.6903 7.05109 12.9585C5.64779 13.9121 4.60278 13.9121 3.16962 12.9883C2.27389 12.3922 1.37816 11.8558 0.273438 11.2002Z" fill="white"/>
<path d="M0.273438 4.93942C0.273438 3.77714 0.273438 2.43605 0.273438 0.796942C1.04973 1.15457 1.73646 1.39298 2.3336 1.78041C4.93121 3.53872 5.22978 3.56853 7.73781 1.81021C9.43969 0.61813 10.3653 0.647932 12.0671 1.84001C14.4259 3.50892 14.9335 3.50892 17.2922 1.86981C17.8894 1.45259 18.5761 1.18437 19.5017 0.677734C19.5017 1.6612 19.5017 2.34665 19.5017 3.06189C19.5017 3.74734 19.5017 4.40298 19.5017 4.93942C18.4268 5.59506 17.4415 6.1613 16.4861 6.78714C15.232 7.5918 14.0079 7.59179 12.8136 6.72754C12.3956 6.42952 11.9477 6.10169 11.5297 5.83348C10.425 5.11823 9.32026 5.14803 8.24539 5.86328C7.82738 6.1315 7.43924 6.42952 7.05109 6.69773C5.64779 7.6514 4.60278 7.6514 3.16962 6.72754C2.27389 6.1315 1.37816 5.62486 0.273438 4.93942Z" fill="white"/>
</svg>
