<?xml version="1.0" encoding="utf-8"?>
<!-- Generator: Adobe Illustrator 24.3.0, SVG Export Plug-In . SVG Version: 6.00 Build 0)  -->
<svg version="1.1" xmlns="http://www.w3.org/2000/svg" xmlns:xlink="http://www.w3.org/1999/xlink" x="0px" y="0px"
	 viewBox="0 0 1482 150" style="enable-background:new 0 0 1482 150;" xml:space="preserve">
<style type="text/css">
	.st0{fill:#FFFFFF;}
	.st1{fill:#FDBC1F;}
	.st2{fill:#B3CA34;}
	.st3{fill:#FEFEFE;}
	.st4{fill:#FDFDFD;}
	.st5{fill:#FCFCFC;}
	.st6{fill:#FAD645;}
	.st7{fill:#F9D645;}
	.st8{fill:#F9D646;}
	.st9{fill:#FCD746;}
</style>
<g id="Layer_2">
</g>
<g id="Layer_1">
	<g id="Layer_1_1_">
	</g>
	<g id="Layer_2_1_">
	</g>
	<g id="Layer_3">
		<g>
			<g>
				<g>
					<g>
						<path class="st0" d="M92.9,67.3c1.8,0.9,3.1,2.2,4.1,3.9c1,1.7,1.4,3.7,1.4,5.9S98,81.3,97,82.9c-1,1.7-2.3,2.9-4.1,3.8
							c-1.8,0.9-3.8,1.3-6.2,1.3h-7.2V65.9h7.2C89.1,65.9,91.1,66.4,92.9,67.3z M92.7,83c1.4-1.4,2.1-3.4,2.1-5.9
							c0-2.6-0.7-4.6-2.1-6c-1.4-1.4-3.4-2.2-5.9-2.2h-3.6v16.2h3.6C89.3,85.1,91.3,84.4,92.7,83z"/>
						<path class="st0" d="M105.2,87.2c-1.3-0.8-2.4-1.8-3.2-3.2c-0.8-1.4-1.2-2.9-1.2-4.8c0-1.8,0.4-3.4,1.2-4.7
							c0.8-1.4,1.9-2.4,3.2-3.2c1.4-0.7,2.9-1.1,4.6-1.1c1.7,0,3.2,0.4,4.6,1.1s2.4,1.8,3.2,3.2c0.8,1.4,1.2,3,1.2,4.7
							s-0.4,3.4-1.2,4.7s-1.9,2.4-3.3,3.2c-1.4,0.8-2.9,1.1-4.6,1.1C108,88.3,106.5,88,105.2,87.2z M112.3,84.5c0.8-0.4,1.5-1.1,2-2
							c0.5-0.9,0.8-2,0.8-3.2s-0.2-2.3-0.7-3.2c-0.5-0.9-1.1-1.6-1.9-2c-0.8-0.4-1.7-0.7-2.6-0.7c-0.9,0-1.8,0.2-2.6,0.7
							c-0.8,0.4-1.4,1.1-1.9,2c-0.5,0.9-0.7,2-0.7,3.2c0,1.9,0.5,3.3,1.4,4.4c1,1,2.2,1.6,3.7,1.6C110.6,85.2,111.5,85,112.3,84.5z"
							/>
						<path class="st0" d="M134.9,71.1c1.1,0.6,1.9,1.4,2.6,2.6c0.6,1.1,0.9,2.5,0.9,4.1v10.3h-3.6v-9.8c0-1.6-0.4-2.8-1.2-3.6
							c-0.8-0.8-1.9-1.3-3.2-1.3s-2.4,0.4-3.2,1.3c-0.8,0.8-1.2,2-1.2,3.6v9.8h-3.6V70.5h3.6v2c0.6-0.7,1.3-1.3,2.3-1.7
							c0.9-0.4,1.9-0.6,2.9-0.6C132.6,70.2,133.8,70.5,134.9,71.1z"/>
						<path class="st0" d="M145,62.7l-0.4,6.5h-2.5l-0.4-6.5H145z"/>
						<path class="st0" d="M152.7,73.5v9.7c0,0.7,0.1,1.1,0.5,1.4c0.3,0.3,0.8,0.4,1.6,0.4h2.2v3h-2.9c-1.6,0-2.9-0.4-3.8-1.2
							c-0.9-0.8-1.3-2-1.3-3.7v-9.7H147v-3h2.1v-4.4h3.7v4.4h4.3v3L152.7,73.5L152.7,73.5z"/>
						<path class="st0" d="M191.9,65.9V88h-3.6V72.9L181.5,88H179l-6.8-15.2V88h-3.6V65.9h3.9l7.8,17.3l7.7-17.3H191.9z"/>
						<path class="st0" d="M196.9,67.5c-0.4-0.4-0.7-1-0.7-1.7c0-0.7,0.2-1.2,0.7-1.7c0.4-0.5,1-0.7,1.7-0.7c0.6,0,1.2,0.2,1.6,0.7
							c0.4,0.4,0.7,1,0.7,1.7c0,0.7-0.2,1.2-0.7,1.7c-0.4,0.4-1,0.7-1.6,0.7C197.9,68.2,197.3,68,196.9,67.5z M200.3,70.5v17.5h-3.6
							V70.5H200.3z"/>
						<path class="st0" d="M207.7,87.6c-1.1-0.5-2-1.2-2.6-2c-0.6-0.9-1-1.8-1-2.9h3.8c0.1,0.7,0.4,1.4,1.1,1.9
							c0.6,0.5,1.5,0.8,2.4,0.8c1,0,1.8-0.2,2.4-0.6c0.6-0.4,0.8-0.9,0.8-1.5c0-0.7-0.3-1.1-0.9-1.5s-1.6-0.7-3-1.1
							c-1.3-0.4-2.4-0.7-3.2-1.1c-0.8-0.3-1.5-0.9-2.1-1.6c-0.6-0.7-0.9-1.6-0.9-2.8c0-0.9,0.3-1.8,0.8-2.6c0.6-0.8,1.3-1.4,2.4-1.8
							c1-0.4,2.2-0.7,3.6-0.7c2,0,3.6,0.5,4.8,1.5s1.9,2.4,2,4.1h-3.6c-0.1-0.8-0.4-1.4-0.9-1.9c-0.6-0.5-1.4-0.7-2.3-0.7
							c-0.9,0-1.7,0.2-2.2,0.5s-0.8,0.8-0.8,1.4c0,0.5,0.2,0.9,0.5,1.2s0.8,0.6,1.2,0.8s1.2,0.4,2.2,0.7c1.3,0.3,2.3,0.7,3.1,1
							c0.8,0.3,1.5,0.9,2.1,1.5c0.6,0.7,0.9,1.6,0.9,2.7c0,1-0.3,1.9-0.8,2.7s-1.3,1.4-2.3,1.8c-1,0.4-2.2,0.7-3.6,0.7
							C210.1,88.3,208.8,88.1,207.7,87.6z"/>
						<path class="st0" d="M224.7,87.6c-1.1-0.5-2-1.2-2.6-2c-0.6-0.9-1-1.8-1-2.9h3.8c0.1,0.7,0.4,1.4,1.1,1.9
							c0.6,0.5,1.5,0.8,2.4,0.8c1,0,1.8-0.2,2.4-0.6c0.6-0.4,0.8-0.9,0.8-1.5c0-0.7-0.3-1.1-0.9-1.5s-1.6-0.7-3-1.1
							c-1.3-0.4-2.4-0.7-3.2-1.1c-0.8-0.3-1.5-0.9-2.1-1.6c-0.6-0.7-0.9-1.6-0.9-2.8c0-0.9,0.3-1.8,0.8-2.6c0.6-0.8,1.3-1.4,2.4-1.8
							c1-0.4,2.2-0.7,3.6-0.7c2,0,3.6,0.5,4.8,1.5s1.9,2.4,2,4.1h-3.6c-0.1-0.8-0.4-1.4-0.9-1.9c-0.6-0.5-1.4-0.7-2.3-0.7
							c-0.9,0-1.7,0.2-2.2,0.5s-0.8,0.8-0.8,1.4c0,0.5,0.2,0.9,0.5,1.2s0.8,0.6,1.2,0.8s1.2,0.4,2.2,0.7c1.3,0.3,2.3,0.7,3.1,1
							c0.8,0.3,1.5,0.9,2.1,1.5c0.6,0.7,0.9,1.6,0.9,2.7c0,1-0.3,1.9-0.8,2.7s-1.3,1.4-2.3,1.8c-1,0.4-2.2,0.7-3.6,0.7
							C227.1,88.3,225.8,88.1,224.7,87.6z"/>
						<path class="st0" d="M250.9,65.9V80c0,1.7,0.4,2.9,1.3,3.8s2.1,1.3,3.7,1.3c1.6,0,2.8-0.4,3.7-1.3c0.9-0.8,1.3-2.1,1.3-3.8
							V65.9h3.6v14c0,1.8-0.4,3.3-1.2,4.6c-0.8,1.2-1.8,2.2-3.1,2.8c-1.3,0.6-2.8,0.9-4.4,0.9c-1.6,0-3-0.3-4.3-0.9
							c-1.3-0.6-2.3-1.6-3.1-2.8c-0.8-1.2-1.1-2.8-1.1-4.6v-14H250.9z"/>
						<path class="st0" d="M272,87.6c-1.1-0.5-2-1.2-2.6-2c-0.6-0.9-1-1.8-1-2.9h3.8c0.1,0.7,0.4,1.4,1.1,1.9s1.5,0.8,2.4,0.8
							c1,0,1.8-0.2,2.4-0.6c0.6-0.4,0.8-0.9,0.8-1.5c0-0.7-0.3-1.1-0.9-1.5s-1.6-0.7-3-1.1c-1.3-0.4-2.4-0.7-3.2-1.1
							c-0.8-0.3-1.5-0.9-2.1-1.6c-0.6-0.7-0.9-1.6-0.9-2.8c0-0.9,0.3-1.8,0.8-2.6c0.5-0.8,1.3-1.4,2.4-1.8c1-0.4,2.2-0.7,3.5-0.7
							c2,0,3.6,0.5,4.8,1.5s1.9,2.4,2,4.1h-3.6c-0.1-0.8-0.4-1.4-1-1.9c-0.6-0.5-1.4-0.7-2.3-0.7c-1,0-1.7,0.2-2.2,0.5
							s-0.8,0.8-0.8,1.4c0,0.5,0.2,0.9,0.5,1.2s0.8,0.6,1.2,0.8s1.2,0.4,2.2,0.7c1.3,0.3,2.3,0.7,3.1,1c0.8,0.3,1.5,0.9,2.1,1.5
							c0.6,0.7,0.9,1.6,0.9,2.7c0,1-0.3,1.9-0.8,2.7s-1.3,1.4-2.3,1.8c-1,0.4-2.2,0.7-3.5,0.7C274.3,88.3,273.1,88.1,272,87.6z"/>
						<path class="st0" d="M307.9,83.5h-9.3l-1.6,4.5h-3.8l7.9-22.2h4.2l7.9,22.2h-3.8L307.9,83.5z M306.9,80.6l-3.6-10.3l-3.6,10.3
							H306.9z"/>
						<path class="st0" d="M321,73.5v9.7c0,0.7,0.1,1.1,0.5,1.4s0.8,0.4,1.6,0.4h2.2v3h-2.9c-1.6,0-2.9-0.4-3.8-1.2
							c-0.9-0.8-1.3-2-1.3-3.7v-9.7h-2.1v-3h2.1v-4.4h3.7v4.4h4.3v3L321,73.5L321,73.5z"/>
						<path class="st0" d="M351.2,65.9v3h-5.9V88h-3.6V68.9h-5.9v-3H351.2z"/>
						<path class="st0" d="M367.5,71.1c1,0.6,1.9,1.4,2.5,2.6c0.6,1.1,0.9,2.5,0.9,4.1v10.3h-3.6v-9.8c0-1.6-0.4-2.8-1.2-3.6
							c-0.8-0.8-1.9-1.3-3.2-1.3c-1.4,0-2.4,0.4-3.2,1.3c-0.8,0.8-1.2,2-1.2,3.6v9.8h-3.6V64.5h3.6v8.1c0.6-0.7,1.4-1.3,2.3-1.7
							c0.9-0.4,2-0.6,3.1-0.6C365.3,70.2,366.5,70.5,367.5,71.1z"/>
						<path class="st0" d="M391.5,80.6h-13.4c0.1,1.4,0.6,2.5,1.6,3.4s2.1,1.3,3.4,1.3c2,0,3.3-0.8,4.1-2.4h3.9
							c-0.5,1.6-1.5,2.9-2.9,4s-3.1,1.5-5.2,1.5c-1.7,0-3.2-0.4-4.5-1.1c-1.3-0.8-2.4-1.8-3.1-3.2c-0.8-1.4-1.1-2.9-1.1-4.8
							s0.4-3.4,1.1-4.8s1.8-2.4,3.1-3.2c1.3-0.7,2.9-1.1,4.6-1.1c1.6,0,3.1,0.4,4.4,1.1c1.3,0.7,2.3,1.7,3,3
							c0.7,1.3,1.1,2.8,1.1,4.5C391.6,79.5,391.5,80.1,391.5,80.6z M387.8,77.7c0-1.3-0.5-2.4-1.4-3.2c-0.9-0.8-2.1-1.2-3.5-1.2
							c-1.2,0-2.3,0.4-3.2,1.2c-0.9,0.8-1.4,1.9-1.6,3.2L387.8,77.7L387.8,77.7z"/>
						<path class="st0" d="M406.7,87.5c-1.2-0.5-2.1-1.3-2.8-2.2c-0.7-1-1-2.1-1-3.3h3.9c0.1,1,0.5,1.7,1.1,2.4s1.6,0.9,2.8,0.9
							c1.2,0,2.2-0.3,2.9-0.9c0.7-0.6,1-1.4,1-2.3c0-0.7-0.2-1.3-0.6-1.8c-0.4-0.5-1-0.8-1.6-1.1s-1.5-0.5-2.7-0.8
							c-1.5-0.4-2.6-0.8-3.5-1.2c-0.9-0.4-1.7-1-2.3-1.8c-0.6-0.8-1-1.9-1-3.3c0-1.3,0.3-2.4,1-3.3c0.6-1,1.5-1.7,2.7-2.2
							c1.1-0.5,2.5-0.8,4-0.8c2.1,0,3.9,0.5,5.3,1.6s2.1,2.5,2.3,4.4h-4c-0.1-0.8-0.4-1.5-1.1-2.1c-0.7-0.6-1.6-0.9-2.8-0.9
							c-1,0-1.9,0.3-2.5,0.8c-0.7,0.5-1,1.3-1,2.3c0,0.7,0.2,1.2,0.6,1.7s0.9,0.8,1.6,1c0.6,0.2,1.5,0.5,2.6,0.8
							c1.5,0.4,2.7,0.8,3.6,1.2c0.9,0.4,1.7,1,2.4,1.9c0.6,0.8,1,2,1,3.4c0,1.1-0.3,2.2-0.9,3.2c-0.6,1-1.5,1.8-2.6,2.4
							c-1.2,0.6-2.5,0.9-4.1,0.9C409.2,88.3,407.9,88,406.7,87.5z"/>
						<path class="st0" d="M435.3,71.1c1,0.6,1.9,1.4,2.5,2.6c0.6,1.1,0.9,2.5,0.9,4.1v10.3h-3.6v-9.8c0-1.6-0.4-2.8-1.2-3.6
							c-0.8-0.8-1.9-1.3-3.2-1.3c-1.4,0-2.4,0.4-3.2,1.3c-0.8,0.8-1.2,2-1.2,3.6v9.8h-3.6V64.5h3.6v8.1c0.6-0.7,1.4-1.3,2.3-1.7
							c0.9-0.4,2-0.6,3.1-0.6C433.1,70.2,434.3,70.5,435.3,71.1z"/>
						<path class="st0" d="M446.4,87.2c-1.3-0.8-2.4-1.8-3.1-3.2c-0.8-1.4-1.1-2.9-1.1-4.8c0-1.8,0.4-3.4,1.2-4.7
							c0.8-1.4,1.9-2.4,3.2-3.2c1.4-0.7,2.9-1.1,4.5-1.1s3.2,0.4,4.5,1.1s2.4,1.8,3.2,3.2c0.8,1.4,1.2,3,1.2,4.7s-0.4,3.4-1.2,4.7
							s-1.9,2.4-3.3,3.2c-1.4,0.8-2.9,1.1-4.6,1.1C449.3,88.3,447.8,88,446.4,87.2z M453.5,84.5c0.8-0.4,1.5-1.1,2-2
							c0.5-0.9,0.8-2,0.8-3.2s-0.2-2.3-0.7-3.2c-0.5-0.9-1.1-1.6-1.9-2c-0.8-0.4-1.7-0.7-2.6-0.7c-0.9,0-1.8,0.2-2.6,0.7
							c-0.8,0.4-1.4,1.1-1.9,2s-0.7,2-0.7,3.2c0,1.9,0.5,3.3,1.5,4.4s2.2,1.6,3.6,1.6C451.9,85.2,452.7,85,453.5,84.5z"/>
						<path class="st0" d="M487.2,70.5l-5.4,17.5h-3.8l-3.5-13l-3.5,13H467l-5.5-17.5h3.7l3.7,14.1l3.7-14.1h3.8l3.6,14l3.6-14
							H487.2z"/>
						<path class="st0" d="M491,87.6c-0.4-0.4-0.7-1-0.7-1.7c0-0.7,0.2-1.2,0.7-1.7c0.5-0.4,1-0.7,1.7-0.7c0.6,0,1.2,0.2,1.6,0.7
							c0.4,0.4,0.7,1,0.7,1.7c0,0.7-0.2,1.2-0.7,1.7c-0.5,0.4-1,0.7-1.6,0.7C492,88.3,491.4,88.1,491,87.6z M494.4,65.9L494,81.4h-3
							l-0.4-15.4H494.4z"/>
					</g>
				</g>
				<polygon class="st1" points="534.5,77 534.5,63.9 545.8,70.4 557.2,77 545.8,83.5 534.5,90.1 				"/>
				<polygon class="st1" points="566.2,77 566.2,63.9 577.5,70.4 588.8,77 577.5,83.5 566.2,90.1 				"/>
				<polygon class="st1" points="597.9,77 597.9,63.9 609.2,70.4 620.5,77 609.2,83.5 597.9,90.1 				"/>
			</g>
			<g>
				<path class="st1" d="M1005.5,105.3l-12.2-6.4c-0.9-0.5-2-0.5-2.9,0l-13,6.8c-1.7,0.9-3.6-0.5-3.3-2.3c0,0,0,0,0,0l2.1-12.4
					l0.4-2c0.2-1-0.2-2.1-0.9-2.8l-10.5-10.2c-1.3-1.3-0.6-3.6,1.2-3.9l1.3-0.2l13.2-1.9c1-0.2,1.9-0.8,2.4-1.7l6.5-13.1
					c0.8-1.7,3.3-1.7,4.1,0l4.7,9.5l1.8,3.6c0.5,0.9,1.3,1.6,2.4,1.7l14.5,2.1c1.8,0.3,2.6,2.5,1.3,3.8c0,0,0,0.1-0.1,0.1l-7.7,7.4
					l-2.8,2.8c-0.7,0.7-1.1,1.8-0.9,2.8l2.5,14.4c0.3,1.9-1.7,3.3-3.3,2.4L1005.5,105.3"/>
				<path class="st0" d="M1020.3,60.1l-4.2-2.2c-0.3-0.2-0.7-0.2-1,0l-4.5,2.3c-0.6,0.3-1.2-0.2-1.1-0.8c0,0,0,0,0,0l0.7-4.3
					l0.1-0.7c0.1-0.3-0.1-0.7-0.3-1l-3.6-3.5c-0.5-0.5-0.2-1.2,0.4-1.3l0.5-0.1l4.5-0.7c0.4,0,0.7-0.3,0.8-0.6l2.2-4.5
					c0.3-0.6,1.1-0.6,1.4,0l1.6,3.3l0.6,1.2c0.2,0.3,0.5,0.5,0.8,0.6l5,0.7c0.6,0.1,0.9,0.9,0.5,1.3c0,0,0,0,0,0l-2.6,2.5l-1,0.9
					c-0.2,0.2-0.4,0.6-0.3,1l0.9,5c0.1,0.6-0.6,1.1-1.1,0.8L1020.3,60.1"/>
				<g>
					<path class="st0" d="M1037.1,62.7c0.8-1.4,1.9-2.5,3.3-3.2c1.4-0.8,2.9-1.2,4.6-1.2c1.9,0,3.6,0.5,5.1,1.4s2.6,2.3,3.2,4h-3.5
						c-0.5-0.9-1.1-1.6-1.9-2.1c-0.8-0.5-1.8-0.7-2.9-0.7c-1.2,0-2.2,0.3-3.2,0.8c-0.9,0.5-1.7,1.3-2.2,2.3c-0.5,1-0.8,2.1-0.8,3.5
						s0.3,2.5,0.8,3.5s1.2,1.8,2.2,2.3s2,0.8,3.2,0.8c1.1,0,2-0.2,2.9-0.7c0.8-0.5,1.5-1.2,1.9-2.1h3.5c-0.7,1.7-1.7,3-3.2,4
						c-1.5,0.9-3.2,1.4-5.1,1.4c-1.7,0-3.2-0.4-4.6-1.2s-2.5-1.9-3.3-3.2c-0.8-1.4-1.2-3-1.2-4.7
						C1035.9,65.7,1036.3,64.1,1037.1,62.7z"/>
					<path class="st0" d="M1059.3,75.7c-1.1-0.6-1.9-1.5-2.6-2.6s-0.9-2.4-0.9-3.8c0-1.4,0.3-2.7,0.9-3.8c0.6-1.1,1.5-2,2.6-2.6
						s2.3-0.9,3.7-0.9c1.4,0,2.6,0.3,3.7,0.9c1.1,0.6,2,1.5,2.6,2.6s0.9,2.4,0.9,3.8s-0.3,2.7-1,3.8c-0.7,1.1-1.5,2-2.7,2.6
						c-1.1,0.6-2.4,0.9-3.7,0.9C1061.6,76.6,1060.3,76.3,1059.3,75.7z M1065,73.6c0.7-0.4,1.2-0.9,1.6-1.6s0.6-1.6,0.6-2.6
						c0-1-0.2-1.9-0.6-2.6s-0.9-1.2-1.6-1.6c-0.7-0.4-1.3-0.5-2.1-0.5s-1.4,0.2-2.1,0.5c-0.6,0.4-1.2,0.9-1.5,1.6s-0.6,1.6-0.6,2.6
						c0,1.5,0.4,2.7,1.2,3.5c0.8,0.8,1.8,1.2,2.9,1.2C1063.6,74.1,1064.3,73.9,1065,73.6z"/>
					<path class="st0" d="M1093.3,62.7c0.9,0.5,1.6,1.2,2.1,2.1c0.5,0.9,0.8,2,0.8,3.3v8.4h-2.9v-7.9c0-1.3-0.3-2.2-0.9-2.9
						c-0.6-0.7-1.5-1-2.6-1s-2,0.3-2.6,1c-0.6,0.7-1,1.7-1,2.9v7.9h-2.9v-7.9c0-1.3-0.3-2.2-0.9-2.9s-1.5-1-2.6-1s-2,0.3-2.6,1
						c-0.6,0.7-1,1.7-1,2.9v7.9h-2.9V62.2h2.9v1.6c0.5-0.6,1.1-1,1.8-1.4c0.7-0.3,1.5-0.5,2.4-0.5c1.1,0,2.1,0.2,3,0.7
						c0.9,0.5,1.6,1.2,2.1,2.1c0.4-0.9,1.1-1.5,2-2c0.9-0.5,1.9-0.8,2.9-0.8C1091.4,62,1092.4,62.2,1093.3,62.7z"/>
					<path class="st0" d="M1112.8,70.4h-10.8c0.1,1.1,0.5,2,1.3,2.7s1.7,1,2.8,1c1.6,0,2.7-0.7,3.3-2h3.2c-0.4,1.3-1.2,2.4-2.3,3.2
						c-1.1,0.8-2.5,1.2-4.2,1.2c-1.3,0-2.6-0.3-3.6-0.9c-1.1-0.6-1.9-1.5-2.5-2.6s-0.9-2.4-0.9-3.8c0-1.5,0.3-2.7,0.9-3.8
						s1.4-2,2.5-2.6c1.1-0.6,2.3-0.9,3.7-0.9c1.3,0,2.5,0.3,3.6,0.9c1.1,0.6,1.9,1.4,2.4,2.5c0.6,1.1,0.9,2.3,0.9,3.6
						C1112.8,69.5,1112.8,70,1112.8,70.4z M1109.8,68.1c0-1.1-0.4-1.9-1.2-2.6c-0.8-0.7-1.7-1-2.8-1c-1,0-1.9,0.3-2.6,1
						c-0.7,0.6-1.2,1.5-1.3,2.6H1109.8z"/>
					<path class="st0" d="M1125.1,76c-1-0.4-1.7-1-2.3-1.8c-0.6-0.8-0.8-1.7-0.8-2.7h3.1c0.1,0.8,0.4,1.4,0.9,1.9
						c0.5,0.5,1.3,0.8,2.3,0.8c1,0,1.8-0.2,2.4-0.7c0.6-0.5,0.8-1.1,0.8-1.9c0-0.6-0.2-1.1-0.5-1.5c-0.3-0.4-0.8-0.7-1.3-0.9
						c-0.5-0.2-1.2-0.4-2.2-0.7c-1.2-0.3-2.1-0.6-2.8-0.9s-1.3-0.8-1.9-1.5c-0.5-0.7-0.8-1.6-0.8-2.7c0-1,0.3-1.9,0.8-2.7
						s1.2-1.4,2.2-1.8s2-0.6,3.2-0.6c1.7,0,3.2,0.4,4.3,1.3s1.7,2,1.8,3.6h-3.2c-0.1-0.7-0.4-1.2-0.9-1.7c-0.6-0.5-1.3-0.7-2.2-0.7
						c-0.8,0-1.5,0.2-2.1,0.6s-0.8,1-0.8,1.8c0,0.5,0.2,1,0.5,1.3c0.3,0.3,0.8,0.6,1.3,0.8c0.5,0.2,1.2,0.4,2.1,0.7
						c1.2,0.3,2.2,0.7,2.9,1c0.8,0.3,1.4,0.8,1.9,1.5c0.5,0.7,0.8,1.6,0.8,2.7c0,0.9-0.2,1.8-0.7,2.6c-0.5,0.8-1.2,1.4-2.1,1.9
						c-0.9,0.5-2,0.7-3.3,0.7C1127.1,76.6,1126,76.4,1125.1,76z"/>
					<path class="st0" d="M1150.8,70.4H1140c0.1,1.1,0.5,2,1.3,2.7s1.7,1,2.8,1c1.6,0,2.7-0.7,3.3-2h3.2c-0.4,1.3-1.2,2.4-2.3,3.2
						c-1.1,0.8-2.5,1.2-4.2,1.2c-1.3,0-2.6-0.3-3.6-0.9c-1.1-0.6-1.9-1.5-2.5-2.6s-0.9-2.4-0.9-3.8c0-1.5,0.3-2.7,0.9-3.8
						s1.4-2,2.5-2.6c1.1-0.6,2.3-0.9,3.7-0.9c1.3,0,2.5,0.3,3.6,0.9c1.1,0.6,1.9,1.4,2.4,2.5c0.6,1.1,0.9,2.3,0.9,3.6
						C1150.9,69.5,1150.9,70,1150.8,70.4z M1147.9,68.1c0-1.1-0.4-1.9-1.2-2.6c-0.8-0.7-1.7-1-2.8-1c-1,0-1.9,0.3-2.6,1
						c-0.7,0.6-1.2,1.5-1.3,2.6H1147.9z"/>
					<path class="st0" d="M1166.7,70.4h-10.8c0.1,1.1,0.5,2,1.3,2.7c0.8,0.7,1.7,1,2.8,1c1.6,0,2.7-0.7,3.3-2h3.2
						c-0.4,1.3-1.2,2.4-2.3,3.2c-1.1,0.8-2.5,1.2-4.2,1.2c-1.4,0-2.6-0.3-3.6-0.9c-1.1-0.6-1.9-1.5-2.5-2.6s-0.9-2.4-0.9-3.8
						c0-1.5,0.3-2.7,0.9-3.8s1.4-2,2.5-2.6c1.1-0.6,2.3-0.9,3.7-0.9c1.3,0,2.5,0.3,3.6,0.9c1.1,0.6,1.9,1.4,2.4,2.5
						c0.6,1.1,0.9,2.3,0.9,3.6C1166.8,69.5,1166.8,70,1166.7,70.4z M1163.8,68.1c0-1.1-0.4-1.9-1.2-2.6c-0.8-0.7-1.7-1-2.8-1
						c-1,0-1.9,0.3-2.6,1c-0.7,0.6-1.2,1.5-1.3,2.6H1163.8z"/>
					<path class="st0" d="M1189.2,62.2v14.2h-2.9v-1.7c-0.5,0.6-1.1,1-1.8,1.4c-0.8,0.3-1.5,0.5-2.4,0.5c-1.1,0-2.1-0.2-3-0.7
						s-1.6-1.2-2.1-2.1c-0.5-0.9-0.8-2-0.8-3.3v-8.3h2.9v7.9c0,1.3,0.3,2.2,0.9,2.9s1.5,1,2.6,1s2-0.3,2.6-1c0.6-0.7,1-1.7,1-2.9
						v-7.9L1189.2,62.2L1189.2,62.2z"/>
					<path class="st0" d="M1195.2,76c-0.9-0.4-1.6-0.9-2.1-1.7c-0.5-0.7-0.8-1.5-0.8-2.3h3c0.1,0.6,0.3,1.1,0.9,1.5s1.2,0.6,2,0.6
						c0.8,0,1.5-0.2,1.9-0.5c0.4-0.3,0.7-0.7,0.7-1.2c0-0.5-0.2-0.9-0.8-1.2c-0.5-0.3-1.3-0.5-2.4-0.8c-1.1-0.3-1.9-0.6-2.6-0.8
						c-0.7-0.3-1.2-0.7-1.7-1.3c-0.5-0.6-0.7-1.3-0.7-2.2c0-0.8,0.2-1.4,0.7-2.1c0.4-0.6,1.1-1.1,1.9-1.5c0.8-0.4,1.8-0.5,2.9-0.5
						c1.6,0,2.9,0.4,3.9,1.2c1,0.8,1.5,1.9,1.6,3.3h-2.9c-0.1-0.6-0.3-1.1-0.8-1.5s-1.1-0.6-1.9-0.6c-0.8,0-1.4,0.2-1.8,0.4
						s-0.6,0.7-0.6,1.2c0,0.4,0.1,0.7,0.4,0.9c0.3,0.3,0.6,0.5,1,0.6c0.4,0.2,1,0.3,1.8,0.6c1,0.3,1.9,0.6,2.5,0.8
						c0.7,0.3,1.2,0.7,1.7,1.2s0.7,1.3,0.8,2.2c0,0.8-0.2,1.5-0.7,2.2c-0.4,0.6-1.1,1.1-1.9,1.5s-1.8,0.5-2.9,0.5
						C1197.1,76.6,1196.1,76.4,1195.2,76z"/>
					<path class="st0" d="M1213.4,65.5c0.6-1.1,1.4-2,2.4-2.6s2.2-0.9,3.4-0.9c1.1,0,2.1,0.2,2.9,0.7c0.8,0.4,1.5,1,2,1.6v-2.1h3
						v14.2h-3v-2.1c-0.5,0.7-1.2,1.2-2,1.7c-0.9,0.4-1.8,0.7-2.9,0.7c-1.2,0-2.3-0.3-3.3-0.9c-1-0.6-1.8-1.5-2.4-2.6
						c-0.6-1.1-0.9-2.4-0.9-3.8S1212.8,66.6,1213.4,65.5z M1223.5,66.8c-0.4-0.7-0.9-1.3-1.6-1.6c-0.7-0.4-1.4-0.6-2.1-0.6
						s-1.5,0.2-2.1,0.6s-1.2,0.9-1.6,1.6c-0.4,0.7-0.6,1.6-0.6,2.5s0.2,1.8,0.6,2.6c0.4,0.7,0.9,1.3,1.6,1.7
						c0.7,0.4,1.4,0.6,2.1,0.6c0.8,0,1.5-0.2,2.1-0.6s1.2-0.9,1.6-1.7c0.4-0.7,0.6-1.6,0.6-2.6C1224.1,68.3,1223.9,67.5,1223.5,66.8
						z"/>
					<path class="st0" d="M1234.3,64.6v7.8c0,0.5,0.1,0.9,0.4,1.2s0.7,0.3,1.3,0.3h1.8v2.4h-2.3c-1.3,0-2.3-0.3-3-0.9
						c-0.7-0.6-1.1-1.6-1.1-3v-7.8h-1.7v-2.4h1.7v-3.5h3v3.5h3.4v2.4C1237.8,64.6,1234.3,64.6,1234.3,64.6z"/>
					<path class="st0" d="M1240.3,65.2c-0.4-0.4-0.5-0.8-0.5-1.3c0-0.5,0.2-1,0.5-1.3s0.8-0.5,1.3-0.5c0.5,0,0.9,0.2,1.3,0.5
						c0.4,0.4,0.5,0.8,0.5,1.3c0,0.5-0.2,1-0.5,1.3s-0.8,0.5-1.3,0.5C1241.1,65.8,1240.7,65.6,1240.3,65.2z M1240.3,76.1
						c-0.4-0.4-0.5-0.8-0.5-1.3c0-0.5,0.2-1,0.5-1.3c0.4-0.4,0.8-0.5,1.3-0.5c0.5,0,0.9,0.2,1.3,0.5c0.4,0.4,0.5,0.8,0.5,1.3
						s-0.2,1-0.5,1.3c-0.4,0.4-0.8,0.5-1.3,0.5C1241.1,76.6,1240.7,76.4,1240.3,76.1z"/>
				</g>
				<g>
					<path class="st1" d="M1037.1,88.1c0.8-1.4,1.9-2.5,3.3-3.2c1.4-0.8,2.9-1.2,4.6-1.2c1.9,0,3.6,0.5,5.1,1.4s2.6,2.3,3.2,4h-3.5
						c-0.5-0.9-1.1-1.6-1.9-2.1c-0.8-0.5-1.8-0.7-2.9-0.7c-1.2,0-2.2,0.3-3.2,0.8c-0.9,0.5-1.7,1.3-2.2,2.3c-0.5,1-0.8,2.2-0.8,3.5
						s0.3,2.5,0.8,3.5s1.2,1.8,2.2,2.3s2,0.8,3.2,0.8c1.1,0,2-0.2,2.9-0.7s1.5-1.2,1.9-2.1h3.5c-0.7,1.7-1.7,3-3.2,4
						c-1.5,0.9-3.2,1.4-5.1,1.4c-1.7,0-3.2-0.4-4.6-1.2s-2.5-1.9-3.3-3.2c-0.8-1.4-1.2-3-1.2-4.7C1035.9,91,1036.3,89.5,1037.1,88.1
						z"/>
					<path class="st1" d="M1059.3,101.1c-1.1-0.6-1.9-1.5-2.6-2.6s-0.9-2.4-0.9-3.8c0-1.4,0.3-2.7,0.9-3.8c0.6-1.1,1.5-2,2.6-2.6
						s2.3-0.9,3.7-0.9c1.4,0,2.6,0.3,3.7,0.9c1.1,0.6,2,1.5,2.6,2.6s0.9,2.4,0.9,3.8s-0.3,2.7-1,3.8c-0.7,1.1-1.5,2-2.7,2.6
						c-1.1,0.6-2.4,0.9-3.7,0.9C1061.6,102,1060.3,101.7,1059.3,101.1z M1065,98.9c0.7-0.4,1.2-0.9,1.6-1.6s0.6-1.6,0.6-2.6
						c0-1-0.2-1.9-0.6-2.6s-0.9-1.2-1.6-1.6c-0.7-0.4-1.3-0.5-2.1-0.5s-1.4,0.2-2.1,0.5c-0.6,0.4-1.2,0.9-1.5,1.6s-0.6,1.6-0.6,2.6
						c0,1.5,0.4,2.7,1.2,3.5c0.8,0.8,1.8,1.2,2.9,1.2C1063.6,99.4,1064.3,99.3,1065,98.9z"/>
					<path class="st1" d="M1093.3,88c0.9,0.5,1.6,1.2,2.1,2.1c0.5,0.9,0.8,2,0.8,3.3v8.4h-2.9v-7.9c0-1.3-0.3-2.2-0.9-2.9
						c-0.6-0.7-1.5-1-2.6-1s-2,0.3-2.6,1c-0.6,0.7-1,1.7-1,2.9v7.9h-2.9v-7.9c0-1.3-0.3-2.2-0.9-2.9s-1.5-1-2.6-1s-2,0.3-2.6,1
						c-0.6,0.7-1,1.7-1,2.9v7.9h-2.9V87.6h2.9v1.6c0.5-0.6,1.1-1,1.8-1.4c0.7-0.3,1.5-0.5,2.4-0.5c1.1,0,2.1,0.2,3,0.7
						c0.9,0.5,1.6,1.2,2.1,2.1c0.4-0.9,1.1-1.5,2-2c0.9-0.5,1.9-0.8,2.9-0.8C1091.4,87.3,1092.4,87.6,1093.3,88z"/>
					<path class="st1" d="M1112.8,95.8h-10.8c0.1,1.1,0.5,2,1.3,2.7s1.7,1,2.8,1c1.6,0,2.7-0.7,3.3-2h3.2c-0.4,1.3-1.2,2.4-2.3,3.2
						c-1.1,0.8-2.5,1.2-4.2,1.2c-1.3,0-2.6-0.3-3.6-0.9c-1.1-0.6-1.9-1.5-2.5-2.6s-0.9-2.4-0.9-3.8c0-1.5,0.3-2.7,0.9-3.8
						s1.4-2,2.5-2.6s2.3-0.9,3.7-0.9c1.3,0,2.5,0.3,3.6,0.9c1.1,0.6,1.9,1.4,2.4,2.5c0.6,1.1,0.9,2.3,0.9,3.6
						C1112.8,94.8,1112.8,95.3,1112.8,95.8z M1109.8,93.4c0-1.1-0.4-1.9-1.2-2.6s-1.7-1-2.8-1c-1,0-1.9,0.3-2.6,1
						c-0.7,0.6-1.2,1.5-1.3,2.6H1109.8z"/>
					<path class="st1" d="M1125.1,101.3c-1-0.4-1.7-1-2.3-1.8c-0.6-0.8-0.8-1.7-0.8-2.7h3.1c0.1,0.8,0.4,1.4,0.9,1.9
						c0.5,0.5,1.3,0.8,2.3,0.8c1,0,1.8-0.2,2.4-0.7c0.6-0.5,0.8-1.1,0.8-1.9c0-0.6-0.2-1.1-0.5-1.5c-0.3-0.4-0.8-0.7-1.3-0.9
						c-0.5-0.2-1.2-0.4-2.2-0.7c-1.2-0.3-2.1-0.6-2.8-0.9s-1.3-0.8-1.9-1.5c-0.5-0.7-0.8-1.6-0.8-2.7c0-1,0.3-1.9,0.8-2.7
						s1.2-1.4,2.2-1.8c0.9-0.4,2-0.6,3.2-0.6c1.7,0,3.2,0.4,4.3,1.3s1.7,2.1,1.8,3.6h-3.2c-0.1-0.7-0.4-1.2-0.9-1.7
						c-0.6-0.5-1.3-0.7-2.2-0.7c-0.8,0-1.5,0.2-2.1,0.6s-0.8,1.1-0.8,1.8c0,0.6,0.2,1,0.5,1.3c0.3,0.3,0.8,0.6,1.3,0.8
						c0.5,0.2,1.2,0.4,2.1,0.7c1.2,0.3,2.2,0.7,2.9,1c0.8,0.3,1.4,0.8,1.9,1.5c0.5,0.7,0.8,1.6,0.8,2.7c0,0.9-0.2,1.8-0.7,2.6
						c-0.5,0.8-1.2,1.4-2.1,1.9c-0.9,0.5-2,0.7-3.3,0.7C1127.1,101.9,1126,101.7,1125.1,101.3z"/>
					<path class="st1" d="M1150.8,95.8H1140c0.1,1.1,0.5,2,1.3,2.7s1.7,1,2.8,1c1.6,0,2.7-0.7,3.3-2h3.2c-0.4,1.3-1.2,2.4-2.3,3.2
						c-1.1,0.8-2.5,1.2-4.2,1.2c-1.3,0-2.6-0.3-3.6-0.9c-1.1-0.6-1.9-1.5-2.5-2.6s-0.9-2.4-0.9-3.8c0-1.5,0.3-2.7,0.9-3.8
						s1.4-2,2.5-2.6s2.3-0.9,3.7-0.9c1.3,0,2.5,0.3,3.6,0.9c1.1,0.6,1.9,1.4,2.4,2.5c0.6,1.1,0.9,2.3,0.9,3.6
						C1150.9,94.8,1150.9,95.3,1150.8,95.8z M1147.9,93.4c0-1.1-0.4-1.9-1.2-2.6s-1.7-1-2.8-1c-1,0-1.9,0.3-2.6,1
						c-0.7,0.6-1.2,1.5-1.3,2.6H1147.9z"/>
					<path class="st1" d="M1166.7,95.8h-10.8c0.1,1.1,0.5,2,1.3,2.7c0.8,0.7,1.7,1,2.8,1c1.6,0,2.7-0.7,3.3-2h3.2
						c-0.4,1.3-1.2,2.4-2.3,3.2c-1.1,0.8-2.5,1.2-4.2,1.2c-1.4,0-2.6-0.3-3.6-0.9c-1.1-0.6-1.9-1.5-2.5-2.6s-0.9-2.4-0.9-3.8
						c0-1.5,0.3-2.7,0.9-3.8s1.4-2,2.5-2.6s2.3-0.9,3.7-0.9c1.3,0,2.5,0.3,3.6,0.9c1.1,0.6,1.9,1.4,2.4,2.5c0.6,1.1,0.9,2.3,0.9,3.6
						C1166.8,94.8,1166.8,95.3,1166.7,95.8z M1163.8,93.4c0-1.1-0.4-1.9-1.2-2.6s-1.7-1-2.8-1c-1,0-1.9,0.3-2.6,1
						c-0.7,0.6-1.2,1.5-1.3,2.6H1163.8z"/>
					<path class="st1" d="M1189.2,87.6v14.2h-2.9v-1.7c-0.5,0.6-1.1,1-1.8,1.4c-0.8,0.3-1.5,0.5-2.4,0.5c-1.1,0-2.1-0.2-3-0.7
						s-1.6-1.2-2.1-2.1c-0.5-0.9-0.8-2-0.8-3.3v-8.3h2.9v7.9c0,1.3,0.3,2.2,0.9,2.9c0.6,0.7,1.5,1,2.6,1s2-0.3,2.6-1
						c0.6-0.7,1-1.7,1-2.9v-7.9L1189.2,87.6L1189.2,87.6z"/>
					<path class="st1" d="M1195.2,101.4c-0.9-0.4-1.6-0.9-2.1-1.7c-0.5-0.7-0.8-1.5-0.8-2.3h3c0.1,0.6,0.3,1.1,0.9,1.5
						s1.2,0.6,2,0.6c0.8,0,1.5-0.2,1.9-0.5c0.4-0.3,0.7-0.7,0.7-1.2c0-0.5-0.2-0.9-0.8-1.2c-0.5-0.3-1.3-0.5-2.4-0.8
						c-1.1-0.3-1.9-0.6-2.6-0.8s-1.2-0.7-1.7-1.3c-0.5-0.6-0.7-1.3-0.7-2.2c0-0.8,0.2-1.4,0.7-2.1c0.4-0.6,1.1-1.1,1.9-1.5
						c0.8-0.4,1.8-0.5,2.9-0.5c1.6,0,2.9,0.4,3.9,1.2c1,0.8,1.5,1.9,1.6,3.3h-2.9c-0.1-0.6-0.3-1.1-0.8-1.5s-1.1-0.6-1.9-0.6
						c-0.8,0-1.4,0.2-1.8,0.4s-0.6,0.7-0.6,1.2c0,0.4,0.1,0.7,0.4,0.9c0.3,0.3,0.6,0.5,1,0.6c0.4,0.2,1,0.3,1.8,0.6
						c1,0.3,1.9,0.6,2.5,0.8c0.7,0.3,1.2,0.7,1.7,1.2s0.7,1.3,0.8,2.2c0,0.8-0.2,1.5-0.7,2.2c-0.4,0.6-1.1,1.1-1.9,1.5
						s-1.8,0.5-2.9,0.5C1197.1,102,1196.1,101.8,1195.2,101.4z"/>
					<path class="st1" d="M1213.4,90.8c0.6-1.1,1.4-1.9,2.4-2.6s2.2-0.9,3.4-0.9c1.1,0,2.1,0.2,2.9,0.7c0.8,0.4,1.5,1,2,1.6v-2.1h3
						v14.2h-3v-2.1c-0.5,0.7-1.2,1.2-2,1.7c-0.9,0.4-1.8,0.7-2.9,0.7c-1.2,0-2.3-0.3-3.3-0.9c-1-0.6-1.8-1.5-2.4-2.6
						c-0.6-1.1-0.9-2.4-0.9-3.8S1212.8,91.9,1213.4,90.8z M1223.5,92.1c-0.4-0.7-0.9-1.3-1.6-1.6c-0.7-0.4-1.4-0.6-2.1-0.6
						s-1.5,0.2-2.1,0.6s-1.2,0.9-1.6,1.6c-0.4,0.7-0.6,1.6-0.6,2.5s0.2,1.8,0.6,2.6c0.4,0.7,0.9,1.3,1.6,1.7
						c0.7,0.4,1.4,0.6,2.1,0.6c0.8,0,1.5-0.2,2.1-0.6s1.2-0.9,1.6-1.7c0.4-0.7,0.6-1.6,0.6-2.6C1224.1,93.7,1223.9,92.8,1223.5,92.1
						z"/>
					<path class="st1" d="M1234.3,90v7.8c0,0.5,0.1,0.9,0.4,1.2s0.7,0.3,1.3,0.3h1.8v2.4h-2.3c-1.3,0-2.3-0.3-3-0.9
						c-0.7-0.6-1.1-1.6-1.1-3V90h-1.7v-2.4h1.7v-3.5h3v3.5h3.4V90H1234.3z"/>
					<path class="st1" d="M1240.3,90.6c-0.4-0.4-0.5-0.8-0.5-1.3c0-0.5,0.2-1,0.5-1.3c0.4-0.4,0.8-0.5,1.3-0.5
						c0.5,0,0.9,0.2,1.3,0.5c0.4,0.4,0.5,0.8,0.5,1.3c0,0.5-0.2,1-0.5,1.3c-0.4,0.4-0.8,0.5-1.3,0.5
						C1241.1,91.1,1240.7,90.9,1240.3,90.6z M1240.3,101.4c-0.4-0.4-0.5-0.8-0.5-1.3c0-0.5,0.2-1,0.5-1.3c0.4-0.4,0.8-0.5,1.3-0.5
						c0.5,0,0.9,0.2,1.3,0.5c0.4,0.4,0.5,0.8,0.5,1.3s-0.2,1-0.5,1.3c-0.4,0.4-0.8,0.5-1.3,0.5
						C1241.1,101.9,1240.7,101.8,1240.3,101.4z"/>
				</g>
			</g>
			<g>
				<g>
					<path class="st0" d="M1282.2,99.6c0.6,0.8,0.9,1.6,0.9,2.6c0,0.8-0.2,1.6-0.6,2.2s-1,1.2-1.8,1.6c-0.8,0.4-1.8,0.6-2.8,0.6
						h-6.5V90.3h6.2c1.1,0,2.1,0.2,2.8,0.6c0.8,0.4,1.4,0.9,1.8,1.5s0.6,1.3,0.6,2.1c0,0.9-0.2,1.7-0.7,2.3c-0.5,0.6-1.2,1.1-2,1.4
						C1280.8,98.4,1281.6,98.8,1282.2,99.6z M1273.9,97.1h3.3c0.9,0,1.6-0.2,2-0.6c0.5-0.4,0.7-1,0.7-1.7c0-0.7-0.2-1.3-0.7-1.7
						c-0.5-0.4-1.2-0.6-2-0.6h-3.3V97.1z M1279.6,103.7c0.5-0.4,0.8-1,0.8-1.8c0-0.8-0.3-1.4-0.8-1.9c-0.5-0.5-1.3-0.7-2.2-0.7h-3.5
						v5.1h3.6C1278.4,104.3,1279.1,104.1,1279.6,103.7z"/>
					<path class="st0" d="M1288.2,105.9c-1-0.6-1.8-1.3-2.3-2.3s-0.8-2.2-0.8-3.5c0-1.3,0.3-2.5,0.9-3.5s1.4-1.8,2.3-2.3
						s2.1-0.8,3.3-0.8s2.3,0.3,3.3,0.8c1,0.5,1.8,1.3,2.3,2.3s0.9,2.2,0.9,3.5s-0.3,2.5-0.9,3.5s-1.4,1.8-2.4,2.3
						c-1,0.6-2.1,0.8-3.4,0.8C1290.3,106.7,1289.2,106.4,1288.2,105.9z M1293.4,103.9c0.6-0.3,1.1-0.8,1.5-1.5
						c0.4-0.7,0.6-1.4,0.6-2.4s-0.2-1.7-0.5-2.4s-0.8-1.1-1.4-1.5c-0.6-0.3-1.2-0.5-1.9-0.5s-1.3,0.2-1.9,0.5
						c-0.6,0.3-1,0.8-1.4,1.5c-0.3,0.6-0.5,1.4-0.5,2.4c0,1.4,0.3,2.4,1.1,3.2c0.7,0.8,1.6,1.1,2.7,1.1
						C1292.2,104.4,1292.8,104.3,1293.4,103.9z"/>
					<path class="st0" d="M1303.1,105.9c-1-0.6-1.8-1.3-2.3-2.3c-0.6-1-0.8-2.2-0.8-3.5c0-1.3,0.3-2.5,0.9-3.5s1.4-1.8,2.3-2.3
						s2.1-0.8,3.3-0.8s2.3,0.3,3.3,0.8c1,0.5,1.8,1.3,2.3,2.3s0.9,2.2,0.9,3.5s-0.3,2.5-0.9,3.5s-1.4,1.8-2.4,2.3
						c-1,0.6-2.1,0.8-3.4,0.8C1305.2,106.7,1304.1,106.4,1303.1,105.9z M1308.3,103.9c0.6-0.3,1.1-0.8,1.5-1.5
						c0.4-0.7,0.6-1.4,0.6-2.4s-0.2-1.7-0.5-2.4c-0.4-0.6-0.8-1.1-1.4-1.5c-0.6-0.3-1.2-0.5-1.9-0.5s-1.3,0.2-1.9,0.5
						c-0.6,0.3-1,0.8-1.4,1.5c-0.3,0.6-0.5,1.4-0.5,2.4c0,1.4,0.3,2.4,1.1,3.2c0.7,0.8,1.6,1.1,2.7,1.1
						C1307.1,104.4,1307.7,104.3,1308.3,103.9z"/>
					<path class="st0" d="M1318.8,95.8v7.1c0,0.5,0.1,0.8,0.3,1c0.2,0.2,0.6,0.3,1.2,0.3h1.6v2.2h-2.1c-1.2,0-2.1-0.3-2.8-0.8
						s-0.9-1.5-0.9-2.7v-7.1h-1.5v-2.2h1.5v-3.2h2.7v3.2h3.1v2.2L1318.8,95.8L1318.8,95.8z"/>
					<path class="st0" d="M1333.6,94.1c0.8,0.4,1.4,1,1.8,1.9c0.4,0.8,0.7,1.8,0.7,3v7.6h-2.6v-7.2c0-1.2-0.3-2-0.9-2.6
						s-1.4-0.9-2.3-0.9s-1.8,0.3-2.4,0.9s-0.9,1.5-0.9,2.6v7.2h-2.7V89.3h2.7v5.9c0.4-0.5,1-1,1.7-1.3c0.7-0.3,1.4-0.4,2.3-0.4
						C1331.9,93.5,1332.8,93.7,1333.6,94.1z"/>
					<path class="st1" d="M1361.1,88.5h-9.7v4.3c0.4-0.4,1-0.8,1.7-1.1c0.7-0.3,1.6-0.4,2.4-0.4c1.6,0,2.8,0.3,3.9,1.1
						c1,0.7,1.8,1.6,2.2,2.7s0.7,2.3,0.7,3.6c0,2.4-0.7,4.3-2.1,5.8c-1.4,1.4-3.3,2.1-5.8,2.1c-1.7,0-3.1-0.3-4.3-0.8
						c-1.2-0.6-2.2-1.4-2.8-2.4c-0.7-1-1-2.2-1.1-3.5h5.2c0.1,0.6,0.4,1.2,0.9,1.6s1.1,0.6,2,0.6c1,0,1.7-0.3,2.2-0.9
						c0.5-0.6,0.7-1.4,0.7-2.5c0-1-0.2-1.8-0.8-2.3s-1.2-0.8-2.2-0.8c-0.7,0-1.3,0.2-1.7,0.5c-0.4,0.3-0.8,0.8-0.9,1.3h-5.1V83.8
						h14.5L1361.1,88.5L1361.1,88.5z"/>
					<path class="st1" d="M1367.7,85.1c1.4-1.2,3.2-1.8,5.6-1.8c1.6,0,2.9,0.3,4,0.8s1.9,1.3,2.5,2.2c0.6,0.9,0.8,2,0.8,3.1
						c0,1.4-0.3,2.5-1,3.3c-0.7,0.9-1.5,1.4-2.4,1.8v0.1c1.2,0.4,2.1,1.1,2.8,2c0.7,0.9,1,2.1,1,3.5c0,1.3-0.3,2.4-0.9,3.4
						s-1.4,1.8-2.6,2.3s-2.5,0.8-4,0.8c-2.5,0-4.5-0.6-5.9-1.8s-2.3-3.1-2.3-5.5h5.2c0,0.9,0.3,1.6,0.8,2.2c0.5,0.5,1.2,0.8,2.2,0.8
						c0.8,0,1.4-0.2,1.9-0.7c0.4-0.5,0.7-1.1,0.7-1.8c0-1-0.3-1.7-0.9-2.2c-0.6-0.4-1.6-0.7-3-0.7h-1v-4.3h1c1.1,0,1.9-0.2,2.6-0.5
						s1-1,1-1.9c0-0.7-0.2-1.3-0.6-1.7c-0.4-0.4-1-0.6-1.7-0.6c-0.8,0-1.4,0.2-1.8,0.7c-0.4,0.5-0.6,1.1-0.7,1.8h-5.2
						C1365.6,88,1366.3,86.3,1367.7,85.1z"/>
					<path class="st1" d="M1384.2,102.5v-4.3l9.8-14h5.9v13.7h2.6v4.6h-2.6v4h-5.3v-4C1394.7,102.5,1384.2,102.5,1384.2,102.5z
						 M1395.1,90l-5.2,7.9h5.2V90z"/>
				</g>
				<g>
					<path class="st1" d="M1282.2,67.7c-0.6-0.8-1.3-1.2-2.2-1.4c0.8-0.3,1.5-0.8,2-1.4s0.7-1.4,0.7-2.3c0-0.8-0.2-1.5-0.6-2.1
						c-0.4-0.6-1-1.1-1.8-1.5c-0.8-0.4-1.8-0.6-2.8-0.6h-6.2v16.2h6.5c1.1,0,2-0.2,2.8-0.6c0.8-0.4,1.4-0.9,1.9-1.6
						c0.4-0.7,0.6-1.4,0.6-2.2C1283.2,69.3,1282.8,68.4,1282.2,67.7z M1274,60.6h3.3c0.9,0,1.6,0.2,2,0.6c0.5,0.4,0.7,1,0.7,1.7
						s-0.2,1.3-0.7,1.7c-0.5,0.4-1.2,0.6-2,0.6h-3.3V60.6z M1279.7,71.8c-0.5,0.4-1.2,0.7-2.1,0.7h-3.6v-5.1h3.5
						c0.9,0,1.6,0.2,2.2,0.7c0.5,0.5,0.8,1.1,0.8,1.9C1280.5,70.8,1280.2,71.4,1279.7,71.8z"/>
					<path class="st1" d="M1297.4,64.7c-0.6-1-1.4-1.8-2.3-2.3s-2.1-0.8-3.3-0.8s-2.3,0.3-3.3,0.8c-1,0.5-1.8,1.3-2.4,2.3
						c-0.6,1-0.8,2.2-0.8,3.5c0,1.3,0.3,2.5,0.8,3.5c0.6,1,1.3,1.8,2.3,2.3c1,0.6,2.1,0.8,3.3,0.8c1.2,0,2.3-0.3,3.4-0.8
						c1-0.5,1.8-1.3,2.4-2.3c0.6-1,0.9-2.2,0.9-3.5C1298.2,66.9,1298,65.7,1297.4,64.7z M1295,70.6c-0.4,0.7-0.8,1.1-1.5,1.5
						c-0.6,0.3-1.2,0.5-1.9,0.5c-1.1,0-2-0.4-2.7-1.1c-0.7-0.8-1.1-1.8-1.1-3.2c0-0.9,0.2-1.7,0.5-2.4c0.3-0.6,0.8-1.1,1.4-1.5
						s1.2-0.5,1.9-0.5s1.3,0.2,1.9,0.5c0.6,0.3,1.1,0.8,1.4,1.5c0.4,0.6,0.5,1.4,0.5,2.4C1295.5,69.1,1295.3,69.9,1295,70.6z"/>
					<path class="st1" d="M1312.3,64.7c-0.6-1-1.4-1.8-2.4-2.3c-1-0.5-2.1-0.8-3.3-0.8s-2.3,0.3-3.3,0.8c-1,0.5-1.8,1.3-2.3,2.3
						s-0.8,2.2-0.8,3.5c0,1.3,0.3,2.5,0.8,3.5c0.6,1,1.3,1.8,2.3,2.3c1,0.6,2.1,0.8,3.3,0.8s2.3-0.3,3.4-0.8c1-0.5,1.8-1.3,2.4-2.3
						c0.6-1,0.9-2.2,0.9-3.5C1313.1,66.9,1312.8,65.7,1312.3,64.7z M1309.8,70.6c-0.4,0.7-0.8,1.1-1.5,1.5c-0.6,0.3-1.2,0.5-1.9,0.5
						c-1.1,0-2-0.4-2.7-1.1c-0.7-0.8-1.1-1.8-1.1-3.2c0-0.9,0.2-1.7,0.5-2.4c0.3-0.6,0.8-1.1,1.4-1.5c0.6-0.3,1.2-0.5,1.9-0.5
						c0.7,0,1.3,0.2,1.9,0.5c0.6,0.3,1.1,0.8,1.4,1.5c0.3,0.6,0.5,1.4,0.5,2.4C1310.4,69.1,1310.2,69.9,1309.8,70.6z"/>
					<path class="st1" d="M1322,64v-2.2h-3.1v-3.2h-2.7v3.2h-1.5v2.2h1.5V71c0,1.2,0.3,2.2,0.9,2.7c0.6,0.6,1.6,0.8,2.8,0.8h2.1
						v-2.2h-1.6c-0.5,0-0.9-0.1-1.2-0.3c-0.2-0.2-0.3-0.6-0.3-1V64C1318.8,64,1322,64,1322,64z"/>
					<path class="st1" d="M1335.5,64.1c-0.4-0.8-1.1-1.5-1.8-1.9c-0.8-0.4-1.7-0.6-2.6-0.6c-0.8,0-1.6,0.2-2.3,0.5
						c-0.7,0.3-1.3,0.7-1.7,1.3v-5.9h-2.7v17.2h2.7v-7.2c0-1.2,0.3-2,0.9-2.7c0.6-0.6,1.4-0.9,2.4-0.9c1,0,1.8,0.3,2.3,0.9
						c0.6,0.6,0.8,1.5,0.8,2.7v7.2h2.6V67C1336.2,65.9,1335.9,64.9,1335.5,64.1z"/>
					<path class="st0" d="M1361.8,63.1c-0.5-1.1-1.2-2-2.2-2.7c-1-0.7-2.3-1.1-3.9-1.1c-0.9,0-1.7,0.2-2.4,0.5
						c-0.8,0.3-1.3,0.7-1.8,1.1v-4.3h9.7v-4.7h-14.5v13.5h5.1c0.1-0.6,0.4-1,0.9-1.4c0.5-0.3,1.1-0.5,1.8-0.5c0.9,0,1.7,0.3,2.2,0.8
						c0.5,0.5,0.7,1.3,0.7,2.3c0,1.1-0.2,1.9-0.7,2.5c-0.5,0.6-1.2,0.9-2.2,0.9c-0.8,0-1.5-0.2-1.9-0.6c-0.5-0.4-0.8-0.9-0.9-1.6
						h-5.2c0.1,1.3,0.4,2.5,1.1,3.5c0.7,1,1.6,1.8,2.8,2.4c1.2,0.6,2.7,0.8,4.3,0.8c2.5,0,4.4-0.7,5.8-2.1c1.4-1.4,2-3.3,2-5.8
						C1362.5,65.4,1362.3,64.2,1361.8,63.1z"/>
					<path class="st0" d="M1380.1,64.7c-0.7-0.9-1.6-1.5-2.8-1.9v-0.1c0.9-0.3,1.7-0.9,2.4-1.8c0.7-0.8,1-2,1-3.3
						c0-1.2-0.3-2.2-0.8-3.1c-0.6-0.9-1.4-1.7-2.5-2.2c-0.9-0.5-1.9-0.7-3.1-0.8c-0.3,0-0.5,0-0.8,0c-0.4,0-0.8,0-1.1,0.1
						c-1.8,0.2-3.3,0.7-4.5,1.8c-1.4,1.2-2.1,2.9-2.2,5.1h5.2c0.1-0.7,0.3-1.3,0.7-1.8c0.2-0.2,0.5-0.5,0.8-0.6
						c0.3-0.1,0.6-0.2,1-0.2s0.7,0.1,1,0.2c0.3,0.1,0.5,0.3,0.7,0.5c0.4,0.4,0.6,1,0.6,1.7c0,0.9-0.3,1.6-1,1.9
						c-0.1,0.1-0.2,0.1-0.4,0.2c-0.5,0.2-1.2,0.3-1.9,0.3c-0.1,0-0.2,0-0.2,0h-1V65h1.2c0.8,0,1.4,0.1,1.9,0.3
						c0.3,0.1,0.6,0.2,0.8,0.4c0.6,0.4,0.9,1.2,0.9,2.2c0,0.8-0.2,1.4-0.7,1.9c-0.3,0.3-0.7,0.5-1.1,0.6c-0.2,0.1-0.5,0.1-0.8,0.1
						c-0.4,0-0.8-0.1-1.2-0.2c-0.4-0.1-0.7-0.3-1-0.6c-0.5-0.5-0.7-1.2-0.8-2.2h-5.1c0.1,2.5,0.8,4.3,2.3,5.5c1.2,1,2.7,1.6,4.6,1.8
						c0.4,0.1,0.9,0.1,1.4,0.1c0.2,0,0.4,0,0.6,0c1.3-0.1,2.5-0.3,3.4-0.8c1.1-0.6,2-1.3,2.6-2.3c0.6-1,0.9-2.1,0.9-3.4
						C1381.1,66.8,1380.8,65.6,1380.1,64.7z"/>
					<path class="st0" d="M1399.1,61.8c-1.2-1.3-2.9-1.9-4.9-1.9c-1.1,0-2,0.2-2.8,0.6c-0.8,0.4-1.5,1-2,1.7c0-2.2,0.3-3.8,0.8-4.9
						c0.5-1,1.4-1.5,2.5-1.5c0.8,0,1.4,0.2,1.8,0.6c0.4,0.4,0.7,1,0.9,1.7h4.9c-0.1-1.2-0.4-2.2-1-3.3c-0.5-1-1.4-1.8-2.4-2.4
						c-1.1-0.6-2.4-0.9-3.9-0.9c-2.9,0-5,1-6.3,2.9c-1.3,1.9-2,4.8-2,8.8c0,3.8,0.6,6.6,1.9,8.6s3.4,3,6.6,3c1.6,0,3-0.3,4.2-1
						s2.1-1.5,2.7-2.7c0.6-1.1,0.9-2.5,0.9-4C1401,64.8,1400.3,63,1399.1,61.8z M1395.2,69.4c-0.5,0.5-1.2,0.8-2.2,0.8
						c-1,0-1.8-0.3-2.3-0.8c-0.5-0.5-0.8-1.3-0.8-2.3c0-1,0.3-1.7,0.9-2.2c0.6-0.5,1.3-0.8,2.2-0.8c1,0,1.7,0.3,2.2,0.8
						c0.5,0.6,0.8,1.3,0.8,2.3C1396,68.1,1395.7,68.9,1395.2,69.4z"/>
				</g>
			</g>
			<g>
				<g>
					<path class="st2" d="M696.3,76.9c5,0,10,0,15,0c1.3,0,1.7,0.3,1.7,1.7c-0.1,9.4,0,18.8,0,28.1c0,3.8-2.6,6.4-6.3,6.4
						c-3.7,0.1-6.4-2.6-6.5-6.4c0-4.9-0.1-9.9,0-14.8c0-1.3-0.4-1.6-1.6-1.6c-5.6,0.1-11.2,0-16.7,0c-3.8,0-6.5-2.8-6.5-6.7
						c0-3.9,2.6-6.7,6.4-6.7C686.7,76.9,691.5,76.9,696.3,76.9C696.3,76.9,696.3,76.9,696.3,76.9z"/>
					<path class="st3" d="M778.2,92.2c0-4.7,0.1-9.3,0-14c0-1.6,0.4-2.1,2-2c2.9,0.1,2.9,0,2.9,3c0,7.2,0,14.4,0,21.7
						c0,1.5-0.3,2.1-1.9,2.1c-3.3-0.1-3.3,0-4.6-3.2c-1.7-4.3-3.3-8.6-5.1-13.4c-0.1,0.9-0.2,1.3-0.2,1.8c0,4.4,0,8.8,0,13.1
						c0,1.3-0.4,1.8-1.7,1.7c-3.7-0.1-3.1,0.5-3.1-3.1c0-7.2,0-14.4,0-21.7c0-1.5,0.3-2,1.9-1.9c3.3,0.1,3.3,0,4.5,3.1
						c1.7,4.3,3.4,8.7,5,13C778,92.2,778.1,92.2,778.2,92.2z"/>
					<path class="st3" d="M836.4,92c0-4.6,0.1-9.2,0-13.8c0-1.6,0.4-2.1,2-2c2.8,0.1,2.8,0,2.8,2.8c0,5.8,0,11.7,0,17.5
						c0,0.9,0,1.8,0,2.7c0,3.8,0,3.8-3.8,3.8c-1.1,0-1.7-0.3-2-1.4c-1.8-4.9-3.8-9.9-6-14.8c0,2,0,3.9,0,5.9c0,2.3,0,4.7,0,7
						c0,3.4-0.5,3.8-3.9,3.2c-0.8-0.1-0.8-0.6-0.8-1.2c0-8.1,0-16.2,0-24.3c0-0.9,0.4-1.1,1.2-1.2c3.9-0.2,3.9-0.2,5.3,3.4
						c1.6,4.2,3.2,8.3,4.8,12.5C836.2,92,836.3,92,836.4,92z"/>
					<path class="st3" d="M897.8,86.9c0,4.7-0.1,9.3,0,14c0,1.6-0.3,2.2-2,2c-0.6-0.1-1.1-0.1-1.7,0c-0.8,0.1-1.1-0.2-1.1-1.1
						c0-8.2,0-16.3,0-24.5c0-0.3,0.1-0.8,0.2-0.8c1.4-0.4,2.9-0.2,4.3-0.2c1,0,1,0.9,1.2,1.5c1.8,4.5,3.5,8.9,5.2,13.4
						c0.2,0.4,0.3,0.8,0.7,1.7c0-1,0.1-1.5,0.1-2.1c0-4.3,0.1-8.6,0-12.9c0-1.4,0.4-1.7,1.7-1.7c3.1,0.1,3.1,0,3.1,3.1
						c0,7.3,0,14.6,0,21.8c0,1.3-0.3,1.7-1.7,1.7c-3.6-0.1-3.6,0-4.9-3.4c-1.6-4.2-3.2-8.5-4.8-12.7C898,86.8,897.9,86.9,897.8,86.9
						z"/>
					<path class="st3" d="M762.5,89.7c0-2.2,0-4.3,0-6.4c0-4.4-3-7.2-7.7-7.3c-4.7-0.1-8,2.5-8.2,6.8c-0.2,4.6-0.2,9.1,0,13.7
						c0.2,4.3,3.5,6.9,8.2,6.8c4.6-0.2,7.5-2.9,7.6-7.2C762.5,93.9,762.5,91.8,762.5,89.7z M757.6,96.1c0,2.1-1.3,3.3-3.1,3.2
						c-1.8,0-3-1.2-3-3.2c0-4.4,0-8.8,0-13.3c0-1.9,1.3-3.2,3-3.2c1.8,0,3,1.2,3.1,3.1c0.1,2.3,0,4.6,0,6.8h0
						C757.6,91.8,757.7,94,757.6,96.1z"/>
					<path class="st3" d="M889,83c0-3.2-1.6-5.4-4.6-6.5c-2.3-0.8-4.6-0.8-6.8,0.1c-2.8,1.1-4.3,3.2-4.4,6.2c-0.1,2.3,0,4.6,0,6.8h0
						c0,2,0,4.1,0,6.1c0,4.6,2.9,7.4,7.7,7.5c4.8,0.1,8-2.7,8.2-7.3C889.1,91.6,889.1,87.3,889,83z M884.2,96c0,2.1-1.3,3.3-3.1,3.4
						c-1.8,0-3-1.2-3.1-3.3c0-4.3,0-8.6,0-12.9c0-2.1,1.2-3.4,3.1-3.4c1.9,0,3.1,1.3,3.1,3.5c0,2.2,0,4.3,0,6.5
						C884.2,91.8,884.3,93.9,884.2,96z"/>
					<path class="st3" d="M795.2,94.6c1-5.5,2.1-10.9,3-16.4c0.2-1.5,0.7-2.4,2.3-2c0.3,0.1,0.6,0.1,1,0c1.7-0.2,2.2,0.2,1.8,2.1
						c-1.9,7.7-3.6,15.4-5.4,23.1c-0.2,1.1-0.7,1.5-1.9,1.5c-3.6,0-3.6,0-4.5-3.5c-1.7-7.2-3.3-14.4-5-21.6c-0.3-1.3,0-1.6,1.3-1.6
						c3.6,0,3.6,0,4.3,3.6c0.9,5,1.8,9.9,2.8,14.9C795,94.7,795.1,94.7,795.2,94.6z"/>
					<path class="st3" d="M806.7,89.4c0-3.8,0.1-7.6,0-11.4c0-1.5,0.4-1.8,1.8-1.8c3.7,0.1,7.5,0.1,11.2,0c1.8-0.1,1.4,1.1,1.5,2.1
						c0.1,1.2,0,1.9-1.5,1.8c-2.3-0.1-4.6,0-6.8-0.1c-1,0-1.4,0.3-1.2,1.3c0,0.4,0,0.8,0,1.1c0,1.6-0.5,3.7,0.3,4.8
						c0.8,1.1,3,0.3,4.5,0.3c1.7,0,1.2,1.1,1.2,2c0,0.9,0.4,2.1-1.2,1.9c-0.1,0-0.2,0-0.4,0c-1.4,0-3.2-0.5-4,0.2
						c-1,0.8-0.3,2.7-0.3,4.2c0,3.2,0,3.2,3.3,3.2c1.7,0,3.3,0.1,4.9,0c1.8-0.1,1.3,1,1.4,2c0,1,0.2,2-1.4,1.9
						c-3.9-0.1-7.7-0.1-11.6,0c-1.2,0-1.5-0.5-1.5-1.6C806.7,97.3,806.7,93.4,806.7,89.4z"/>
					<path class="st3" d="M727.8,89.6c0-2.5-0.1-4.9,0-7.4c0.1-2.5,1.4-4.3,3.6-5.4c2.7-1.3,5.5-1.2,8.3,0c1.4,0.7,2.5,1.7,3.1,3.2
						c0.5,1.2,1.2,2.7,0.4,3.6c-0.9,1-2.6,0.5-4,0.5c-0.7,0-0.6-0.6-0.7-1.1c-0.2-2.3-1.3-3.3-3.1-3.3c-1.9,0.1-2.9,1.3-2.9,3.7
						c0,4.1,0,8.1,0,12.2c0,2.4,1,3.7,2.8,3.8s3-0.9,3.2-3.4c0.1-0.8,0.3-1.2,1.2-1.1c0.1,0,0.2,0,0.4,0c3.6,0,4.3,1.2,2.6,4.5
						c-1.6,2.9-5.3,4.3-9.3,3.4c-3.4-0.7-5.3-3-5.5-6.5c0-0.2,0-0.5,0-0.8C727.8,93.6,727.8,91.6,727.8,89.6
						C727.8,89.6,727.8,89.6,727.8,89.6z"/>
					<path class="st3" d="M842.9,55.1c0,4-0.1,7.6,0,11.1c0.1,1.6-0.9,1.3-1.8,1.3c-0.9,0-1.8,0.3-1.8-1.3c0.1-5.7,0-11.4,0.1-17.1
						c0-0.6-0.6-1.8,0.6-1.8c1.2,0.1,2.9-1,3.7,1.2c1.1,3.2,2.4,6.4,3.6,9.6c0.2,0.4,0.3,0.8,0.8,1.2c0-3.4,0.1-6.8,0-10.3
						c-0.1-1.5,0.5-1.7,1.8-1.7c1.4,0,1.8,0.3,1.8,1.8c-0.1,5.6,0,11.2-0.1,16.7c0,0.6,0.6,1.8-0.7,1.8c-1.2-0.1-2.9,1-3.7-1.1
						c-1.2-3.4-2.5-6.8-3.8-10.1C843.4,56,843.2,55.7,842.9,55.1z"/>
					<path class="st3" d="M863.7,59.2c0-3.5,0.1-6.9,0-10.4c-0.1-1.6,0.7-1.5,1.8-1.5c1.2,0,1.8,0.1,1.8,1.6
						c-0.1,5.6,0,11.3-0.1,16.9c0,0.6,0.6,1.8-0.7,1.7c-1.2-0.1-2.9,1-3.7-1.2c-1.2-3.4-2.5-6.8-3.8-10.1c-0.1-0.3-0.2-0.5-0.6-1.3
						c0,4-0.1,7.5,0,11c0.1,1.6-0.6,1.7-1.9,1.7c-1.2,0-1.8-0.2-1.7-1.6c0.1-5.6,0-11.3,0.1-16.9c0-0.6-0.6-1.8,0.7-1.7
						c1.2,0.1,2.8-1,3.5,1.1c1.3,3.6,2.7,7.2,4.1,10.8C863.4,59.2,863.5,59.2,863.7,59.2z"/>
					<path class="st3" d="M850.3,91.4c0-3.3-0.1-6.6,0-9.9c0-1.2-0.4-1.6-1.5-1.4c-0.7,0.1-1.4-0.1-2.1,0c-1.8,0.3-2.2-0.4-2.2-2.2
						c0.1-1.3,0.3-1.7,1.7-1.7c4.4,0.1,8.9,0.1,13.3,0c1.8-0.1,1.4,1,1.5,2.1c0.1,1.1,0,1.9-1.5,1.8c-1.4-0.1-3.3-0.7-4.2,0.3
						c-0.9,0.9-0.3,2.8-0.3,4.2c0,5.5-0.1,11,0,16.5c0,1.4-0.3,2-1.8,1.8c-0.4-0.1-0.9-0.1-1.3,0c-1.3,0.2-1.8-0.3-1.7-1.7
						C850.4,97.9,850.3,94.7,850.3,91.4z"/>
					<path class="st3" d="M753.7,52.1c-0.1-3.1-2.4-5.1-5.7-5.1c-3.3,0-5.6,1.9-5.8,5c-0.1,1.8,0,3.5,0,5.3h0c0,1.8-0.1,3.7,0,5.5
						c0.2,3.2,2.4,5.2,5.8,5.1c3.2,0,5.6-2.1,5.6-5.2C753.8,59.2,753.8,55.6,753.7,52.1z M750.2,62.5c0,1.3-0.6,2.4-2.2,2.4
						c-1.7,0-2.2-1.1-2.2-2.5c0-1.7,0-3.3,0-4.9c0-1.7,0-3.4,0-5.1c0-1.3,0.6-2.3,2.2-2.4c1.5,0,2.2,1,2.2,2.3
						C750.2,55.7,750.2,59.1,750.2,62.5z"/>
					<path class="st4" d="M882,55.7c0,2.3,0.1,4.6,0,6.8c-0.1,3.1-2.4,5.2-5.6,5.3c-3.2,0.1-5.8-1.8-5.9-4.9
						c-0.2-4.9-0.2-9.8-0.1-14.6c0-1.8,1.5-0.8,2.3-1c1-0.2,1.3,0.2,1.3,1.2c0,4.4,0,8.9,0,13.3c0,1,0.1,1.9,0.9,2.6
						c0.7,0.5,1.4,0.6,2.2,0.3c1.1-0.4,1.4-1.4,1.4-2.5c0-3.1,0-6.2,0-9.3c0-1.3,0.1-2.5,0-3.8c-0.2-1.5,0.4-1.8,1.9-1.9
						c1.5,0,1.8,0.5,1.7,1.8C881.9,51.3,882,53.5,882,55.7C882,55.7,882,55.7,882,55.7z"/>
					<path class="st3" d="M813.7,48.4c-0.4-1.8-1.6-0.9-2.5-1.1c-0.9-0.1-1.7-0.2-2,1.2c-1.2,5.8-2.7,11.5-4,17.3
						c-0.1,0.5-1.2,1.7,0.4,1.6c1,0,2.7,1,3-1.1c0.1-0.7,0.2-2,0.5-2.1c1.4-0.3,2.9-0.3,4.3-0.2c0.9,0.1,0.7,1.2,0.7,1.7
						c0,1.6,0.9,1.8,2.2,1.7c0.6-0.1,1.1,0.1,1.8-0.2C816.6,61,815,54.7,813.7,48.4z M811.7,61.4c-0.7-0.1-1.4,0-2.2,0
						c0.6-3.1,1.2-6,1.8-9c0.1,0,0.2,0,0.3,0c0.5,2.5,0.9,5,1.5,7.4C813.3,61.1,813,61.6,811.7,61.4z"/>
					<path class="st3" d="M892.5,48.7c-0.4-1.9-1.6-1.3-2.7-1.5c-1.2-0.1-1.8,0.2-2.1,1.5c-1.3,5.7-2.6,11.5-3.9,17.2
						c-0.1,0.5-0.9,1.6,0.3,1.6c1,0,2.9,1.1,3.1-1c0.2-2.2,1.3-2.5,3.2-2.5c1.5,0.1,2.6,0.2,2.5,2c0,1.3,0.7,1.7,1.9,1.6
						c0.6-0.1,1.2,0,2,0C895.3,61.2,893.8,55,892.5,48.7z M890.4,61.4c-0.7-0.1-1.4,0-2.2,0c0.6-3,1.2-5.9,1.7-8.8
						c0.1,0,0.2,0,0.3,0.1c0.5,2.4,0.8,4.9,1.4,7.2C892,61.3,891.6,61.5,890.4,61.4z"/>
					<path class="st3" d="M837,65.9c-1.3-5.6-2.7-11.2-3.9-16.8c-0.3-1.5-0.8-2.2-2.4-1.8c-0.9,0.1-2-0.5-2.3,1.1
						c-1.3,6-2.8,11.9-4.1,17.9c-0.1,0.4-0.4,0.8,0.2,1.2c1.2,0.8,3.2-0.2,3.5-1.7c0.1-0.6-0.1-1.6,0.8-1.7c1.3-0.2,2.7-0.2,4,0.1
						c1,0.2,0.6,1.5,0.8,2.3c0.5,2,2.1,0.9,3.1,1C837.8,67.5,837.1,66.4,837,65.9z M828.7,61.3c0.5-2.8,1.1-5.5,1.6-8.2
						c0.2,0,0.3,0,0.5,0c0.5,2.7,1.1,5.5,1.7,8.2C831.2,61.5,830,61.5,828.7,61.3z"/>
					<path class="st4" d="M864.4,89.4c0-3.9,0-7.7,0-11.6c0-1.3,0.4-1.6,1.6-1.6c3.2,0,3.2,0,3.2,3.2c0,7.2,0,14.4,0,21.7
						c0,1.5-0.4,1.9-1.9,1.9c-2.9-0.1-2.9,0-2.9-2.9C864.4,96.5,864.4,92.9,864.4,89.4z"/>
					<path class="st3" d="M733.1,64.7c1.8,0,3.3-0.1,4.8,0c1,0.1,2.5-0.9,2.5,1.4c0,2.4-1.6,1.4-2.6,1.4c-2.1,0.1-4.3,0.1-6.5,0
						c-0.8,0-2.1,0.6-2.4-0.4c-0.4-1.1-0.3-2.4,0.7-3.5c1.9-2.2,3.7-4.5,5.2-7c0.8-1.2,1.5-2.5,1.5-4c0-1.3-0.3-2.5-1.9-2.5
						c-1.5,0-2,1.1-1.9,2.3c0.2,2.4-1.6,1.3-2.6,1.5c-1.5,0.2-1.2-1-1.1-1.8c0.3-3.4,3.2-5.5,6.6-4.9c3.2,0.5,5,3.2,4.5,6.5
						c-0.4,2.4-1.7,4.3-3.1,6.2C735.7,61.3,734.5,62.9,733.1,64.7z"/>
					<path class="st3" d="M760.2,64.7c2.3,0,4.2,0.1,6.1,0c1.3-0.1,1.2,0.7,1.2,1.6c0,0.9-0.1,1.4-1.2,1.4c-2.7-0.1-5.3,0-8,0
						c-0.8,0-2,0.5-2.2-0.4c-0.3-1.1-0.4-2.3,0.5-3.4c1-1.2,2-2.5,2.9-3.7c1-1.4,2-2.9,2.9-4.4c0.5-0.9,0.9-1.8,0.9-2.8
						c0-1.4-0.1-2.7-1.8-2.8c-1.6-0.1-2,1.1-2,2.4c0.1,2.3-1.6,1.1-2.5,1.3c-1.3,0.3-1.2-0.7-1.2-1.5c0.2-3.4,2.9-5.6,6.4-5.2
						c3.2,0.4,5.2,3,4.8,6.3c-0.3,2.1-1.2,3.8-2.5,5.5C763.1,60.7,761.8,62.5,760.2,64.7z"/>
					<path class="st3" d="M776,54.8c3.7,2,5,7.4,2.7,10.9c-1.3,2-4.4,2.7-7,1.7c-2.1-0.8-3.3-3-3.1-5.3c0.1-0.9,0.6-0.9,1.1-0.8
						c0.8,0.2,2-0.7,2.4,0.7c0.2,0.5,0.2,1.1,0.3,1.7c0.2,0.8,0.8,1.3,1.7,1.3c0.9,0,1.5-0.4,1.7-1.2c0.5-1.9,0.5-3.8,0-5.6
						c-0.3-0.9-1.1-1.5-1.9-1.1c-1.3,0.6-1.7-0.4-2.3-1c-0.8-0.9,0.3-1.3,0.7-1.8c0.8-1.2,1.8-2.4,3-3.9c-1.9,0-3.4,0-4.9,0
						c-1.1,0-1.6-0.2-1.6-1.4c0-1.2,0.4-1.5,1.5-1.5c2.4,0.1,4.8,0,7.2,0c0.7,0,1.8-0.5,2,0.4c0.3,0.9,0.4,2-0.3,2.9
						C778.1,52,777,53.4,776,54.8z"/>
					<path class="st3" d="M801,47.3c1.3,0,2.5,0,3.8,0c1,0,1.6,0,1.6,1.4c0,1.3-0.4,1.7-1.6,1.6c-0.6-0.1-1.1,0-1.7,0
						c-4,0-4.7,0.8-3.9,5c0.1,0.7,0.4,0.8,1,0.8c0.7,0,1.4,0,2.1,0c1-0.1,1.5,0.2,1.4,1.3c0,1,0,1.6-1.4,1.6c-3.1,0-3.1,0.1-3.1,3.2
						c0,1.5,0,2.9,0,4.4c0,1.8-1.2,1-2,1.1c-0.8,0.1-1.6,0.3-1.6-1.1c0.1-6,0-12,0-18c0-1,0.4-1.2,1.2-1.1
						C798.2,47.3,799.6,47.3,801,47.3z"/>
					<path class="st5" d="M898.8,57.4c0-2.9,0.1-5.8,0-8.7c-0.1-1.8,1.1-1.3,2-1.4c1-0.1,1.8-0.1,1.7,1.4c-0.1,4.8,0,9.6-0.1,14.4
						c0,1.3,0.4,1.6,1.6,1.6c1.5-0.1,2.9,0,4.4,0c1.2-0.1,1.3,0.6,1.3,1.5c0,0.9-0.1,1.4-1.2,1.4c-2.8-0.1-5.6-0.1-8.3,0
						c-1.2,0-1.3-0.5-1.3-1.5C898.8,63.2,898.8,60.3,898.8,57.4z"/>
					<path class="st3" d="M792.2,57.5c0,2.9-0.1,5.8,0,8.7c0.1,1.6-0.8,1.4-1.8,1.3c-0.9,0-1.9,0.4-1.8-1.3c0.1-5.9,0.1-11.8,0-17.6
						c0-1.8,1-1.3,2-1.4c1.1-0.1,1.7,0.1,1.7,1.5C792.2,51.7,792.2,54.6,792.2,57.5z"/>
					<path class="st6" d="M702.6,66.9c0,1.8-1.3,3.3-3.1,3.4c-1.8,0.1-3.5-1.4-3.5-3.2c0-1.8,1.4-3.3,3.2-3.4
						C701,63.6,702.6,65.1,702.6,66.9z"/>
					<path class="st7" d="M691.6,67.1c0,1.8-1.5,3.2-3.3,3.3c-1.8,0-3.4-1.5-3.4-3.4c0-1.8,1.6-3.4,3.5-3.3
						C690.2,63.8,691.6,65.3,691.6,67.1z"/>
					<path class="st8" d="M713,44.1c0,1.9-1.5,3.3-3.4,3.2c-1.8,0-3.2-1.5-3.3-3.3c0-1.8,1.5-3.4,3.4-3.4
						C711.6,40.8,713,42.2,713,44.1z"/>
					<path class="st6" d="M713,67c0,1.9-1.5,3.4-3.4,3.3c-1.8,0-3.2-1.5-3.2-3.3c0-1.8,1.4-3.3,3.2-3.3C711.4,63.7,713,65.2,713,67z
						"/>
					<path class="st8" d="M709.8,29.8c1.9,0,3.2,1.3,3.2,3.1c0,1.9-1.5,3.3-3.3,3.4c-1.9,0-3.4-1.5-3.4-3.3
						C706.3,31.1,707.8,29.8,709.8,29.8z"/>
					<path class="st7" d="M674.5,67c0-1.9,1.3-3.2,3.1-3.2c1.8,0,3.4,1.6,3.3,3.4c0,1.8-1.5,3.2-3.3,3.2
						C675.8,70.4,674.5,69,674.5,67z"/>
					<path class="st7" d="M686.8,46.4c0.1-1.8,1.5-3.2,3.3-3.2c1.9,0,3.3,1.5,3.2,3.5c0,1.8-1.5,3.2-3.3,3.2
						C688.2,49.9,686.7,48.3,686.8,46.4z"/>
					<path class="st6" d="M692,101.2c-1.8,0.1-3.3-1.3-3.4-3.2c-0.1-1.9,1.3-3.5,3.2-3.5c1.8-0.1,3.3,1.3,3.4,3.2
						C695.3,99.6,693.9,101.2,692,101.2z"/>
					<path class="st6" d="M700.9,54.5c0,1.9-1.5,3.4-3.3,3.4c-1.8,0-3.2-1.5-3.3-3.3c0-1.9,1.5-3.4,3.3-3.4
						C699.5,51.2,700.9,52.7,700.9,54.5z"/>
					<path class="st6" d="M713,56c0,1.8-1.4,3.2-3.2,3.3c-1.9,0.1-3.4-1.4-3.4-3.3c0-1.8,1.4-3.3,3.2-3.3
						C711.4,52.6,713,54.1,713,56z"/>
				</g>
				<g>
					<path class="st9" d="M813.9,119.7l-0.3-0.9c0-0.1-0.1-0.1-0.1-0.1h-2.6c-0.1,0-0.1,0-0.1,0.1l-0.3,0.9c0,0.1-0.1,0.2-0.3,0.2
						h-2c-0.2,0-0.3-0.1-0.2-0.3l2.6-8.3c0-0.1,0.1-0.2,0.3-0.2h2.6c0.1,0,0.2,0.1,0.3,0.2l2.6,8.3c0,0.2,0,0.3-0.2,0.3h-2
						C814,119.9,813.9,119.8,813.9,119.7 M811.5,116.9h1.6c0.1,0,0.1-0.1,0.1-0.1l-0.8-2.9c0-0.1-0.1-0.1-0.1,0l-0.8,2.9
						C811.4,116.8,811.4,116.9,811.5,116.9"/>
					<path class="st9" d="M817.2,119.6v-8.3c0-0.2,0.1-0.2,0.2-0.2h1.9c0.2,0,0.2,0.1,0.2,0.2v6.4c0,0.1,0,0.1,0.1,0.1h3.8
						c0.2,0,0.2,0.1,0.2,0.2v1.5c0,0.2-0.1,0.2-0.2,0.2h-6C817.3,119.9,817.2,119.8,817.2,119.6"/>
					<path class="st9" d="M824.4,119.6v-8.3c0-0.2,0.1-0.2,0.2-0.2h1.9c0.2,0,0.2,0.1,0.2,0.2v6.4c0,0.1,0,0.1,0.1,0.1h3.8
						c0.2,0,0.2,0.1,0.2,0.2v1.5c0,0.2-0.1,0.2-0.2,0.2h-6C824.5,119.9,824.4,119.8,824.4,119.6"/>
					<path class="st9" d="M834.2,119.6v-8.3c0-0.2,0.1-0.2,0.2-0.2h1.9c0.2,0,0.2,0.1,0.2,0.2v8.3c0,0.2-0.1,0.2-0.2,0.2h-1.9
						C834.2,119.9,834.2,119.8,834.2,119.6"/>
					<path class="st9" d="M837.5,119.6v-8.3c0-0.2,0.1-0.2,0.2-0.2h1.8c0.1,0,0.2,0.1,0.3,0.2l2.5,4.2c0.1,0.1,0.1,0.1,0.1,0l0-4
						c0-0.2,0.1-0.2,0.2-0.2h1.9c0.2,0,0.2,0.1,0.2,0.2v8.3c0,0.2-0.1,0.2-0.2,0.2h-1.8c-0.1,0-0.2,0-0.3-0.2l-2.5-4.2
						c-0.1-0.1-0.1-0.1-0.1,0l0,4.1c0,0.2-0.1,0.2-0.2,0.2h-1.9C837.6,119.9,837.5,119.8,837.5,119.6"/>
					<path class="st9" d="M845.5,118.7c0-0.7,0.7-1.3,1.4-1.3c0.7,0,1.4,0.6,1.4,1.3c0,0.7-0.6,1.3-1.4,1.3
						C846.1,120,845.5,119.4,845.5,118.7"/>
					<path class="st9" d="M857.3,119.7l-0.3-0.9c0-0.1-0.1-0.1-0.1-0.1h-2.6c-0.1,0-0.1,0-0.1,0.1l-0.3,0.9c0,0.1-0.1,0.2-0.3,0.2
						h-2c-0.2,0-0.3-0.1-0.2-0.3l2.6-8.3c0-0.1,0.1-0.2,0.3-0.2h2.6c0.1,0,0.2,0.1,0.3,0.2l2.6,8.3c0,0.2,0,0.3-0.2,0.3h-2
						C857.4,119.9,857.3,119.8,857.3,119.7 M854.8,116.9h1.6c0.1,0,0.1-0.1,0.1-0.1l-0.8-2.9c0-0.1-0.1-0.1-0.1,0l-0.8,2.9
						C854.7,116.8,854.7,116.9,854.8,116.9"/>
					<path class="st9" d="M860.6,119.6v-8.3c0-0.2,0.1-0.2,0.2-0.2h1.9c0.2,0,0.2,0.1,0.2,0.2v6.4c0,0.1,0,0.1,0.1,0.1h3.8
						c0.2,0,0.2,0.1,0.2,0.2v1.5c0,0.2-0.1,0.2-0.2,0.2h-6C860.7,119.9,860.6,119.8,860.6,119.6"/>
					<path class="st9" d="M867.8,119.6v-8.3c0-0.2,0.1-0.2,0.2-0.2h1.9c0.2,0,0.2,0.1,0.2,0.2v6.4c0,0.1,0,0.1,0.1,0.1h3.8
						c0.2,0,0.2,0.1,0.2,0.2v1.5c0,0.2-0.1,0.2-0.2,0.2h-6C867.9,119.9,867.8,119.8,867.8,119.6"/>
					<path class="st9" d="M882.2,111.1h1.9c0.2,0,0.2,0.1,0.2,0.2v8.3c0,0.2-0.1,0.2-0.2,0.2h-1.9c-0.2,0-0.2-0.1-0.2-0.2v-3.1
						c0-0.1,0-0.1-0.1-0.1H880c-0.1,0-0.1,0-0.1,0.1v3.1c0,0.2-0.1,0.2-0.2,0.2h-1.9c-0.1,0-0.2-0.1-0.2-0.2v-8.3
						c0-0.2,0.1-0.2,0.2-0.2h1.9c0.2,0,0.2,0.1,0.2,0.2v3c0,0.1,0,0.1,0.1,0.1h1.9c0.1,0,0.1,0,0.1-0.1v-3
						C882,111.2,882,111.1,882.2,111.1"/>
					<path class="st9" d="M891.3,113.1h-3.7c-0.1,0-0.1,0-0.1,0.1v1.1c0,0.1,0,0.1,0.1,0.1h2.2c0.2,0,0.2,0.1,0.2,0.2v1.5
						c0,0.2-0.1,0.2-0.2,0.2h-2.2c-0.1,0-0.1,0-0.1,0.1v1.2c0,0.1,0,0.1,0.1,0.1h3.7c0.2,0,0.2,0.1,0.2,0.2v1.5
						c0,0.2-0.1,0.2-0.2,0.2h-5.9c-0.2,0-0.2-0.1-0.2-0.2v-8.3c0-0.1,0.1-0.2,0.2-0.2h5.9c0.2,0,0.2,0.1,0.2,0.2v1.5
						C891.6,113,891.5,113.1,891.3,113.1"/>
					<path class="st9" d="M896.8,119.7l-1.4-3.1c0-0.1-0.1-0.1-0.1-0.1h-0.5c-0.1,0-0.1,0-0.1,0.1v3c0,0.2-0.1,0.2-0.2,0.2h-1.9
						c-0.2,0-0.2-0.1-0.2-0.2v-8.3c0-0.2,0.1-0.2,0.2-0.2h3.8c1.7,0,2.9,1.1,2.9,2.8c0,1.1-0.6,1.9-1.5,2.3c-0.1,0-0.1,0.1,0,0.1
						l1.5,3.2c0.1,0.2,0,0.3-0.2,0.3h-2C896.9,119.9,896.8,119.8,896.8,119.7 M894.7,113.2v1.4c0,0.1,0,0.1,0.1,0.1h1.1
						c0.5,0,0.9-0.3,0.9-0.8c0-0.5-0.4-0.8-0.9-0.8h-1.1C894.8,113.1,894.7,113.1,894.7,113.2"/>
					<path class="st9" d="M906.2,113.1h-3.7c-0.1,0-0.1,0-0.1,0.1v1.1c0,0.1,0,0.1,0.1,0.1h2.2c0.2,0,0.2,0.1,0.2,0.2v1.5
						c0,0.2-0.1,0.2-0.2,0.2h-2.2c-0.1,0-0.1,0-0.1,0.1v1.2c0,0.1,0,0.1,0.1,0.1h3.7c0.2,0,0.2,0.1,0.2,0.2v1.5
						c0,0.2-0.1,0.2-0.2,0.2h-5.9c-0.2,0-0.2-0.1-0.2-0.2v-8.3c0-0.1,0.1-0.2,0.2-0.2h5.9c0.2,0,0.2,0.1,0.2,0.2v1.5
						C906.5,113,906.4,113.1,906.2,113.1"/>
					<path class="st9" d="M907,118.7c0-0.7,0.7-1.3,1.4-1.3c0.7,0,1.4,0.6,1.4,1.3c0,0.7-0.6,1.3-1.4,1.3
						C907.6,120,907,119.4,907,118.7"/>
				</g>
			</g>
		</g>
	</g>
</g>
</svg>
