<svg width="227" height="121" viewBox="0 0 227 121" fill="none" xmlns="http://www.w3.org/2000/svg">
<g clip-path="url(#clip0_1325_2467)">
<path d="M74.0143 78.2C73.2143 78.2 72.5143 77.9 71.8143 77.5C69.3143 76 66.8143 74.6 64.2143 73.1C63.8143 72.8 63.4143 72.5 63.0143 72.1C62.2143 71.1 62.2143 70 62.9143 68.9C63.4143 68.2 64.0143 67.6 64.7143 67.1C65.9143 66.1 67.3143 65.2 68.6143 64.2C69.0143 63.9 69.4143 63.5 69.7143 63.1C70.0143 62.7 70.0143 62.4 69.7143 62C69.2143 61.5 68.7143 61.1 68.1143 60.7C65.9143 59.1 63.7143 57.5 61.5143 56C60.9143 55.6 60.5143 55.7 60.1143 56.2C58.8143 57.8 57.5143 59.3 56.1143 60.8C55.6143 61.3 55.1143 61.8 54.5143 62.3C53.3143 63.2 51.8143 63.1 50.8143 62.1C49.1143 60.4 47.3143 58.7 45.6143 56.9C45.1143 56.4 44.7143 55.9 44.6143 55.1C44.6143 54 45.3143 53 46.4143 52.9C47.5143 52.8 48.3143 53.2 49.0143 53.9C50.2143 55 51.3143 56.2 52.5143 57.3C53.0143 57.8 53.2143 57.8 53.8143 57.5C57.5143 55.4 60.6143 52.8 63.2143 49.4C64.9143 47.3 66.6143 45.2 68.2143 43C69.2143 41.6 71.1143 41.8 72.1143 42.7C73.0143 43.6 73.8143 44.4 74.7143 45.2C75.6143 46.1 76.6143 47 77.5143 48C78.0143 48.5 78.3143 49 78.5143 49.7C78.7143 51.1 77.6143 52.2 76.2143 52C75.4143 51.9 74.8143 51.5 74.2143 51C73.0143 49.9 71.8143 48.7 70.6143 47.6C70.1143 47.2 69.9143 47.1 69.4143 47.5C68.0143 48.7 66.6143 49.9 65.2143 51.1C64.7143 51.5 64.7143 52.1 65.2143 52.5C66.0143 53.3 66.9143 54.2 67.7143 55C69.0143 56.3 70.3143 57.5 71.6143 58.8C72.3143 59.5 72.9143 60.2 73.2143 61.2C73.5143 62.3 73.3143 63.3 72.8143 64.3C72.2143 65.4 71.4143 66.3 70.5143 67.2C70.0143 67.7 69.5143 68.1 69.0143 68.6C68.6143 69 68.6143 69.3 69.1143 69.6C70.9143 70.7 72.7143 71.9 74.6143 73C75.0143 73.3 75.4143 73.6 75.8143 74C76.9143 75.4 76.1143 77.6 74.4143 78C74.3143 78.2 74.1143 78.2 74.0143 78.2Z" fill="#6144BA"/>
<path d="M160.114 49.8999C159.114 51.6999 158.114 53.4999 157.114 55.1999C156.914 55.4999 156.714 55.7999 156.514 56.0999C155.314 57.5999 153.314 57.5999 152.114 56.0999C151.814 55.6999 151.614 55.2999 151.414 54.8999C150.514 53.2999 149.614 51.6999 148.714 50.0999C148.614 49.9999 148.614 49.8999 148.514 49.7999C148.514 50.0999 148.514 50.2999 148.514 50.5999C148.514 52.6999 148.514 54.6999 148.514 56.7999C148.514 56.9999 148.514 57.0999 148.214 57.0999C147.414 57.0999 146.614 57.0999 145.814 57.0999C145.614 57.0999 145.614 57.0999 145.614 56.8999C145.614 54.1999 145.614 51.4999 145.614 48.7999C145.614 48.1999 145.614 47.5999 145.814 46.9999C146.414 45.2999 148.514 44.7999 149.714 46.1999C150.014 46.5999 150.314 46.9999 150.514 47.3999C151.714 49.5999 153.014 51.7999 154.214 53.9999C154.214 54.0999 154.314 54.0999 154.314 54.1999C154.414 54.0999 154.414 53.9999 154.514 53.9999C155.714 51.7999 157.014 49.5999 158.214 47.3999C158.414 46.9999 158.714 46.4999 159.114 46.1999C159.814 45.4999 160.614 45.2999 161.514 45.5999C162.414 45.8999 162.914 46.5999 163.114 47.4999C163.214 47.8999 163.214 48.2999 163.214 48.5999C163.214 51.3999 163.214 54.0999 163.214 56.8999C163.214 57.1999 163.114 57.1999 162.914 57.1999C162.114 57.1999 161.314 57.1999 160.614 57.1999C160.414 57.1999 160.314 57.0999 160.314 56.8999C160.314 54.6999 160.314 52.4999 160.314 50.3999C160.114 50.2999 160.114 50.0999 160.114 49.8999Z" fill="#051A35"/>
<path d="M172.514 57.3C170.914 57.3 169.314 57.3 167.714 57.3C166.114 57.3 165.014 56.1 165.014 54.6C165.014 52.5 165.014 50.3 165.014 48.2C165.014 46.6 166.114 45.6 167.614 45.6C170.914 45.6 174.314 45.6 177.614 45.6C177.914 45.6 177.914 45.6 177.914 45.9C177.914 46.7 177.914 47.4 177.914 48.2C177.914 48.5 177.814 48.5 177.614 48.5C174.614 48.5 171.514 48.5 168.514 48.5C167.914 48.5 167.814 48.6 167.814 49.2C167.814 49.5 167.714 49.8 167.814 49.9C168.014 50.1 168.314 49.9 168.514 49.9C171.514 49.9 174.514 49.9 177.514 49.9C177.714 49.9 177.814 50 177.814 50.2C177.814 51 177.814 51.7 177.814 52.5C177.814 52.8 177.714 52.8 177.514 52.8C174.414 52.8 171.214 52.8 168.114 52.8C167.814 52.8 167.714 52.9 167.814 53.1C167.814 53.3 167.814 53.5 167.814 53.8C167.814 54.1 168.014 54.3 168.314 54.3C168.414 54.3 168.514 54.3 168.514 54.3C171.514 54.3 174.514 54.3 177.614 54.3C177.814 54.3 177.914 54.4 177.914 54.6C177.914 55.4 177.914 56.1 177.914 56.9C177.914 57.2 177.914 57.2 177.614 57.2C175.914 57.3 174.214 57.3 172.514 57.3Z" fill="#051A35"/>
<path d="M140.414 72.7C138.714 72.7 137.114 72.7 135.414 72.7C133.914 72.7 132.814 71.7 132.814 70.2C132.814 68 132.814 65.8 132.814 63.5C132.814 62 133.914 61 135.414 61C138.814 61 142.114 61 145.514 61C145.714 61 145.814 61.1 145.814 61.3C145.814 62.1 145.814 62.9 145.814 63.7C145.814 63.9 145.714 64 145.514 64C142.514 64 139.414 64 136.414 64C135.814 64 135.714 64.1 135.714 64.7C135.714 64.9 135.614 65.3 135.714 65.4C135.814 65.6 136.214 65.5 136.414 65.5C139.414 65.5 142.414 65.5 145.414 65.5C145.614 65.5 145.714 65.6 145.714 65.8C145.714 66.6 145.714 67.4 145.714 68.1C145.714 68.3 145.614 68.4 145.414 68.4C142.314 68.4 139.114 68.4 136.014 68.4C135.714 68.4 135.614 68.5 135.614 68.8C135.614 69 135.614 69.2 135.614 69.4C135.614 69.7 135.814 69.9 136.114 69.9C136.214 69.9 136.314 69.9 136.414 69.9C139.414 69.9 142.514 69.9 145.514 69.9C145.714 69.9 145.814 70 145.814 70.2C145.814 71 145.814 71.8 145.814 72.5C145.814 72.7 145.714 72.8 145.514 72.8C143.914 72.7 142.214 72.7 140.414 72.7Z" fill="#051A35"/>
<path d="M154.214 72.7C152.514 72.7 150.914 72.7 149.214 72.7C149.014 72.7 148.914 72.7 148.914 72.4C148.914 71.6 148.914 70.8 148.914 70.1C148.914 69.9 149.014 69.8 149.214 69.8C152.414 69.8 155.514 69.8 158.714 69.8C158.814 69.8 159.014 69.8 159.114 69.8C159.514 69.7 159.714 69.4 159.614 69C159.614 68.6 159.314 68.4 158.914 68.3C158.814 68.3 158.714 68.3 158.614 68.3C156.414 68.3 154.314 68.3 152.114 68.3C150.114 68.3 148.714 67.1 148.314 65.1C148.014 63.2 149.514 61.2 151.514 61C151.814 61 152.114 61 152.414 61C155.514 61 158.514 61 161.614 61C161.914 61 161.914 61.1 161.914 61.3C161.914 62.1 161.914 62.9 161.914 63.6C161.914 63.8 161.814 63.9 161.614 63.9C158.514 63.9 155.414 63.9 152.214 63.9C152.114 63.9 151.914 63.9 151.814 63.9C151.414 64 151.214 64.3 151.314 64.7C151.314 65.1 151.614 65.3 152.014 65.3C152.614 65.3 153.114 65.3 153.714 65.3C155.414 65.3 157.114 65.3 158.814 65.3C160.914 65.3 162.514 67 162.514 69.1C162.514 71.1 160.814 72.6 158.814 72.6C157.314 72.8 155.714 72.7 154.214 72.7Z" fill="#051A35"/>
<path d="M170.214 72.7C168.514 72.7 166.914 72.7 165.214 72.7C165.014 72.7 164.914 72.7 164.914 72.4C164.914 71.6 164.914 70.8 164.914 70C164.914 69.8 165.014 69.7 165.214 69.7C168.414 69.7 171.614 69.7 174.714 69.7C175.114 69.7 175.414 69.6 175.514 69.3C175.714 68.8 175.414 68.3 174.814 68.3C173.814 68.3 172.714 68.3 171.714 68.3C170.514 68.3 169.314 68.3 168.114 68.3C166.214 68.3 164.614 66.9 164.414 65.2C164.214 63.2 165.514 61.4 167.414 61.1C167.714 61 168.014 61 168.214 61C171.314 61 174.414 61 177.614 61C177.914 61 177.914 61 177.914 61.3C177.914 62.1 177.914 62.9 177.914 63.6C177.914 63.8 177.814 63.9 177.614 63.9C174.514 63.9 171.414 63.9 168.214 63.9C168.114 63.9 167.914 63.9 167.814 63.9C167.414 64 167.214 64.3 167.214 64.7C167.214 65.1 167.514 65.4 168.014 65.4C169.414 65.4 170.914 65.4 172.314 65.4C173.114 65.4 174.014 65.4 174.814 65.4C176.714 65.4 178.314 66.9 178.514 68.6C178.714 70.5 177.414 72.3 175.414 72.6C175.214 72.6 174.914 72.6 174.714 72.6C173.314 72.7 171.814 72.7 170.214 72.7Z" fill="#051A35"/>
<path d="M107.514 53.7C107.514 53.5 107.514 53.4 107.514 53.3C107.514 50.8 107.514 48.4 107.514 45.9C107.514 45.7 107.614 45.6 107.814 45.6C108.614 45.6 109.414 45.6 110.214 45.6C110.414 45.6 110.514 45.6 110.514 45.8C110.514 48.9 110.514 51.9 110.514 55C110.514 56 109.914 56.9 109.014 57.2C108.114 57.6 107.014 57.3 106.314 56.5C104.214 54.1 102.114 51.8 100.014 49.4C99.9141 49.3 99.9141 49.3 99.8141 49.2C99.7141 49.3 99.8141 49.4 99.8141 49.5C99.8141 52 99.8141 54.4 99.8141 56.9C99.8141 57.2 99.7141 57.2 99.5141 57.2C98.7141 57.2 97.9141 57.2 97.1141 57.2C96.9141 57.2 96.9141 57.1 96.9141 56.9C96.9141 53.9 96.9141 50.8 96.9141 47.8C96.9141 46.8 97.5141 45.9 98.5141 45.5C99.5141 45.1 100.514 45.4 101.214 46.2C103.314 48.5 105.414 50.9 107.414 53.2C107.314 53.4 107.414 53.5 107.514 53.7Z" fill="#051A35"/>
<path d="M127.314 69.1C127.414 69 127.314 68.9 127.314 68.8C127.314 66.3 127.314 63.9 127.314 61.4C127.314 61.2 127.414 61.1 127.614 61.1C128.414 61.1 129.214 61.1 130.014 61.1C130.214 61.1 130.214 61.1 130.214 61.3C130.214 64.4 130.214 67.5 130.214 70.6C130.214 71.6 129.514 72.4 128.614 72.8C127.714 73.1 126.614 72.9 126.014 72.1C123.914 69.8 121.914 67.5 119.814 65.1C119.714 65 119.614 64.9 119.414 64.7C119.414 64.9 119.414 65 119.414 65.1C119.414 67.5 119.414 70 119.414 72.4C119.414 72.6 119.414 72.7 119.114 72.7C118.314 72.7 117.514 72.7 116.714 72.7C116.514 72.7 116.514 72.7 116.514 72.5C116.514 69.5 116.514 66.4 116.514 63.4C116.514 62.4 117.114 61.5 118.114 61.1C119.114 60.7 120.114 61 120.814 61.8C123.014 64.3 125.114 66.7 127.314 69.1Z" fill="#051A35"/>
<path d="M88.7143 61C90.4143 61 92.1143 61 93.8143 61C94.1143 61 94.1143 61.1 94.1143 61.3C94.1143 62.1 94.1143 62.8 94.1143 63.6C94.1143 63.8 94.0143 63.9 93.8143 63.9C90.8143 63.9 87.8143 63.9 84.8143 63.9C84.2143 63.9 84.1143 64 84.1143 64.6C84.1143 64.9 84.0143 65.2 84.1143 65.3C84.3143 65.5 84.6143 65.4 84.9143 65.4C87.9143 65.4 90.8143 65.4 93.8143 65.4C94.1143 65.4 94.1143 65.5 94.1143 65.7C94.1143 66.5 94.1143 67.3 94.1143 68C94.1143 68.2 94.0143 68.3 93.8143 68.3C90.7143 68.3 87.5143 68.3 84.4143 68.3C84.2143 68.3 84.1143 68.3 84.1143 68.6C84.1143 69.9 84.1143 71.1 84.1143 72.4C84.1143 72.6 84.1143 72.7 83.8143 72.7C83.0143 72.7 82.2143 72.7 81.4143 72.7C81.2143 72.7 81.1143 72.6 81.1143 72.4C81.1143 69.5 81.1143 66.5 81.1143 63.6C81.1143 62.3 82.1143 61 83.7143 61C85.4143 61 87.0143 61 88.7143 61Z" fill="#051A35"/>
<path d="M95.9142 57.2999C94.8142 57.2999 93.8142 57.2999 92.8142 57.2999C92.6142 57.2999 92.6142 57.1999 92.5142 57.0999C91.3142 54.5999 90.1142 52.1999 88.9142 49.6999C88.8142 49.3999 88.6142 49.0999 88.4142 48.7999C87.9142 49.8999 87.4142 50.8999 86.9142 51.8999C87.3142 51.8999 87.7142 51.8999 88.1142 51.8999C88.2142 51.8999 88.3142 51.8999 88.4142 51.9999C88.8142 52.8999 89.3142 53.7999 89.7142 54.5999V54.6999C89.6142 54.6999 89.5142 54.6999 89.4142 54.6999C88.2142 54.6999 86.9142 54.6999 85.7142 54.6999C85.5142 54.6999 85.4142 54.7999 85.3142 54.8999C85.0142 55.5999 84.7142 56.2999 84.3142 56.8999C84.2142 56.9999 84.2142 57.0999 84.1142 57.0999C83.1142 57.0999 82.1142 57.0999 81.0142 57.0999C81.1142 56.8999 81.1142 56.7999 81.2142 56.6999C82.8142 53.3999 84.4142 50.1999 86.0142 46.8999C86.5142 45.8999 87.3142 45.2999 88.4142 45.2999C89.5142 45.2999 90.3142 45.8999 90.8142 46.8999C92.4142 50.1999 94.0142 53.4999 95.7142 56.7999C95.8142 57.0999 95.8142 57.1999 95.9142 57.2999Z" fill="#051A35"/>
<path d="M132.614 45.6C134.614 45.6 136.514 45.6 138.514 45.6C138.814 45.6 138.914 45.7 138.914 46C138.914 46.8 138.914 47.5 138.914 48.3C138.914 48.5 138.814 48.6 138.614 48.6C137.214 48.6 135.914 48.6 134.514 48.6C134.314 48.6 134.214 48.6 134.214 48.9C134.214 51.6 134.214 54.4 134.214 57.1C134.214 57.4 134.114 57.4 133.914 57.4C133.114 57.4 132.414 57.4 131.614 57.4C131.314 57.4 131.314 57.3 131.314 57.1C131.314 54.4 131.314 51.7 131.314 48.9C131.314 48.6 131.214 48.6 131.014 48.6C129.614 48.6 128.214 48.6 126.814 48.6C126.614 48.6 126.514 48.5 126.514 48.3C126.514 47.5 126.514 46.7 126.514 45.9C126.514 45.7 126.614 45.6 126.814 45.6C128.614 45.6 130.614 45.6 132.614 45.6Z" fill="#051A35"/>
<path d="M108.114 61C110.114 61 112.014 61 114.014 61C114.314 61 114.314 61.1 114.314 61.3C114.314 62.1 114.314 62.9 114.314 63.6C114.314 63.8 114.214 63.9 114.014 63.9C112.614 63.9 111.314 63.9 109.914 63.9C109.714 63.9 109.714 64 109.714 64.3C109.714 67 109.714 69.7 109.714 72.4C109.714 72.6 109.714 72.7 109.414 72.7C108.614 72.7 107.814 72.7 107.014 72.7C106.814 72.7 106.714 72.6 106.714 72.4C106.714 69.7 106.714 66.9 106.714 64.2C106.714 63.9 106.614 63.9 106.414 63.9C105.014 63.9 103.614 63.9 102.214 63.9C102.014 63.9 101.914 63.9 101.914 63.6C101.914 62.8 101.914 62 101.914 61.2C101.914 61 102.014 60.9 102.214 60.9C104.214 61 106.114 61 108.114 61Z" fill="#051A35"/>
<path d="M118.414 49.3C119.414 48.1 120.514 47 121.514 45.8C121.614 45.7 121.814 45.6 122.014 45.6C123.214 45.6 124.414 45.6 125.514 45.6C125.514 45.7 125.414 45.8 125.414 45.8C123.614 47.8 121.914 49.8 120.114 51.8C119.914 52 119.914 52.2 119.914 52.4C119.914 53.9 119.914 55.5 119.914 57C119.914 57.2 119.914 57.3 119.614 57.3C118.814 57.3 118.014 57.3 117.214 57.3C117.014 57.3 116.914 57.3 116.914 57C116.914 55.4 116.914 53.9 116.914 52.3C116.914 52.1 116.814 51.9 116.714 51.7C114.914 49.7 113.214 47.7 111.414 45.7C111.314 45.6 111.314 45.6 111.314 45.5C111.414 45.4 111.414 45.4 111.514 45.4C112.614 45.4 113.814 45.4 114.914 45.4C115.114 45.4 115.214 45.5 115.314 45.6C116.314 46.9 117.414 48.1 118.414 49.3Z" fill="#051A35"/>
<path d="M60.8141 47.7999C60.8141 49.9999 59.1141 51.6999 56.9141 51.6999C54.7141 51.6999 53.0141 49.9999 52.9141 47.7999C52.9141 45.5999 54.6141 43.7999 56.8141 43.7999C59.0141 43.8999 60.8141 45.5999 60.8141 47.7999Z" fill="#6144BA"/>
<path d="M96.7144 66.9C96.7144 65 96.7144 63.2 96.7144 61.3C96.7144 61.1 96.8144 61 97.0144 61C97.8144 61 98.6144 61 99.4144 61C99.6144 61 99.6144 61 99.6144 61.2C99.6144 64.9 99.6144 68.7 99.6144 72.4C99.6144 72.6 99.5144 72.6 99.4144 72.6C98.6144 72.6 97.8144 72.6 97.0144 72.6C96.8144 72.6 96.7144 72.5 96.7144 72.3C96.7144 70.6 96.7144 68.7 96.7144 66.9Z" fill="#051A35"/>
<path d="M143.614 51.4C143.614 53.3 143.614 55.1 143.614 57C143.614 57.2 143.514 57.3 143.314 57.3C142.514 57.3 141.714 57.3 140.914 57.3C140.714 57.3 140.714 57.3 140.714 57.1C140.714 53.4 140.714 49.6 140.714 45.9C140.714 45.7 140.814 45.6 141.014 45.6C141.814 45.6 142.614 45.6 143.414 45.6C143.614 45.6 143.714 45.7 143.714 45.9C143.614 47.7 143.614 49.6 143.614 51.4Z" fill="#051A35"/>
<path d="M180.514 72.2C180.514 72.1 180.514 72.1 180.514 72.1V72C180.514 71.9 180.514 71.9 180.514 71.8C180.514 71.8 180.514 71.8 180.414 71.7C180.414 71.7 180.514 71.7 180.514 71.6C180.514 71.6 180.514 71.5 180.514 71.4C180.514 71.3 180.414 71.2 180.314 71.1C180.214 71.1 180.214 71.1 180.114 71.1H179.614V72.2H179.714V71.8H180.014C180.114 71.8 180.114 71.8 180.114 71.8L180.214 71.9V72.1V72.2H180.514ZM180.314 71.6H180.214H179.914V71.3H180.214H180.314L180.414 71.4C180.314 71.6 180.314 71.6 180.314 71.6Z" fill="white"/>
<path d="M180.014 72.8C179.414 72.8 178.914 72.3 178.914 71.7C178.914 71.1 179.414 70.6 180.014 70.6C180.614 70.6 181.114 71.1 181.114 71.7C181.114 72.3 180.614 72.8 180.014 72.8ZM180.014 70.9C179.514 70.9 179.114 71.3 179.114 71.8C179.114 72.3 179.514 72.7 180.014 72.7C180.514 72.7 180.914 72.3 180.914 71.8C180.914 71.3 180.514 70.9 180.014 70.9Z" fill="white"/>
</g>
<defs>
<clipPath id="clip0_1325_2467">
<rect width="136.4" height="36.2" fill="white" transform="translate(44.7144 42)"/>
</clipPath>
</defs>
</svg>
