<svg width="138" height="41" viewBox="0 0 138 41" fill="none" xmlns="http://www.w3.org/2000/svg">
<path d="M132.567 40.3003H5.29312C2.49436 40.3003 0.202148 38.0623 0.202148 35.3298V5.50661C0.202148 2.77406 2.49436 0.536083 5.29312 0.536083H132.567C135.366 0.536083 137.658 2.77406 137.658 5.50661V35.3298C137.658 38.0623 135.366 40.3003 132.567 40.3003Z" fill="black"/>
<path d="M132.567 1.33261C134.924 1.33261 136.843 3.20526 136.843 5.50661V35.3298C136.843 37.6311 134.924 39.5038 132.567 39.5038H5.29312C2.936 39.5038 1.01798 37.6311 1.01798 35.3298V5.50661C1.01798 3.20526 2.936 1.33261 5.29312 1.33261H132.567ZM132.567 0.536083H5.29312C2.49436 0.536083 0.202148 2.77406 0.202148 5.50661V35.3298C0.202148 38.0623 2.49436 40.3003 5.29312 40.3003H132.567C135.366 40.3003 137.658 38.0623 137.658 35.3298V5.50661C137.658 2.77406 135.366 0.536083 132.567 0.536083Z" fill="#A6A6A6"/>
<path d="M48.481 10.7197C48.481 11.5498 48.2265 12.2146 47.725 12.7104C47.1485 13.2981 46.3975 13.5939 45.4773 13.5939C44.5979 13.5939 43.847 13.2932 43.2309 12.7004C42.6137 12.099 42.3057 11.3609 42.3057 10.4774C42.3057 9.59385 42.6137 8.85573 43.2309 8.25926C43.847 7.66156 44.5979 7.36084 45.4773 7.36084C45.9152 7.36084 46.3326 7.44907 46.731 7.61309C47.1281 7.77836 47.4514 8.00204 47.6855 8.2779L47.1535 8.80229C46.745 8.33134 46.1888 8.09896 45.4773 8.09896C44.8359 8.09896 44.2797 8.31767 43.8075 8.7588C43.3404 9.20118 43.1062 9.77403 43.1062 10.4774C43.1062 11.1807 43.3404 11.7585 43.8075 12.2009C44.2797 12.6371 44.8359 12.8607 45.4773 12.8607C46.1583 12.8607 46.731 12.6371 47.1828 12.1959C47.4806 11.9039 47.6499 11.5013 47.6945 10.9868H45.4773V10.2686H48.4352C48.4708 10.4239 48.481 10.5743 48.481 10.7197Z" fill="white" stroke="white" stroke-width="0.122351" stroke-miterlimit="10"/>
<path d="M53.1743 8.22922H50.3959V10.118H52.9007V10.8363H50.3959V12.7251H53.1743V13.457H49.6094V7.49731H53.1743V8.22922Z" fill="white" stroke="white" stroke-width="0.122351" stroke-miterlimit="10"/>
<path d="M56.4878 13.457H55.7013V8.22922H53.9971V7.49731H58.1933V8.22922H56.4878V13.457Z" fill="white" stroke="white" stroke-width="0.122351" stroke-miterlimit="10"/>
<path d="M61.2295 13.457V7.49731H62.0148V13.457H61.2295Z" fill="white" stroke="white" stroke-width="0.122351" stroke-miterlimit="10"/>
<path d="M65.4947 13.4572H64.7145V8.22947H63.0039V7.49756H67.2052V8.22947H65.4947V13.4572Z" fill="white" stroke="white" stroke-width="0.122351" stroke-miterlimit="10"/>
<path d="M75.1504 12.6902C74.5484 13.2929 73.8026 13.5936 72.9129 13.5936C72.0182 13.5936 71.2723 13.2929 70.6703 12.6902C70.0696 12.0888 69.7705 11.3507 69.7705 10.4771C69.7705 9.60355 70.0696 8.86542 70.6703 8.26399C71.2723 7.66131 72.0182 7.3606 72.9129 7.3606C73.7975 7.3606 74.5433 7.66131 75.1453 8.26896C75.7511 8.87536 76.0502 9.60852 76.0502 10.4771C76.0502 11.3507 75.7511 12.0888 75.1504 12.6902ZM71.252 12.1907C71.7051 12.6368 72.2562 12.8605 72.9129 12.8605C73.5646 12.8605 74.1207 12.6368 74.5687 12.1907C75.0206 11.7446 75.2497 11.1717 75.2497 10.4771C75.2497 9.78249 75.0206 9.20963 74.5687 8.76353C74.1207 8.31742 73.5646 8.09375 72.9129 8.09375C72.2562 8.09375 71.7051 8.31742 71.252 8.76353C70.8002 9.20963 70.5711 9.78249 70.5711 10.4771C70.5711 11.1717 70.8002 11.7446 71.252 12.1907Z" fill="white" stroke="white" stroke-width="0.122351" stroke-miterlimit="10"/>
<path d="M77.1543 13.4567V7.49707H78.1089L81.0769 12.1321H81.1113L81.0769 10.9864V7.49707H81.8622V13.4567H81.0425L77.9345 8.59307H77.9001L77.9345 9.74375V13.4567H77.1543Z" fill="white" stroke="white" stroke-width="0.122351" stroke-miterlimit="10"/>
<path d="M69.5772 22.1605C67.1857 22.1605 65.2321 23.9375 65.2321 26.3892C65.2321 28.821 67.1857 30.6166 69.5772 30.6166C71.9738 30.6166 73.9275 28.821 73.9275 26.3892C73.9275 23.9375 71.9738 22.1605 69.5772 22.1605ZM69.5772 28.9515C68.265 28.9515 67.1361 27.894 67.1361 26.3892C67.1361 24.8645 68.265 23.8256 69.5772 23.8256C70.8894 23.8256 72.0234 24.8645 72.0234 26.3892C72.0234 27.894 70.8894 28.9515 69.5772 28.9515ZM60.0966 22.1605C57.7 22.1605 55.7514 23.9375 55.7514 26.3892C55.7514 28.821 57.7 30.6166 60.0966 30.6166C62.4919 30.6166 64.4417 28.821 64.4417 26.3892C64.4417 23.9375 62.4919 22.1605 60.0966 22.1605ZM60.0966 28.9515C58.7831 28.9515 57.6504 27.894 57.6504 26.3892C57.6504 24.8645 58.7831 23.8256 60.0966 23.8256C61.4088 23.8256 62.5377 24.8645 62.5377 26.3892C62.5377 27.894 61.4088 28.9515 60.0966 28.9515ZM48.815 23.4566V25.2534H53.2098C53.0812 26.2575 52.7376 26.9956 52.2106 27.51C51.5692 28.1313 50.5701 28.821 48.815 28.821C46.1104 28.821 43.9926 26.6899 43.9926 24.0493C43.9926 21.4087 46.1104 19.2776 48.815 19.2776C50.2774 19.2776 51.3414 19.8355 52.1266 20.5587L53.4236 19.2925C52.3252 18.2686 50.8641 17.482 48.815 17.482C45.1062 17.482 41.9893 20.4283 41.9893 24.0493C41.9893 27.6703 45.1062 30.6166 48.815 30.6166C50.8195 30.6166 52.3252 29.9754 53.5088 28.7725C54.7218 27.5883 55.0998 25.9232 55.0998 24.5787C55.0998 24.1611 55.0641 23.7772 55.0005 23.4566H48.815ZM94.9468 24.8495C94.5891 23.9039 93.4857 22.1605 91.238 22.1605C89.0107 22.1605 87.1563 23.8741 87.1563 26.3892C87.1563 28.7576 88.9916 30.6166 91.4518 30.6166C93.4411 30.6166 94.5891 29.4324 95.0613 28.7427L93.585 27.7822C93.0924 28.4855 92.4217 28.9515 91.4518 28.9515C90.4884 28.9515 89.7973 28.5203 89.3544 27.6703L95.1466 25.3304L94.9468 24.8495ZM89.0413 26.2574C88.9916 24.6271 90.3382 23.7921 91.3029 23.7921C92.0589 23.7921 92.7004 24.1611 92.9142 24.6892L89.0413 26.2574ZM84.3334 30.3594H86.2374V17.9331H84.3334V30.3594ZM81.2152 23.1024H81.1515C80.7239 22.6078 79.9081 22.1605 78.8746 22.1605C76.7059 22.1605 74.7229 24.0195 74.7229 26.4028C74.7229 28.7725 76.7059 30.6166 78.8746 30.6166C79.9081 30.6166 80.7239 30.1655 81.1515 29.656H81.2152V30.2625C81.2152 31.8791 80.3306 32.7477 78.9039 32.7477C77.7406 32.7477 77.0189 31.9276 76.7211 31.2379L75.0653 31.9127C75.5426 33.0335 76.8064 34.4128 78.9039 34.4128C81.1363 34.4128 83.0199 33.1304 83.0199 30.0102V22.4177H81.2152V23.1024ZM79.0375 28.9515C77.7253 28.9515 76.6269 27.8791 76.6269 26.4028C76.6269 24.9129 77.7253 23.8256 79.0375 23.8256C80.3306 23.8256 81.3501 24.9129 81.3501 26.4028C81.3501 27.8791 80.3306 28.9515 79.0375 28.9515ZM103.861 17.9331H99.3072V30.3594H101.206V25.651H103.861C105.97 25.651 108.038 24.1611 108.038 21.7914C108.038 19.423 105.965 17.9331 103.861 17.9331ZM103.911 23.9225H101.206V19.6616H103.911C105.329 19.6616 106.138 20.811 106.138 21.7914C106.138 22.7532 105.329 23.9225 103.911 23.9225ZM115.649 22.1369C114.277 22.1369 112.85 22.7284 112.264 24.0394L113.949 24.729C114.312 24.0394 114.978 23.8157 115.684 23.8157C116.669 23.8157 117.668 24.3935 117.683 25.4137V25.5442C117.339 25.3503 116.604 25.0633 115.699 25.0633C113.884 25.0633 112.035 26.0387 112.035 27.8592C112.035 29.5243 113.521 30.5967 115.192 30.5967C116.47 30.5967 117.175 30.0338 117.618 29.3789H117.683V30.3395H119.517V25.5728C119.517 23.3696 117.832 22.1369 115.649 22.1369ZM115.42 28.9465C114.799 28.9465 113.934 28.6458 113.934 27.894C113.934 26.9322 115.013 26.5631 115.947 26.5631C116.783 26.5631 117.175 26.7433 117.683 26.9807C117.534 28.1313 116.52 28.9465 115.42 28.9465ZM126.199 22.409L124.016 27.7958H123.951L121.695 22.409H119.647L123.037 29.9369L121.103 34.1258H123.087L128.312 22.409H126.199ZM109.082 30.3594H110.986V17.9331H109.082V30.3594Z" fill="white"/>
<path d="M10.8277 8.0305C10.5286 8.33619 10.3555 8.81212 10.3555 9.42846V31.4131C10.3555 32.0295 10.5286 32.5054 10.8277 32.8111L10.9015 32.8782L23.5194 20.5637V20.2729L10.9015 7.95843L10.8277 8.0305Z" fill="url(#paint0_linear_143_1510)"/>
<path d="M27.7199 24.6704L23.5186 20.5635V20.2727L27.725 16.1658L27.8192 16.2193L32.8007 18.9866C34.2223 19.772 34.2223 21.0643 32.8007 21.8546L27.8192 24.617L27.7199 24.6704Z" fill="url(#paint1_linear_143_1510)"/>
<path d="M27.8195 24.6172L23.5189 20.4183L10.8271 32.8111C11.2993 33.2957 12.0693 33.3541 12.945 32.8695L27.8195 24.6172Z" fill="url(#paint2_linear_143_1510)"/>
<path d="M27.8195 16.2194L12.945 7.96704C12.0693 7.48739 11.2993 7.54579 10.8271 8.03041L23.5189 20.4182L27.8195 16.2194Z" fill="url(#paint3_linear_143_1510)"/>
<defs>
<linearGradient id="paint0_linear_143_1510" x1="22.3991" y1="31.6421" x2="5.72042" y2="14.5592" gradientUnits="userSpaceOnUse">
<stop stop-color="#00A0FF"/>
<stop offset="0.0066" stop-color="#00A1FF"/>
<stop offset="0.2601" stop-color="#00BEFF"/>
<stop offset="0.5122" stop-color="#00D2FF"/>
<stop offset="0.7604" stop-color="#00DFFF"/>
<stop offset="1" stop-color="#00E3FF"/>
</linearGradient>
<linearGradient id="paint1_linear_143_1510" x1="34.6519" y1="20.4167" x2="10.0148" y2="20.4167" gradientUnits="userSpaceOnUse">
<stop stop-color="#FFE000"/>
<stop offset="0.4087" stop-color="#FFBD00"/>
<stop offset="0.7754" stop-color="#FFA500"/>
<stop offset="1" stop-color="#FF9C00"/>
</linearGradient>
<linearGradient id="paint2_linear_143_1510" x1="25.481" y1="18.1358" x2="2.86332" y2="-5.02997" gradientUnits="userSpaceOnUse">
<stop stop-color="#FF3A44"/>
<stop offset="1" stop-color="#C31162"/>
</linearGradient>
<linearGradient id="paint3_linear_143_1510" x1="7.63236" y1="40.1252" x2="17.7322" y2="29.7807" gradientUnits="userSpaceOnUse">
<stop stop-color="#32A071"/>
<stop offset="0.0685" stop-color="#2DA771"/>
<stop offset="0.4762" stop-color="#15CF74"/>
<stop offset="0.8009" stop-color="#06E775"/>
<stop offset="1" stop-color="#00F076"/>
</linearGradient>
</defs>
</svg>
